<?xml version="1.0" standalone="no"?>
<!DOCTYPE svg PUBLIC "-//W3C//DTD SVG 20010904//EN"
 "http://www.w3.org/TR/2001/REC-SVG-20010904/DTD/svg10.dtd">
<svg version="1.0" xmlns="http://www.w3.org/2000/svg"
 width="233.000000pt" height="233.000000pt" viewBox="0 0 233.000000 233.000000"
 preserveAspectRatio="xMidYMid meet">
<metadata>
Created by potrace 1.11, written by Peter Selinger 2001-2013
</metadata>
<g transform="translate(0.000000,233.000000) scale(0.100000,-0.100000)"
fill="#000000" stroke="none">
<path d="M1249 2127 c-99 -28 -181 -112 -257 -263 -43 -84 -47 -131 -23 -241
25 -109 25 -123 7 -123 -22 0 -107 81 -143 138 -36 55 -41 58 -47 26 -2 -11
-6 -36 -10 -56 l-7 -38 -63 35 c-69 38 -85 43 -67 21 10 -12 5 -16 -26 -26
-118 -39 -181 -96 -184 -170 -1 -19 -9 -51 -17 -70 -23 -49 -20 -152 6 -215
14 -36 32 -59 62 -80 59 -42 71 -62 46 -81 -11 -8 -24 -14 -30 -14 -24 0 -103
99 -125 155 -60 157 -75 174 -66 73 12 -125 41 -186 110 -223 22 -13 46 -34
53 -49 25 -50 47 -52 124 -12 76 40 98 43 131 21 49 -31 106 -21 172 32 l32
26 -48 47 c-63 60 -65 86 -7 81 10 -1 23 3 30 9 7 6 31 22 53 36 37 23 38 24
10 17 -45 -10 -66 -6 -89 17 -16 16 -18 24 -10 37 13 21 89 46 121 40 27 -5
20 19 -8 28 -21 7 -27 55 -6 56 6 0 23 2 37 4 96 16 99 16 110 -5 10 -18 13
-19 26 -5 28 27 42 17 51 -36 4 -28 -9 -40 -22 -19 -23 37 -27 -15 -9 -110 1
-8 3 -24 4 -35 1 -14 5 -9 14 15 9 25 21 38 45 46 18 6 40 24 51 41 39 64 65
55 131 -45 28 -42 67 -90 85 -107 43 -38 48 -61 24 -124 -19 -48 -19 -50 -1
-72 l18 -22 30 64 c34 74 79 129 128 157 38 23 47 19 38 -16 -6 -24 -5 -25 43
-18 31 5 54 14 63 27 7 10 24 19 38 19 20 0 29 10 48 54 20 45 35 62 80 91 44
28 56 40 53 58 -2 14 -11 23 -25 25 -22 3 -25 0 -130 -116 -32 -35 -45 -43
-83 -46 -84 -7 -84 2 3 64 108 77 175 261 144 395 -14 62 -15 69 -16 82 -1 6
-14 25 -30 41 -17 16 -33 42 -37 58 -11 48 -42 83 -84 95 -114 34 -218 -58
-249 -221 -7 -36 -17 -86 -22 -113 -7 -36 -57 -156 -74 -175 -1 -1 -14 2 -28
9 -27 12 -38 44 -26 75 4 10 8 33 8 50 1 21 9 37 24 48 16 12 18 18 9 22 -17
8 -52 45 -52 57 0 5 16 -1 35 -13 l35 -22 1 24 c1 13 3 34 4 48 1 14 3 39 4
55 l2 30 13 -30 14 -30 26 56 c16 33 28 79 30 110 5 90 -3 95 -38 26 l-31 -62
-6 75 c-7 88 -25 129 -74 166 -42 31 -92 38 -156 21z"/>
<path d="M340 1535 c0 -16 16 -20 24 -6 3 5 -1 11 -9 15 -9 3 -15 0 -15 -9z"/>
<path d="M1087 1160 c3 -11 7 -20 9 -20 2 0 4 9 4 20 0 11 -4 20 -9 20 -5 0
-7 -9 -4 -20z"/>
<path d="M1040 1080 c-9 -16 -8 -18 5 -14 8 4 15 12 15 20 0 20 -7 17 -20 -6z"/>
<path d="M382 947 c-9 -11 -10 -17 -2 -22 15 -9 23 -1 18 21 -3 15 -4 16 -16
1z"/>
<path d="M1615 932 c-114 -54 -172 -202 -129 -328 44 -131 148 -173 272 -110
57 29 126 97 154 150 71 139 -26 293 -192 303 -49 3 -75 -1 -105 -15z"/>
<path d="M590 872 c0 -23 19 -42 42 -42 24 0 23 -15 -4 -40 -87 -77 -149 -127
-160 -127 -14 -1 -92 -11 -143 -19 -56 -9 -103 -26 -131 -49 l-28 -22 36 -17
c26 -13 41 -29 52 -57 20 -51 20 -63 -1 -55 -10 3 -4 -5 12 -19 17 -14 34 -25
38 -25 5 0 42 -14 82 -31 66 -27 80 -38 132 -102 67 -83 82 -97 141 -132 75
-46 163 -61 326 -59 80 2 154 8 164 13 32 17 45 63 34 116 -11 50 -8 82 14
197 8 42 13 96 11 120 -2 24 -1 50 4 59 13 26 -36 171 -74 217 -86 107 -246
119 -415 33 l-43 -22 21 41 20 40 -65 0 c-56 0 -65 -3 -65 -18z"/>
<path d="M1370 876 c0 -2 22 -18 48 -34 34 -21 49 -26 49 -16 0 21 -32 45 -66
50 -17 3 -31 3 -31 0z"/>
<path d="M1340 774 c-25 -21 -30 -32 -26 -56 2 -16 -4 -54 -14 -83 l-19 -54
37 -3 c32 -3 38 -7 42 -32 3 -18 21 -42 48 -64 l42 -35 0 29 c0 16 -9 57 -20
91 -14 45 -18 78 -14 120 6 63 -7 113 -30 113 -8 0 -28 -12 -46 -26z"/>
<path d="M1300 489 c0 -5 5 -7 10 -4 6 3 10 8 10 11 0 2 -4 4 -10 4 -5 0 -10
-5 -10 -11z"/>
<path d="M1775 456 c-11 -8 -16 -19 -12 -30 8 -21 23 -21 31 2 3 9 9 23 12 30
8 16 -8 15 -31 -2z"/>
<path d="M1586 395 c8 -38 20 -51 27 -31 3 8 -3 25 -14 38 l-19 23 6 -30z"/>
<path d="M1656 402 c-3 -6 2 -18 11 -28 12 -12 18 -13 21 -4 6 16 -24 45 -32
32z"/>
<path d="M1050 10 c0 -5 7 -10 15 -10 8 0 15 5 15 10 0 6 -7 10 -15 10 -8 0
-15 -4 -15 -10z"/>
</g>
</svg>
