<?xml version="1.0" standalone="no"?>
<!DOCTYPE svg PUBLIC "-//W3C//DTD SVG 20010904//EN"
 "http://www.w3.org/TR/2001/REC-SVG-20010904/DTD/svg10.dtd">
<svg version="1.0" xmlns="http://www.w3.org/2000/svg"
 width="764.000000pt" height="764.000000pt" viewBox="0 0 764.000000 764.000000"
 preserveAspectRatio="xMidYMid meet">
<metadata>
Created by potrace 1.11, written by Peter Selinger 2001-2013
</metadata>
<g transform="translate(0.000000,764.000000) scale(0.100000,-0.100000)"
fill="#000000" stroke="none">
<path d="M3860 7263 c-67 -8 -114 -35 -331 -193 -129 -94 -295 -214 -369 -267
-74 -54 -137 -100 -140 -103 -5 -5 -398 -292 -486 -355 -23 -16 -153 -111
-289 -210 -135 -99 -274 -200 -308 -224 -34 -25 -102 -75 -152 -111 -107 -79
-574 -420 -645 -470 -330 -235 -621 -455 -643 -487 -110 -162 -1 -381 193
-389 71 -3 116 16 217 88 44 32 83 58 86 58 2 0 4 -861 4 -1912 1 -1793 2
-1916 18 -1956 40 -99 157 -150 262 -114 45 14 106 74 125 120 8 19 11 606 12
2100 l1 2074 201 146 c111 81 212 155 225 165 13 9 60 43 104 75 72 50 118 85
150 110 6 4 82 60 170 123 88 64 387 282 665 484 537 392 733 535 862 628 45
32 85 54 91 50 14 -8 226 -164 527 -386 118 -88 233 -173 255 -189 22 -16 74
-55 116 -86 42 -31 89 -66 104 -77 61 -44 901 -665 910 -672 6 -5 114 -85 240
-178 127 -93 236 -175 242 -182 10 -9 13 -450 15 -2096 l3 -2085 30 -44 c57
-80 152 -111 247 -79 53 18 114 90 126 149 5 27 8 838 8 1943 l-1 1897 30 -21
c16 -11 55 -39 85 -62 71 -53 103 -66 168 -70 96 -6 180 39 229 122 53 90 34
233 -38 300 -19 17 -206 158 -384 287 -11 8 -101 75 -200 148 -341 253 -451
335 -815 603 -201 148 -367 272 -370 275 -3 3 -21 17 -40 30 -29 20 -441 324
-1220 900 -80 59 -151 110 -158 115 -24 13 -106 31 -132 28z"/>
<path d="M3407 5364 c-1 -1 -40 -4 -87 -8 -558 -42 -954 -332 -1129 -829 -17
-48 -33 -98 -36 -110 -3 -12 -15 -65 -27 -117 l-23 -95 0 -1872 c-1 -1674 1
-1872 15 -1875 8 -2 659 -4 1445 -3 l1430 0 0 925 0 925 97 46 c85 41 147 79
213 128 11 9 58 54 105 101 217 217 352 528 414 950 12 84 20 204 20 325 1
121 -1 134 -26 188 -16 34 -50 80 -81 111 -170 166 -463 107 -565 -113 -23
-48 -27 -70 -26 -146 0 -78 4 -98 29 -148 15 -32 48 -78 72 -102 45 -45 136
-95 173 -95 19 0 21 -4 16 -37 -39 -270 -153 -528 -298 -673 -99 -99 -242
-175 -372 -199 -41 -8 -417 -11 -1173 -11 l-1113 0 -1 23 c-3 51 0 129 5 134
2 3 31 -2 63 -10 189 -47 392 8 538 144 67 64 115 137 154 237 l26 67 3 468
c3 461 3 469 -18 513 -65 133 -245 141 -331 15 l-24 -36 -5 -450 c-5 -492 -3
-476 -66 -538 -108 -109 -306 -49 -339 102 -9 41 -9 790 0 852 16 115 33 184
66 269 140 368 444 558 900 562 175 2 315 -14 489 -56 41 -10 161 -60 210 -88
148 -83 266 -209 337 -358 78 -163 110 -316 118 -565 2 -67 9 -124 18 -145 46
-107 195 -146 284 -73 63 50 76 82 76 187 1 89 -9 239 -18 286 -3 13 -7 42
-10 65 -25 171 -115 412 -209 555 -146 223 -383 398 -656 485 -47 15 -96 29
-110 31 -14 3 -41 9 -60 14 -19 5 -60 12 -90 15 -30 4 -57 8 -60 10 -10 6
-357 24 -363 19z m1210 -3821 l-2 -708 -1062 0 c-585 0 -1064 2 -1065 5 0 3
-2 321 -3 708 l-1 702 1067 0 1068 0 -2 -707z"/>
<path d="M3640 4141 c-58 -22 -85 -45 -117 -98 -50 -86 -35 -197 36 -269 45
-45 92 -65 156 -66 128 -2 226 97 226 227 0 154 -157 261 -301 206z"/>
<path d="M4201 4143 c-121 -42 -181 -196 -122 -311 86 -167 316 -165 404 3 41
80 18 202 -51 264 -59 52 -154 70 -231 44z"/>
</g>
</svg>
