<?xml version="1.0" encoding="UTF-8" standalone="no"?>
<!DOCTYPE svg PUBLIC "-//W3C//DTD SVG 1.1//EN" "http://www.w3.org/Graphics/SVG/1.1/DTD/svg11.dtd">
<svg width="100%" height="100%" viewBox="0 0 3508 4961" version="1.1" xmlns="http://www.w3.org/2000/svg" xmlns:xlink="http://www.w3.org/1999/xlink" xml:space="preserve" xmlns:serif="http://www.serif.com/" style="fill-rule:evenodd;clip-rule:evenodd;stroke-linejoin:round;stroke-miterlimit:2;">
    <g id="final">
        <g transform="matrix(2.14908,0,0,2.14908,-2733.84,-2570.1)">
            <g>
                <g transform="matrix(0.437681,0,0,0.437681,983.994,732.916)">
                    <circle cx="1633.16" cy="3232.79" r="51.667"/>
                </g>
                <g transform="matrix(0.437681,0,0,0.437681,1040.16,732.916)">
                    <circle cx="1633.16" cy="3232.79" r="51.667"/>
                </g>
                <path d="M1536.89,2203.84L1536.89,2141.83C1536.75,2134.13 1537.12,2072.66 1581.64,2034.74C1601.84,2017.55 1631.09,2004.71 1673.93,2004.71C1730.19,2004.71 1765.28,2021.85 1787.52,2044.47C1820.88,2078.39 1825.56,2126.46 1825.56,2156.34C1825.56,2166.81 1817.07,2175.3 1806.6,2175.3C1796.14,2175.3 1787.64,2166.81 1787.64,2156.34C1787.64,2133.71 1785.76,2096.75 1760.49,2071.06C1743.65,2053.94 1716.52,2042.63 1673.93,2042.63C1642.64,2042.63 1620.98,2051.05 1606.23,2063.61C1572.25,2092.54 1574.79,2140.88 1574.79,2140.88C1574.8,2141.17 1574.81,2141.46 1574.81,2141.75L1574.81,2206.98C1575.62,2219.53 1585.53,2227.18 1595.73,2227.18C1606.32,2227.18 1616.16,2218.28 1616.16,2205.29L1616.16,2128.7C1616.16,2118.24 1624.66,2109.74 1635.12,2109.74C1645.59,2109.74 1654.08,2118.24 1654.08,2128.7L1654.08,2205.29C1654.08,2241.54 1625.27,2265.1 1595.73,2265.1C1588.61,2265.1 1581.5,2263.8 1574.81,2261.3L1574.81,2278.01L1794.92,2278.01C1804.07,2277.53 1823.96,2274.34 1841.15,2256.8C1854.75,2242.93 1866.14,2220.91 1871.28,2186.57C1854.15,2184.02 1840.99,2169.23 1840.99,2151.39C1840.99,2131.77 1856.92,2115.83 1876.55,2115.83C1896.18,2115.83 1912.11,2131.77 1912.11,2151.39C1912.11,2152.44 1912.07,2153.48 1911.98,2154.51C1910.08,2222.27 1890.21,2260.93 1868.23,2283.34C1854.65,2297.2 1839.93,2305.25 1826.73,2309.88L1826.73,2495.43L1537.44,2495.43L1537.44,2399.19L1537.43,2399.14C1537.08,2397.66 1536.9,2396.16 1536.89,2394.64L1536.89,2208.07C1536.85,2207.15 1536.83,2206.23 1536.83,2205.29C1536.83,2204.8 1536.85,2204.32 1536.89,2203.84ZM1575.36,2315.93L1575.36,2457.51L1788.82,2457.51L1788.82,2315.93L1575.36,2315.93Z"/>
            </g>
            <path d="M1426.79,2080.2L1411.86,2091.08C1400.7,2099.2 1385.05,2096.74 1376.93,2085.59C1368.81,2074.44 1371.26,2058.79 1382.42,2050.66L1699.74,1819.51C1708.56,1813.08 1720.54,1813.12 1729.32,1819.61L2041.99,2050.77C2053.09,2058.97 2055.44,2074.64 2047.23,2085.73C2039.03,2096.83 2023.37,2099.18 2012.27,2090.97L1997.48,2080.04L1997.48,2459.78C1997.47,2462.69 1996.87,2465.57 1995.69,2468.23C1994.58,2470.72 1992.99,2472.98 1991.02,2474.86C1989.14,2476.65 1986.92,2478.09 1984.52,2479.07C1982.32,2479.97 1979.96,2480.49 1977.59,2480.59C1975.31,2480.69 1973.01,2480.42 1970.82,2479.79C1968.88,2479.22 1967.02,2478.37 1965.32,2477.26C1961.55,2474.81 1958.62,2471.16 1957.08,2466.94C1956.24,2464.65 1955.82,2462.22 1955.81,2459.78L1955.81,2049.24L1714.35,1870.73L1468.45,2049.85L1468.45,2459.78C1468.44,2462.69 1467.85,2465.57 1466.66,2468.23C1465.56,2470.72 1463.96,2472.98 1461.99,2474.86C1460.11,2476.65 1457.9,2478.09 1455.49,2479.07C1453.29,2479.97 1450.94,2480.49 1448.56,2480.59C1446.28,2480.69 1443.99,2480.42 1441.8,2479.79C1439.85,2479.22 1437.99,2478.37 1436.29,2477.26C1432.53,2474.81 1429.6,2471.16 1428.05,2466.94C1427.21,2464.65 1426.8,2462.22 1426.79,2459.78L1426.79,2080.2Z"/>
        </g>
        <g transform="matrix(2.14908,0,0,1.64734,-8564.37,-2693.57)">
            <rect x="4110.18" y="3281.55" width="1462.01" height="261.758"/>
        </g>
        <g transform="matrix(3.25197,0,0,3.22957,-12533,-4211.5)">
            <g transform="matrix(196.156,0,0,196.156,4423.19,1966.37)">
                <path d="M0.105,0L0.32,0C0.554,0 0.672,-0.097 0.672,-0.36C0.672,-0.623 0.554,-0.72 0.32,-0.72L0.105,-0.72C0.073,-0.72 0.055,-0.702 0.055,-0.67L0.055,-0.05C0.055,-0.018 0.073,0 0.105,0ZM0.265,-0.17L0.265,-0.55L0.32,-0.55C0.42,-0.55 0.458,-0.51 0.458,-0.36C0.458,-0.21 0.42,-0.17 0.32,-0.17L0.265,-0.17Z" style="fill-rule:nonzero;"/>
            </g>
            <g transform="matrix(196.156,0,0,196.156,4560.3,1966.37)">
                <path d="M0.352,0.014C0.563,0.014 0.679,-0.111 0.679,-0.364C0.679,-0.617 0.563,-0.734 0.352,-0.734C0.142,-0.734 0.027,-0.617 0.027,-0.364C0.027,-0.111 0.142,0.014 0.352,0.014ZM0.352,-0.159C0.275,-0.159 0.241,-0.222 0.241,-0.364C0.241,-0.506 0.275,-0.561 0.352,-0.561C0.43,-0.561 0.465,-0.506 0.465,-0.364C0.465,-0.222 0.43,-0.159 0.352,-0.159Z" style="fill-rule:nonzero;"/>
            </g>
            <g transform="matrix(196.156,0,0,196.156,4698.79,1966.37)">
                <path d="M0.353,0.014C0.551,0.014 0.65,-0.093 0.65,-0.265C0.65,-0.308 0.647,-0.338 0.641,-0.366C0.633,-0.404 0.614,-0.416 0.536,-0.416C0.459,-0.416 0.43,-0.407 0.437,-0.361C0.441,-0.333 0.443,-0.306 0.443,-0.275C0.443,-0.199 0.413,-0.159 0.352,-0.159C0.275,-0.159 0.242,-0.222 0.242,-0.364C0.242,-0.506 0.292,-0.56 0.379,-0.56C0.487,-0.56 0.536,-0.515 0.566,-0.515C0.6,-0.515 0.618,-0.58 0.618,-0.626C0.618,-0.67 0.605,-0.688 0.568,-0.703C0.516,-0.724 0.459,-0.734 0.361,-0.734C0.159,-0.734 0.027,-0.609 0.027,-0.364C0.027,-0.111 0.142,0.014 0.353,0.014Z" style="fill-rule:nonzero;"/>
            </g>
            <g transform="matrix(196.156,0,0,196.156,4354.43,2127.1)">
                <path d="M0.105,0L0.32,0C0.554,0 0.672,-0.097 0.672,-0.36C0.672,-0.623 0.554,-0.72 0.32,-0.72L0.105,-0.72C0.073,-0.72 0.055,-0.702 0.055,-0.67L0.055,-0.05C0.055,-0.018 0.073,0 0.105,0ZM0.265,-0.17L0.265,-0.55L0.32,-0.55C0.42,-0.55 0.458,-0.51 0.458,-0.36C0.458,-0.21 0.42,-0.17 0.32,-0.17L0.265,-0.17Z" style="fill-rule:nonzero;"/>
            </g>
            <g transform="matrix(196.156,0,0,196.156,4491.55,2127.1)">
                <path d="M0.352,0.014C0.563,0.014 0.679,-0.111 0.679,-0.364C0.679,-0.617 0.563,-0.734 0.352,-0.734C0.142,-0.734 0.027,-0.617 0.027,-0.364C0.027,-0.111 0.142,0.014 0.352,0.014ZM0.352,-0.159C0.275,-0.159 0.241,-0.222 0.241,-0.364C0.241,-0.506 0.275,-0.561 0.352,-0.561C0.43,-0.561 0.465,-0.506 0.465,-0.364C0.465,-0.222 0.43,-0.159 0.352,-0.159Z" style="fill-rule:nonzero;"/>
            </g>
            <g transform="matrix(196.156,0,0,196.156,4630.03,2127.1)">
                <path d="M0.352,0.014C0.563,0.014 0.679,-0.111 0.679,-0.364C0.679,-0.617 0.563,-0.734 0.352,-0.734C0.142,-0.734 0.027,-0.617 0.027,-0.364C0.027,-0.111 0.142,0.014 0.352,0.014ZM0.352,-0.159C0.275,-0.159 0.241,-0.222 0.241,-0.364C0.241,-0.506 0.275,-0.561 0.352,-0.561C0.43,-0.561 0.465,-0.506 0.465,-0.364C0.465,-0.222 0.43,-0.159 0.352,-0.159Z" style="fill-rule:nonzero;"/>
            </g>
            <g transform="matrix(196.156,0,0,196.156,4768.52,2127.1)">
                <path d="M0.16,0.003C0.238,0.003 0.265,-0.003 0.265,-0.049L0.265,-0.233L0.268,-0.233C0.294,-0.233 0.316,-0.227 0.339,-0.203C0.375,-0.166 0.404,-0.114 0.423,-0.049C0.437,0 0.461,0.003 0.54,0.003C0.619,0.003 0.653,-0.003 0.653,-0.049C0.653,-0.106 0.614,-0.179 0.568,-0.228C0.537,-0.261 0.503,-0.283 0.468,-0.292L0.468,-0.297C0.568,-0.322 0.636,-0.388 0.636,-0.504C0.636,-0.647 0.534,-0.72 0.33,-0.72L0.105,-0.72C0.073,-0.72 0.055,-0.702 0.055,-0.67L0.055,-0.049C0.055,-0.003 0.082,0.003 0.16,0.003ZM0.265,-0.4L0.265,-0.55L0.334,-0.55C0.396,-0.55 0.422,-0.524 0.422,-0.475C0.422,-0.426 0.393,-0.4 0.331,-0.4L0.265,-0.4Z" style="fill-rule:nonzero;"/>
            </g>
        </g>
        <path d="M716.754,2990.79C716.496,3008.09 715.253,3027.33 718.624,3043.51L718.663,3044.07C718.477,3047.04 718.572,3049.55 718.479,3051.74C718.37,3054.3 717.996,3056.46 716.909,3058.42L716.754,3058.65C715.377,3060.49 713.473,3061.37 711.464,3062.12C710.103,3062.62 708.671,3063.03 707.582,3064.12L705.834,3064.71C702.317,3064.24 698.944,3063.89 696.214,3062.94C694.069,3062.2 692.287,3061.09 690.997,3059.43L690.705,3058.92C683.509,3040.74 681.211,3019.53 680.833,2999.12C680.083,2978.88 681.205,2959.39 681.58,2939.92C681.954,2899.49 679.336,2860.94 680.833,2822.76L681.052,2821.91C682.199,2819.62 683.257,2817.13 684.596,2814.93C686.112,2812.44 687.988,2810.31 690.588,2809.01L691.353,2808.8C700.638,2808.05 709.181,2809.56 717.724,2808.07L718.124,2808.04C736.369,2808.42 746.63,2809.95 761.81,2815.65C775.64,2820.64 783.781,2831.7 792.616,2842.07L792.955,2842.62C797.56,2853.75 801.741,2864.5 800.589,2880.25C797.554,2917.05 771.51,2942.92 752.543,2963.78L752.073,2964.17C746.534,2967.49 741.734,2970.82 736.934,2974.51L735.958,2974.92C734.683,2975.1 733.852,2975.64 732.993,2976.09C746.222,2994 762.64,3015.22 775.945,3036.07C780.519,3043.14 785.148,3049.43 778.91,3058.58L777.847,3059.38C775.205,3060.26 773.876,3059.53 771.235,3059.09L770.803,3058.97C769.852,3058.58 769.112,3058 768.374,3057.41C767.836,3056.98 767.31,3056.49 766.34,3056.49L764.84,3055.86C745.829,3036.14 735.104,3011.12 716.754,2990.79ZM420.438,2944.61C418.242,2914.29 422.712,2884.73 425.707,2857.41L425.768,2857.09C427.45,2850.92 428.478,2844.93 429.927,2839.51C431.462,2833.77 433.48,2828.64 437.045,2824.48L438.047,2823.84C464.211,2816.25 502.131,2813.26 528.296,2821.61L529.396,2822.43C530.279,2823.76 531.147,2825.09 531.588,2827.74L531.537,2828.65C531.074,2830.27 530.023,2831.3 528.672,2832.06C527.514,2832.72 526.012,2833.05 525.021,2834.04L523.269,2834.63C509.793,2832.81 494.129,2833.87 483.567,2838.24L483.455,2838.28C475.472,2841.05 471.67,2847.68 467.521,2853.61C465.346,2864.62 464.249,2876.02 463.148,2888.86L463.14,2888.94C462.777,2891.85 461.66,2894.76 461.66,2897.66C461.66,2899.97 462.019,2901.9 461.655,2904.58C461.625,2905.13 461.459,2905.52 461.259,2905.84C461.09,2906.11 460.635,2906.48 460.38,2906.67L460.317,2906.83C460.246,2906.97 460.276,2907.17 460.274,2907.4C460.269,2907.94 460.325,2908.55 460.387,2909.2C460.541,2910.79 460.719,2912.53 460.526,2913.97C459.104,2928.2 459.726,2943.1 459.784,2958.04C476.187,2957.77 493.115,2954.52 506.559,2958.51L507.941,2959.85C508.657,2962 508.366,2964.15 507.591,2966.24C506.957,2967.95 505.99,2969.61 505.21,2971.17L503.864,2972.26C489.767,2975.87 474.982,2977.42 460.165,2976.25C460.169,2985.52 460.244,2992.7 461.277,3003.71L461.263,3004.22C460.726,3007.79 461.011,3011.19 461.279,3014.49C461.56,3017.97 461.822,3021.35 461.33,3024.73C462.818,3030.21 462.677,3036.81 462.686,3042.39C462.692,3045.8 462.719,3048.79 463.409,3050.72L463.343,3052.28C461.259,3056.87 458.665,3060.96 454.079,3063.04L453.596,3063.19C448.292,3064.18 443.182,3064.64 438.861,3063.95C434.092,3063.19 430.23,3061.07 427.845,3056.95L427.641,3056.47C425.73,3049.59 423.835,3042.33 423.451,3035.42C422.71,3016.89 420.144,2998 420.445,2980.23C420.339,2979.95 420.264,2979.6 420.305,2979.18C420.333,2978.89 420.439,2978.5 420.542,2978.22C421.567,2973.22 420.905,2967.44 420.327,2961.75C419.707,2955.64 419.185,2949.62 420.438,2944.61ZM936.7,2806.63C937.174,2806.11 937.56,2805.8 938.8,2805.8L939.143,2805.82C943.687,2806.58 947.855,2808.09 952.399,2809.22L952.892,2809.42C957.122,2811.72 960.58,2813.65 964.81,2817.12L965.379,2817.85C967.952,2823.36 971.262,2828.87 974.203,2833.28L974.553,2834.48C974.177,2853.23 974.55,2867.49 973.05,2885.86L973.041,2885.95C967.821,2928.08 967.445,2966.48 967.072,3007.49C968.206,3014.31 969.69,3024.45 969.69,3034.58L969.616,3035.13C968.498,3039.23 966.631,3042.96 965.512,3047.43L963.834,3048.99C962.146,3049.27 960.39,3049.67 959.546,3050.8L958.155,3051.61C952.013,3052.43 942.205,3049.91 937.701,3045.41L937.311,3044.87C936.213,3042.67 935.12,3040.11 934.021,3038.28L933.753,3037.55C933.591,3036.58 933.612,3035.42 933.554,3034.35C933.528,3033.87 933.358,3033.1 933.358,3033.1C933.358,3033.1 933.479,3033.25 933.595,3033.27L931.854,3031.22C931.854,3030.54 932.016,3030.07 932.234,3029.71C931.212,3028.03 930.73,3026.44 930.292,3024.85C929.838,3023.2 929.457,3021.54 928.137,3019.72L927.896,3017.7C929.091,3014.8 928.356,3010.79 927.758,3006.44C927.098,3001.63 926.49,2996.46 927.635,2991.7C927.061,2990.26 927.02,2990.05 926.657,2988.23L926.618,2987.9C925.868,2968.77 927.738,2951.51 928.488,2931.26C928.862,2920.04 929.236,2908.81 929.612,2898.3C929.988,2891.16 930.365,2885.52 931.115,2879.13C931.717,2871.31 932.56,2863.01 933.257,2854.99L933.212,2855.14C925.005,2873.04 920.914,2895.05 914.199,2913.71L913.906,2914.25C912.962,2915.51 911.99,2917.07 911.676,2918.95L911.387,2919.72C909.294,2923.07 906.725,2926.36 902.538,2928.03L901.764,2928.18C889.969,2928.18 883.96,2922.6 879.638,2915.43C875.712,2908.92 873.338,2900.96 868.718,2895.23L868.257,2893.92C868.257,2893.39 868.418,2892.67 868.518,2892.28L868.45,2892.18C864.88,2884.49 861.917,2877 858.519,2869.42C857.929,2891.41 854.394,2911.32 853.723,2934.95C854.081,2937.39 854.442,2938.49 854.8,2940.28L854.794,2941.12C853.675,2946.34 854.383,2951.2 852.94,2956.41C850.343,2980.31 851.451,3003.47 848.09,3029.98L847.79,3030.83C846.042,3033.62 845.785,3037.84 845.085,3042.03L844.332,3043.32C840.514,3046.37 837.064,3050.17 832.483,3052.84L831.26,3053.12C829.192,3052.95 827.555,3053.22 825.961,3053.44C824.024,3053.7 822.14,3053.89 819.838,3053.47L819.055,3053.15C815.404,3050.72 812.187,3047.85 810.159,3044.2L809.937,3043.6C809.748,3042.65 809.653,3041.8 809.512,3041.05C809.427,3040.6 809.349,3040.19 809.124,3039.86L808.779,3038.56C809.527,3027.34 808.405,3016.12 809.151,3004.19C810.648,2970.88 815.138,2938.69 817.383,2905.76C818.881,2881.79 819.276,2856.7 824.487,2834.2C824.487,2833.59 824.484,2832.98 824.445,2832.44C824.422,2832.11 824.426,2831.82 824.333,2831.63L824.723,2829.23C825.055,2828.89 825.375,2828.69 825.673,2828.57C826.024,2824.8 827.784,2822.25 829.508,2819.85L829.488,2819.83C829.347,2819.62 829.229,2819.41 829.136,2819.19C828.886,2818.6 828.759,2817.92 829.083,2816.95L831.059,2815.52C830.746,2815.52 830.405,2815.89 830.405,2815.89C830.405,2815.89 830.472,2815.55 830.472,2815.36L831.082,2813.89C831.949,2813.02 833.019,2812.35 834.102,2811.7C834.89,2811.23 835.69,2810.78 836.32,2810.15L837.793,2809.54C843.96,2809.54 851.282,2810.31 857.834,2812.24L858.529,2812.6C870.81,2822.19 876.341,2840.53 880.566,2857.03C885.371,2870.78 888.57,2886.45 895.216,2899.58C896.641,2896.89 897.643,2893.6 898.536,2890.25C899.859,2885.29 900.912,2880.19 902.418,2876.39C905.386,2867.11 907.983,2857.84 910.209,2848.19L910.331,2847.82C915.66,2835.64 919.163,2821.59 927.538,2812.46L928.253,2811.95C930.677,2810.91 932.027,2809.13 933.758,2807.75L934.401,2807.4C935.415,2807.06 935.949,2806.76 936.7,2806.63ZM554.766,2982.1C554.226,3003.39 551.07,3023.68 551.07,3044.31L550.878,3045.18C548.268,3050.84 541.886,3052.16 534.054,3050.86L532.42,3049.46C532.266,3048.99 531.957,3048.69 531.493,3048.53L530.071,3046.47C531.566,3010.2 532.688,2975.42 533.436,2937.65L533.44,2937.56C534.564,2919.58 535.688,2902.34 537.562,2884.35L537.575,2884.25C541.008,2862.13 549.803,2842.68 562.772,2828.19L562.886,2828.07C571.43,2819.91 582.334,2812.2 596.703,2811.04L596.976,2811.03C604.662,2811.42 613.109,2810.71 621.947,2814.17L622.438,2814.44C625.337,2816.62 628.597,2818.79 632.221,2820.61L632.645,2820.89C633.731,2821.82 634.697,2822.87 635.708,2823.88C636.938,2825.1 638.232,2826.27 640.118,2826.83L641.522,2828.26C642.13,2830.38 643.042,2831.6 644.562,2832.81L645.227,2833.75C646.372,2837.03 647.661,2840.16 648.968,2843.27L650.09,2845.93C651.396,2849.05 652.685,2852.18 653.831,2855.45L653.92,2855.8C655.808,2867.13 656.567,2878.46 656.567,2891.3C656.567,2897.62 658.062,2903.56 658.433,2909.5L658.437,2909.63C658.437,2910.15 658.28,2910.78 658.033,2911.42C657.922,2911.7 657.732,2912.22 657.69,2912.34C657.711,2914.21 658.437,2917.16 658.437,2919.74C658.437,2929.76 657.34,2939.79 656.589,2949.82C656.908,2951.03 656.941,2952.41 656.941,2953.78C656.941,2954.86 656.9,2955.94 657.208,2956.86L657.208,2958.18L656.271,2960.99C656.527,2962.31 656.471,2963.68 656.425,2964.98C656.394,2965.85 656.271,2966.68 656.644,2967.3L656.911,2968.72C654.324,2983.87 657.596,2999.76 655.494,3016.01C656.832,3019.88 656.562,3025.09 656.935,3030.31C657.313,3035.23 657.689,3040.14 657.689,3045.06L657.339,3046.22C657.078,3046.61 656.782,3046.96 656.489,3047.32C656.173,3047.71 655.818,3048.1 655.818,3048.8L654.779,3050.6C651.559,3052.47 647.807,3052.84 643.908,3052.42C638.682,3051.87 633.18,3049.88 628.636,3048.97L627.571,3048.4C624.058,3044.89 621.701,3041 619.359,3036.7L619.136,3036.07C615.512,3015.41 616.411,2995.79 616.482,2974.87C595.52,2977.82 576.071,2982.47 554.766,2982.1ZM607.23,2828.59C606.597,2828.47 606.093,2828.22 605.643,2827.92C605.427,2827.77 605.226,2827.61 605.029,2827.45C604.853,2827.3 604.71,2827.08 604.322,2827.14L604.187,2827.16C602.538,2827.33 600.821,2828.11 599.048,2828.97C597.134,2829.91 595.177,2830.96 593.218,2831.72C589.904,2835.4 586.538,2839.02 582.174,2841.65C577.534,2847.42 574.605,2852.86 570.305,2858.98C566.31,2869.94 564.825,2878.78 561.908,2890.48C561.514,2900.81 559.303,2910.42 559.673,2920.03L559.674,2920.11C559.674,2922.35 558.552,2925.35 558.552,2928.34L558.547,2928.48C557.877,2938.54 557.5,2951.89 556.625,2960.26C576.523,2956.95 597.293,2951.86 616.865,2954.03C616.991,2915.74 620.073,2875.42 613.237,2838.63C612.223,2837.1 611.47,2835.04 610.756,2833.24C609.573,2831.69 608.642,2829.9 607.23,2828.59ZM769.902,2834.96C759.022,2827.77 744.896,2825.67 730.426,2825.67C726.266,2825.67 722.389,2825.58 719.103,2827.24C716.077,2838.39 717.171,2849.87 717.171,2861L717.166,2861.14C715.674,2882.78 716.798,2905.9 717.544,2930.15L717.483,2930.72C715.866,2937.18 716.83,2944.22 716.596,2951.58C727.196,2947.7 735.262,2941 743.645,2934.62C763.382,2915.22 778.766,2890 778.845,2856.4C776.754,2848.34 775.101,2839.91 769.902,2834.96ZM460.202,2906.81C460.236,2906.79 460.266,2906.76 460.296,2906.74L460.306,2906.73L460.202,2906.81ZM868.747,2892.61C868.783,2892.67 868.82,2892.72 868.867,2892.78L868.74,2892.6L868.747,2892.61Z" style="fill:white;fill-rule:nonzero;"/>
        <path d="M1010.29,2925.88C1038.06,2924.01 1070.3,2923.64 1096.94,2927.02C1102.3,2927.72 1108.2,2928.32 1112.66,2930.25C1116.08,2931.72 1118.7,2933.96 1119.95,2937.35L1120.08,2938.07C1120.08,2939.73 1119.31,2940.62 1118.25,2941.27C1117.97,2941.44 1117.67,2941.59 1117.37,2941.73C1117.24,2941.79 1117.12,2941.86 1117,2941.92C1116.95,2941.95 1116.89,2941.94 1116.87,2941.99L1115,2943.14C1110.72,2943.14 1107.84,2945.01 1104.88,2946.55C1101.38,2948.38 1097.83,2949.85 1092.68,2948.83C1088.09,2950.36 1082.51,2952.25 1077.22,2950.4C1073.08,2951.88 1067,2952.03 1061.01,2951.93C1055.15,2951.84 1049.38,2951.53 1045.95,2952.43L1045.32,2952.49C1037.77,2952.12 1029.48,2952.86 1021.56,2951.73L1021.03,2951.58C1018.57,2950.53 1015.42,2949.1 1011.56,2948.74L1010.42,2948.27C1008.31,2946.52 1006.92,2943.88 1006.11,2940.75C1005.02,2936.56 1004.95,2931.44 1005.18,2926.74L1006.85,2924.8C1007.85,2924.6 1008.55,2924.75 1009.1,2924.99C1009.51,2925.16 1009.98,2925.58 1010.29,2925.88ZM1009.83,2925.93C1009.8,2925.93 1009.78,2925.94 1009.75,2925.94L1009.86,2925.93L1009.83,2925.93Z" style="fill:white;fill-rule:nonzero;"/>
        <path d="M1280.52,2854.97L1280.52,2851.65L1280.75,2850.7C1287.24,2838.08 1294.53,2826.64 1304.85,2818.24L1306.01,2817.77C1310.83,2817.4 1315.65,2815.54 1320.82,2814.8C1333.15,2812.93 1346.99,2816.3 1358.2,2814.43L1359.01,2814.45C1362.03,2815.15 1365.32,2815.72 1368.06,2816.81C1370.2,2817.66 1372.02,2818.81 1373.28,2820.44L1373.66,2821.22C1373.8,2821.78 1373.99,2822.23 1374.2,2822.66L1374.61,2823.51C1374.73,2823.76 1374.85,2824.01 1374.95,2824.3C1392.88,2840.75 1398.34,2870.88 1402.87,2898.83L1402.9,2899.16C1402.9,2907.03 1404.34,2915.27 1403.29,2921.69C1404.34,2933.64 1401.03,2945.95 1401.03,2957.14L1400.94,2957.76C1394.92,2977.3 1392.28,2995.33 1384.39,3012.99L1384.03,3013.53C1382.48,3015.26 1381.67,3017.78 1380.59,3020.16C1379.37,3022.85 1377.86,3025.36 1375.36,3026.95C1374.89,3028.76 1374,3030.18 1372.99,3031.54C1371.72,3033.27 1370.17,3034.84 1369.97,3037.72L1369.23,3039.18C1367.07,3040.98 1365.65,3043.52 1363.49,3046.04L1363.16,3046.35C1350.84,3055.59 1337.73,3064.39 1315.01,3062.85L1314.73,3062.81C1303.49,3060.49 1295.35,3055.47 1287.99,3049.27L1287.55,3048.75C1286.61,3047.19 1285.71,3045.91 1284.15,3044.97L1283.32,3044.05C1281.52,3040.08 1278.62,3036.49 1276.09,3033.24L1275.85,3032.84C1264.49,3008.23 1257.29,2977.18 1261.08,2941.22L1261.09,2941.14C1265.58,2910.06 1270.1,2879.37 1280.52,2854.97ZM1168.94,2836.96C1162.06,2837.31 1154.65,2839.14 1147.55,2839.14L1147.48,2839.14C1134.77,2838.74 1124.93,2838.48 1117.78,2828.14L1117.43,2827.25C1117.02,2824.39 1116.66,2821.11 1117.08,2819.07L1119.38,2817.41C1128.26,2818.52 1139.36,2816.64 1149.7,2816.27C1182.7,2814.77 1214.58,2814.4 1250.21,2817.02L1250.46,2817.06C1252.45,2817.46 1254.44,2817.87 1256.44,2818.66L1256.85,2819.27C1256.97,2819.28 1257.07,2819.33 1257.15,2819.39L1258.09,2819.72C1259.08,2820.51 1259.79,2821.6 1260.37,2822.83C1260.98,2824.14 1261.42,2825.66 1262.26,2826.93L1261.3,2830.01C1261.09,2830.1 1261,2830.3 1260.89,2830.5C1260.7,2830.85 1260.54,2831.24 1260.36,2831.64C1259.92,2832.64 1259.42,2833.63 1258.63,2834.42L1258.05,2834.83C1255.23,2836.15 1251.7,2836.48 1247.85,2836.32C1242.66,2836.1 1236.86,2835.03 1231.72,2835.03L1231.63,2835.03C1223.53,2834.69 1216.03,2834.96 1208.03,2835.02C1209.01,2841.23 1208.84,2847.22 1209.83,2853.51C1210.08,2854.61 1209.9,2855.39 1209.6,2856.1C1209.51,2856.32 1209.4,2856.53 1209.29,2856.74C1209.22,2856.88 1209.13,2857.01 1209.12,2857.22C1209.45,2857.68 1209.86,2858.46 1209.86,2859.51L1209.85,2859.75C1207.98,2875.43 1208.36,2894.84 1207.24,2912.39L1207.13,2912.94C1204.57,2920.24 1205.37,2930.83 1205.37,2940.68C1205.37,2952.55 1203.87,2964.8 1205.35,2975.18L1205.34,2975.85C1203.11,2988.11 1204.24,3002.24 1203.5,3016.36L1203.25,3017.26C1201.35,3020.71 1201.26,3024.86 1201.21,3029.13C1201.16,3033.99 1201.22,3038.99 1199.65,3043.5L1198.45,3044.75C1198.09,3044.89 1197.96,3045.29 1197.83,3045.67C1197.58,3046.44 1197.52,3047.32 1197.52,3048.05L1195.43,3050.14C1194.82,3050.14 1194.4,3050.5 1194.03,3050.85C1193.54,3051.31 1193.11,3051.81 1192.67,3052.23C1191.78,3053.07 1190.87,3053.63 1189.81,3053.7C1189.51,3054.39 1189.29,3055.23 1189.29,3056.28L1186.74,3058.31C1184.34,3057.76 1182.73,3058.36 1181.09,3059.02C1179.63,3059.61 1178.15,3060.25 1176.35,3060.58L1175.13,3060.43C1171.37,3058.76 1169.2,3055.49 1167.11,3052.15L1166.83,3051.45C1165.31,3043.83 1165.29,3036.21 1165.29,3029C1164.55,2963.89 1166.37,2899.51 1168.94,2836.96ZM1359.56,2836.69C1359.06,2837.19 1358.34,2837.65 1357.42,2837.65L1356.49,2837.43C1353.29,2835.83 1349.48,2835.15 1345.08,2835.65C1344.77,2835.96 1344.41,2836.24 1344.02,2836.5C1343.7,2836.7 1343.37,2836.89 1343.04,2837.1C1342.71,2837.32 1342.35,2837.56 1342.27,2838.1L1341.1,2839.69C1334.42,2842.86 1327.38,2849.54 1324.21,2858.34L1323.73,2859.11C1321.8,2861.04 1319.79,2862.93 1319.47,2866.79L1318.6,2868.31C1314.55,2871.18 1313.14,2875.7 1312.13,2880.34C1311.02,2885.43 1310.38,2890.68 1308.32,2894.7C1308.35,2895.18 1308.32,2895.62 1308.27,2896.01C1308.22,2896.36 1308.11,2896.91 1308.11,2896.91C1308.11,2896.91 1308.13,2896.68 1308.02,2896.56L1308.46,2898.85C1303.32,2910.97 1302.22,2928.18 1299.32,2944.36C1299.99,2947.26 1299.74,2950.26 1299.4,2953.31C1299.1,2956.05 1298.71,2958.84 1299.24,2961.63L1299.24,2962.41C1296.65,2975.69 1300.34,2986.77 1299.66,2999.66C1300.74,3005.78 1301.81,3011.89 1303.97,3016.93L1304.14,3017.75C1304.14,3018.31 1304.02,3018.76 1303.85,3019.15C1303.75,3019.37 1303.56,3019.66 1303.41,3019.87C1305.75,3024.19 1306.2,3028.81 1308.33,3032.75C1310.67,3036.12 1311.69,3038.55 1315.32,3040.93C1316.54,3041.36 1317.41,3041.83 1318.27,3042.62C1323.13,3045.28 1327.75,3044.74 1331.93,3042.88C1336.49,3040.84 1340.55,3037.29 1343.93,3034.27C1369.76,3002.11 1386.7,2959.27 1383.4,2903.9C1380.81,2889.98 1379.05,2876.44 1375.62,2864.52C1372.43,2853.47 1367.82,2843.82 1359.56,2836.69ZM1209.01,2857.92C1209.03,2857.85 1209.05,2857.78 1209.05,2857.7L1209.06,2857.63L1209.01,2857.92ZM1257.75,2820.6C1257.73,2820.12 1257.55,2819.76 1257.2,2819.43L1257.15,2819.39L1256.86,2819.29L1256.85,2819.27L1256.84,2819.26C1256.82,2819.26 1256.81,2819.26 1256.79,2819.26L1257.75,2820.6Z" style="fill:white;fill-rule:nonzero;"/>
        <path d="M1439.76,2925.88C1467.53,2924.01 1499.77,2923.64 1526.41,2927.02C1531.76,2927.72 1537.67,2928.32 1542.13,2930.25C1545.55,2931.72 1548.17,2933.96 1549.42,2937.35L1549.55,2938.07C1549.55,2939.73 1548.78,2940.62 1547.71,2941.27C1547.44,2941.44 1547.14,2941.59 1546.84,2941.73C1546.71,2941.79 1546.59,2941.86 1546.46,2941.92C1546.42,2941.95 1546.36,2941.94 1546.33,2941.99L1544.47,2943.14C1540.19,2943.14 1537.31,2945.01 1534.35,2946.55C1530.85,2948.38 1527.3,2949.85 1522.15,2948.83C1517.56,2950.36 1511.98,2952.25 1506.69,2950.4C1502.54,2951.88 1496.47,2952.03 1490.48,2951.93C1484.62,2951.84 1478.84,2951.53 1475.42,2952.43L1474.78,2952.49C1467.24,2952.12 1458.94,2952.86 1451.03,2951.73L1450.5,2951.58C1448.04,2950.53 1444.89,2949.1 1441.03,2948.74L1439.88,2948.27C1437.78,2946.52 1436.39,2943.88 1435.58,2940.75C1434.49,2936.56 1434.41,2931.44 1434.65,2926.74L1436.32,2924.8C1437.32,2924.6 1438.02,2924.75 1438.57,2924.99C1438.98,2925.16 1439.45,2925.58 1439.76,2925.88ZM1439.3,2925.93C1439.27,2925.93 1439.25,2925.94 1439.22,2925.94L1439.33,2925.93L1439.3,2925.93Z" style="fill:white;fill-rule:nonzero;"/>
        <path d="M1576.79,2944.61C1574.59,2914.29 1579.06,2884.73 1582.06,2857.41L1582.12,2857.09C1583.8,2850.92 1584.83,2844.93 1586.28,2839.51C1587.81,2833.77 1589.83,2828.64 1593.39,2824.48L1594.39,2823.84C1620.56,2816.25 1658.48,2813.26 1684.64,2821.61L1685.74,2822.43C1686.63,2823.76 1687.5,2825.09 1687.94,2827.74L1687.88,2828.65C1687.42,2830.27 1686.37,2831.3 1685.02,2832.06C1683.86,2832.72 1682.36,2833.05 1681.37,2834.04L1679.62,2834.63C1666.14,2832.81 1650.48,2833.87 1639.91,2838.24L1639.8,2838.28C1631.82,2841.05 1628.02,2847.68 1623.87,2853.61C1621.69,2864.62 1620.6,2876.02 1619.5,2888.86L1619.49,2888.94C1619.12,2891.85 1618.01,2894.76 1618.01,2897.66C1618.01,2899.97 1618.37,2901.9 1618,2904.58C1617.97,2905.13 1617.81,2905.52 1617.61,2905.84C1617.44,2906.11 1616.98,2906.48 1616.73,2906.67L1616.66,2906.83C1616.59,2906.97 1616.62,2907.17 1616.62,2907.4C1616.62,2907.94 1616.67,2908.55 1616.74,2909.2C1616.89,2910.79 1617.07,2912.53 1616.87,2913.97C1615.45,2928.2 1616.07,2943.1 1616.13,2958.04C1632.54,2957.77 1649.46,2954.52 1662.91,2958.51L1664.29,2959.85C1665.01,2962 1664.71,2964.15 1663.94,2966.24C1663.31,2967.95 1662.34,2969.61 1661.56,2971.17L1660.21,2972.26C1646.12,2975.87 1631.33,2977.42 1616.51,2976.25C1616.52,2985.52 1616.59,2992.7 1617.62,3003.71L1617.61,3004.22C1617.07,3007.79 1617.36,3011.19 1617.63,3014.49C1617.91,3017.97 1618.17,3021.35 1617.68,3024.73C1619.17,3030.21 1619.03,3036.81 1619.03,3042.39C1619.04,3045.8 1619.07,3048.79 1619.76,3050.72L1619.69,3052.28C1617.61,3056.87 1615.01,3060.96 1610.43,3063.04L1609.94,3063.19C1604.64,3064.18 1599.53,3064.64 1595.21,3063.95C1590.44,3063.19 1586.58,3061.07 1584.19,3056.95L1583.99,3056.47C1582.08,3049.59 1580.18,3042.33 1579.8,3035.42C1579.06,3016.89 1576.49,2998 1576.79,2980.23C1576.69,2979.95 1576.61,2979.6 1576.65,2979.18C1576.68,2978.89 1576.79,2978.5 1576.89,2978.22C1577.91,2973.22 1577.25,2967.44 1576.67,2961.75C1576.06,2955.64 1575.53,2949.62 1576.79,2944.61ZM1928.83,2854.97L1928.83,2851.65L1929.07,2850.7C1935.56,2838.08 1942.85,2826.64 1953.17,2818.24L1954.33,2817.77C1959.15,2817.4 1963.97,2815.54 1969.14,2814.8C1981.47,2812.93 1995.3,2816.3 2006.52,2814.43L2007.33,2814.45C2010.35,2815.15 2013.64,2815.72 2016.38,2816.81C2018.52,2817.66 2020.33,2818.81 2021.6,2820.44L2021.98,2821.22C2022.12,2821.78 2022.31,2822.23 2022.51,2822.66L2022.93,2823.51C2023.05,2823.76 2023.17,2824.01 2023.27,2824.3C2041.2,2840.75 2046.66,2870.88 2051.19,2898.83L2051.22,2899.16C2051.22,2907.03 2052.66,2915.27 2051.61,2921.69C2052.66,2933.64 2049.35,2945.95 2049.35,2957.14L2049.26,2957.76C2043.24,2977.3 2040.6,2995.33 2032.71,3012.99L2032.35,3013.53C2030.8,3015.26 2029.99,3017.78 2028.91,3020.16C2027.69,3022.85 2026.18,3025.36 2023.67,3026.95C2023.21,3028.76 2022.31,3030.18 2021.31,3031.54C2020.04,3033.27 2018.48,3034.84 2018.29,3037.72L2017.55,3039.18C2015.39,3040.98 2013.97,3043.52 2011.81,3046.04L2011.48,3046.35C1999.15,3055.59 1986.04,3064.39 1963.32,3062.85L1963.04,3062.81C1951.81,3060.49 1943.67,3055.47 1936.31,3049.27L1935.87,3048.75C1934.93,3047.19 1934.03,3045.91 1932.47,3044.97L1931.64,3044.05C1929.84,3040.08 1926.93,3036.49 1924.41,3033.24L1924.16,3032.84C1912.81,3008.23 1905.61,2977.18 1909.39,2941.22L1909.4,2941.14C1913.89,2910.06 1918.42,2879.37 1928.83,2854.97ZM1713.39,2812.85C1713.81,2812.64 1714.23,2812.41 1714.65,2812.13L1716.09,2811.8C1721.73,2812.55 1724.74,2813.68 1731.14,2814.81L1732.16,2815.3C1735.61,2818.37 1739.43,2821.45 1742.5,2825.28L1742.74,2825.65C1744.16,2828.5 1744.81,2832.09 1746.94,2834.58L1747.42,2835.62C1748.2,2840.67 1747.46,2845.34 1746.68,2850.78C1743.7,2879.17 1743.33,2913.53 1741.83,2941.59C1741.48,2946.14 1740.33,2949.29 1741.73,2953.49L1741.83,2954.3C1740.35,2975.46 1741.45,3002.17 1742.2,3024.48C1742.43,3025.28 1742.33,3025.88 1742.16,3026.34C1741.96,3026.88 1741.62,3027.3 1741.14,3027.63C1740.98,3027.74 1740.68,3027.87 1740.4,3027.98C1740.73,3031.39 1740.5,3033.15 1738.76,3035.13C1738.77,3035.7 1738.98,3036.19 1739.1,3036.75C1739.28,3037.63 1739.39,3038.59 1739.19,3039.79L1737.93,3041.37C1736.32,3042.04 1735.95,3043.86 1735.58,3045.78C1735.04,3048.59 1734.8,3051.73 1733.82,3054.09L1731.61,3054.91C1731.37,3055.34 1731.11,3055.65 1730.85,3055.88C1730.41,3056.27 1729.64,3056.52 1729.14,3056.65C1729.13,3056.73 1729.11,3056.81 1729.1,3056.89L1726.83,3058.73C1723.34,3058.38 1718.11,3059.46 1714.28,3060.86L1712.35,3060.6C1709.39,3058.48 1706.52,3056.28 1705.25,3052.9L1705.18,3052.67C1704.89,3051.5 1705.19,3050.77 1705.54,3050.25C1705.66,3050.08 1705.86,3049.9 1706.08,3049.74C1702.53,3032.64 1702.5,3012.69 1701.76,2992.01L1701.76,2991.94C1701.76,2986.76 1701.01,2981.21 1700.64,2976.77L1700.63,2976.7C1699.88,2960.56 1701.38,2944.43 1701.76,2928.28C1702.88,2889.26 1704.02,2849.87 1710.39,2815.36L1711.29,2814C1711.71,2813.72 1712.13,2813.49 1712.55,2813.28L1713.39,2812.85ZM1807.47,3043.79C1807.81,3045.91 1807.85,3048.19 1806.71,3050.48L1806.1,3051.22C1799.6,3056.09 1786.6,3058.11 1778.07,3053.64L1777.73,3053.42C1776.76,3052.64 1776.07,3051.58 1775.47,3050.43C1774.91,3049.36 1774.52,3048.16 1773.62,3047.43L1772.86,3046.16C1766.85,3011.23 1767.22,2977.04 1767.97,2946.97C1769.09,2916.7 1770.59,2881.19 1770.22,2845.31L1770.3,2844.69C1771.39,2841.08 1771.63,2836.11 1771.9,2831.15C1772.19,2825.82 1772.51,2820.5 1773.67,2816.63L1774.85,2815.32C1780.01,2813.1 1786.64,2812.68 1791.92,2814.45C1795.17,2815.54 1797.91,2817.44 1799.63,2820.19C1818.82,2817.35 1833.43,2817.6 1850.25,2825.44L1850.61,2825.66C1853.53,2827.85 1856.82,2829.67 1860.1,2831.5L1860.37,2831.68C1872.63,2841.25 1881.46,2853.51 1887.57,2868.8C1899.34,2896.88 1893.76,2920.4 1889.58,2948.1L1889.43,2948.64C1888,2951.86 1886.92,2955.07 1886.21,2959.36L1886.09,2959.79C1884.63,2963.44 1882.42,2967.45 1881.32,2972.2L1881.13,2972.71C1873.57,2987.08 1865.6,3001.81 1854.27,3013.17C1844.39,3024.93 1831.49,3035.92 1817.83,3043.51L1817.05,3043.76C1813.69,3044.14 1811.45,3043.76 1808.47,3044.13L1807.47,3043.79ZM1706.33,3050.88C1706.34,3050.9 1706.34,3050.93 1706.35,3050.95L1706.31,3050.8L1706.33,3050.88ZM2007.88,2836.69C2007.37,2837.19 2006.66,2837.65 2005.74,2837.65L2004.81,2837.43C2001.61,2835.83 1997.8,2835.15 1993.39,2835.65C1993.09,2835.96 1992.73,2836.24 1992.33,2836.5C1992.02,2836.7 1991.68,2836.89 1991.36,2837.1C1991.03,2837.32 1990.67,2837.56 1990.59,2838.1L1989.42,2839.69C1982.74,2842.86 1975.7,2849.54 1972.53,2858.34L1972.05,2859.11C1970.12,2861.04 1968.11,2862.93 1967.79,2866.79L1966.91,2868.31C1962.87,2871.18 1961.46,2875.7 1960.45,2880.34C1959.34,2885.43 1958.7,2890.68 1956.64,2894.7C1956.67,2895.18 1956.64,2895.62 1956.58,2896.01C1956.53,2896.36 1956.43,2896.91 1956.43,2896.91C1956.43,2896.91 1956.45,2896.68 1956.33,2896.56L1956.78,2898.85C1951.64,2910.97 1950.54,2928.18 1947.64,2944.36C1948.31,2947.26 1948.06,2950.26 1947.72,2953.31C1947.41,2956.05 1947.03,2958.84 1947.56,2961.63L1947.55,2962.41C1944.97,2975.69 1948.66,2986.77 1947.98,2999.66C1949.05,3005.78 1950.13,3011.89 1952.29,3016.93L1952.45,3017.75C1952.45,3018.31 1952.34,3018.76 1952.16,3019.15C1952.07,3019.37 1951.88,3019.66 1951.73,3019.87C1954.07,3024.19 1954.52,3028.81 1956.64,3032.75C1958.99,3036.12 1960,3038.55 1963.64,3040.93C1964.86,3041.36 1965.73,3041.83 1966.58,3042.62C1971.44,3045.28 1976.07,3044.74 1980.25,3042.88C1984.81,3040.84 1988.87,3037.29 1992.25,3034.27C2018.07,3002.11 2035.02,2959.27 2031.72,2903.9C2029.13,2889.98 2027.37,2876.44 2023.94,2864.52C2020.75,2853.47 2016.14,2843.82 2007.88,2836.69ZM1740.31,3027.13L1740.31,3027.12C1740.3,3027.1 1740.3,3027.09 1740.3,3027.07L1740.31,3027.13ZM1804.52,3016.47C1828.55,2998.57 1849.35,2977.76 1862.05,2949.19L1862.06,2949.18C1869.05,2933.71 1872.73,2915.3 1873.09,2897.99L1873.1,2897.93C1873.82,2883.85 1872.9,2865.03 1861.7,2853.46C1853.83,2845.23 1839.15,2839.17 1825.91,2839.89L1825.63,2839.88C1821.41,2839.56 1813.84,2841.7 1809.21,2844.83C1810.16,2872.74 1805.07,2895.31 1806.18,2921.52L1805.03,2923.47C1805.29,2923.34 1805.68,2922.81 1805.68,2922.81C1805.68,2922.81 1805.48,2924.31 1805.06,2925.41C1805.04,2939.49 1804.31,2953.19 1803.94,2966.53C1803.93,2974.74 1803.56,2982.2 1803.56,2992.27C1803.89,3000.97 1804.75,3008.01 1804.52,3016.47ZM1616.55,2906.81C1616.58,2906.79 1616.61,2906.76 1616.64,2906.74L1616.65,2906.73L1616.55,2906.81Z" style="fill:white;fill-rule:nonzero;"/>
        <path d="M2495.14,2836.96C2488.25,2837.31 2480.84,2839.14 2473.74,2839.14L2473.67,2839.14C2460.96,2838.74 2451.12,2838.48 2443.97,2828.14L2443.62,2827.25C2443.21,2824.39 2442.86,2821.11 2443.26,2819.07L2445.57,2817.41C2454.45,2818.52 2465.55,2816.64 2475.89,2816.27C2508.89,2814.77 2540.77,2814.4 2576.4,2817.02L2576.65,2817.06C2578.64,2817.46 2580.64,2817.87 2582.63,2818.66L2583.04,2819.27C2583.16,2819.28 2583.26,2819.33 2583.34,2819.39L2584.28,2819.72C2585.27,2820.51 2585.98,2821.6 2586.56,2822.83C2587.17,2824.14 2587.61,2825.66 2588.45,2826.93L2587.49,2830.01C2587.28,2830.1 2587.19,2830.3 2587.08,2830.5C2586.89,2830.85 2586.72,2831.24 2586.55,2831.64C2586.11,2832.64 2585.61,2833.63 2584.82,2834.42L2584.24,2834.83C2581.42,2836.15 2577.89,2836.48 2574.04,2836.32C2568.85,2836.1 2563.05,2835.03 2557.91,2835.03L2557.83,2835.03C2549.72,2834.69 2542.22,2834.96 2534.22,2835.02C2535.2,2841.23 2535.03,2847.22 2536.02,2853.51C2536.27,2854.61 2536.09,2855.39 2535.79,2856.1C2535.7,2856.32 2535.59,2856.53 2535.48,2856.74C2535.41,2856.88 2535.32,2857.01 2535.31,2857.22C2535.64,2857.68 2536.05,2858.46 2536.05,2859.51L2536.04,2859.75C2534.17,2875.43 2534.55,2894.84 2533.43,2912.39L2533.32,2912.94C2530.76,2920.24 2531.56,2930.83 2531.56,2940.68C2531.56,2952.55 2530.06,2964.8 2531.54,2975.18L2531.53,2975.85C2529.3,2988.11 2530.43,3002.24 2529.69,3016.36L2529.43,3017.26C2527.54,3020.71 2527.45,3024.86 2527.4,3029.13C2527.35,3033.99 2527.41,3038.99 2525.84,3043.5L2524.64,3044.75C2524.28,3044.89 2524.15,3045.29 2524.02,3045.67C2523.76,3046.44 2523.71,3047.32 2523.71,3048.05L2521.62,3050.14C2521.01,3050.14 2520.6,3050.5 2520.22,3050.85C2519.73,3051.31 2519.3,3051.81 2518.86,3052.23C2517.97,3053.07 2517.06,3053.63 2516,3053.7C2515.7,3054.39 2515.48,3055.23 2515.48,3056.28L2512.93,3058.31C2510.53,3057.76 2508.92,3058.36 2507.28,3059.02C2505.82,3059.61 2504.34,3060.25 2502.54,3060.58L2501.33,3060.43C2497.56,3058.76 2495.39,3055.49 2493.3,3052.15L2493.02,3051.45C2491.5,3043.83 2491.48,3036.21 2491.48,3029C2490.74,2963.89 2492.56,2899.51 2495.14,2836.96ZM2355.57,3036.38C2379.59,3032.99 2401.55,3027.6 2424.94,3025.77L2425.97,3025.95C2430.89,3028.19 2432.8,3033.48 2432.8,3037.95L2431.79,3039.74C2428.09,3041.96 2424.01,3043.8 2420.32,3046.39L2419.63,3046.71C2404.63,3050.45 2388.89,3054.2 2372.4,3057.58L2371.55,3057.57C2369.16,3057.06 2366.78,3057.45 2364.27,3057.78C2361.31,3058.19 2358.2,3058.56 2354.79,3057.96L2354.49,3057.88C2353.42,3057.53 2352.71,3056.79 2351.28,3056.43L2351.18,3056.41C2347.49,3055.3 2342.31,3055.69 2338.99,3054.95L2338.93,3054.94C2337.28,3054.52 2335.62,3053.62 2333.97,3052.74C2332.71,3052.07 2331.46,3051.4 2330.2,3051.24L2328.9,3050.56C2325.89,3047.16 2322.49,3043.77 2319.48,3040L2319.22,3039.58C2316.54,3033.84 2315.36,3025.82 2313.83,3018.55L2313.78,3018.12C2313.78,2980.26 2315.66,2950.27 2319.41,2915.03L2319.42,2914.96C2321.65,2898.92 2322.02,2882.14 2323.14,2864.6C2324.28,2847.46 2325.88,2830.33 2332.73,2817.38L2333.79,2816.42C2344.08,2812.23 2358.17,2811.8 2369.98,2811.04L2370.04,2811.03C2380.69,2810.65 2389.82,2811.42 2397.81,2812.94L2398.39,2813.14C2402.63,2815.35 2407.8,2816.63 2412.37,2818.48C2417.54,2820.57 2421.95,2823.39 2424.04,2828.4L2424.2,2829.2C2424.2,2830.93 2423.7,2832.13 2422.97,2833.02C2422.26,2833.89 2421.27,2834.48 2420.11,2834.87C2418.56,2835.39 2416.6,2835.48 2414.92,2836.04L2413.86,2836.11C2402.49,2833.91 2388.58,2831.33 2377.18,2831.65C2372.66,2833.01 2369.39,2835.92 2366.43,2839.16C2366.18,2840.57 2366.16,2841.84 2366,2843C2365.79,2844.56 2365.36,2845.97 2364.28,2847.28C2363.55,2856.34 2362.79,2865.69 2361.03,2873.35C2361.51,2875.69 2361.34,2878.04 2361,2880.38C2360.69,2882.52 2360.23,2884.65 2360.22,2886.79C2360.6,2898.1 2360.22,2912.03 2358.34,2925.22C2357.29,2935.75 2356.23,2943.98 2355.18,2956.73C2364.81,2955.77 2374.57,2953.27 2384.09,2951.72C2394.86,2949.98 2405.33,2949.46 2415.03,2953.34L2416.26,2954.7C2416.43,2955.31 2416.79,2955.71 2417.12,2956.09C2417.52,2956.55 2417.92,2956.99 2418.23,2957.47C2418.95,2958.56 2419.38,2959.82 2418.9,2961.77L2417.25,2963.31C2413.18,2964.05 2409.48,2965.15 2405.06,2965.9C2388.66,2971.71 2372.96,2974.03 2354.23,2974.18C2354,2997.36 2350.12,3014.84 2355.57,3036.38ZM2200.2,3052.42C2200.26,3052.82 2200.46,3053.24 2200.92,3053.59C2201,3053.66 2201.12,3053.76 2201.3,3053.81L2200.04,3055.36C2198.88,3055.23 2197.51,3055.44 2195.99,3055.74C2193.33,3056.28 2190.28,3057.14 2187.1,3057.6L2185.79,3057.36C2182.02,3055.26 2180.31,3052.77 2178.64,3049.83L2178.58,3047.87C2178.85,3047.33 2179.24,3046.91 2179.63,3046.57C2175.11,3026.73 2176.83,2998.8 2174.26,2972.31L2174.24,2972.07C2175.37,2913.98 2176.13,2854.01 2183.63,2808.29L2184.07,2807.31C2186.34,2804.53 2189.31,2804.48 2192.08,2805.04C2192.92,2805.21 2193.72,2805.44 2194.44,2805.59C2194.86,2805.68 2195.5,2805.74 2195.5,2805.74C2195.5,2805.74 2195.31,2805.81 2195.23,2805.88L2197.1,2805.5C2198.27,2805.83 2199.24,2806.35 2200.27,2806.85C2201.38,2807.38 2202.6,2807.85 2204.57,2807.67L2206.39,2808.45C2207.7,2810.08 2209.15,2811.51 2210.62,2812.9L2211.88,2814.1C2213.1,2815.25 2214.3,2816.42 2215.41,2817.71C2223.13,2817.27 2231.44,2817.01 2239.11,2817.54C2239.18,2817.64 2239.26,2817.73 2239.34,2817.82C2239.66,2818.14 2240.07,2818.33 2240.49,2818.39L2239.69,2817.58L2239.4,2817.56L2239.11,2817.54C2238.93,2817.28 2238.81,2816.98 2238.77,2816.66L2238.59,2816.48C2238.59,2815.24 2239.26,2814.77 2239.66,2814.54C2240.52,2814.02 2241.59,2814.18 2242.29,2814.87C2242.98,2815.56 2243.14,2816.64 2242.62,2817.5C2242.56,2817.6 2242.49,2817.71 2242.4,2817.82C2245.95,2818.19 2249.32,2818.75 2252.35,2819.58C2254.16,2819.22 2254.32,2819.26 2256.44,2819.68C2271.1,2822.77 2283.05,2828.97 2291.55,2838.22C2296.31,2842.86 2298.87,2849.8 2300.03,2857.72C2301.69,2869.05 2300.52,2882.43 2299.61,2893.35L2299.36,2894.19C2298.55,2895.65 2298.44,2897.28 2298.2,2898.91C2297.9,2900.85 2297.48,2902.78 2296.33,2904.57C2296.34,2905.13 2296.24,2905.64 2296.1,2906.16C2295.97,2906.6 2295.7,2907.03 2295.84,2907.73L2294.95,2909.87C2294.52,2910.16 2294.33,2910.66 2294.04,2911.14C2293.78,2911.56 2293.5,2911.99 2293.18,2912.39C2292.83,2914.85 2291.72,2917.24 2290.39,2919.66C2289.13,2921.95 2287.68,2924.28 2286.78,2926.8L2286.07,2927.76C2284.86,2928.67 2283.66,2930.18 2283.05,2931.99L2282.23,2933.07C2280.19,2934.43 2278.68,2936.41 2277.2,2938.45C2275.48,2940.81 2273.79,2943.25 2271.63,2945.22L2271.07,2945.58C2268.12,2946.9 2265.46,2948.84 2263.82,2951.8L2262.66,2952.76C2259.77,2953.72 2257.51,2955.31 2255.91,2957.88L2253.88,2958.84C2252.87,2958.71 2251.95,2959.27 2251.03,2959.87C2249.64,2960.78 2248.29,2961.93 2246.95,2962.7L2245.91,2962.97C2244.49,2962.97 2243.53,2963.69 2242.51,2964.2C2241.65,2964.64 2240.76,2964.99 2239.78,2965.14C2239.44,2965.45 2239.05,2965.73 2238.63,2965.99C2238.16,2966.29 2237.57,2966.51 2237.3,2967.05L2234.51,2967.99C2234.34,2967.91 2234.17,2967.79 2234.01,2967.66C2228.64,2971.61 2221.29,2974.16 2214.39,2977.18C2215.03,2992.98 2214.35,3006.1 2215.44,3021.34L2214.14,3023.43C2214.03,3023.47 2214.02,3023.61 2213.97,3023.74C2213.84,3024.02 2213.75,3024.35 2213.69,3024.7C2213.5,3025.76 2213.58,3027 2213.87,3028.03L2212.44,3030.6C2212.26,3030.65 2212.28,3030.84 2212.25,3031.01C2212.21,3031.35 2212.21,3031.72 2212.23,3032.12C2212.28,3033.33 2212.45,3034.7 2212.45,3036.08L2211.17,3038C2209.56,3038.68 2209.19,3040.49 2208.82,3042.41C2208.28,3045.22 2208.04,3048.36 2207.06,3050.72L2204.92,3051.37C2204.77,3051.72 2204.52,3052.29 2204.22,3052.8C2204.07,3053.24 2203.75,3053.69 2203.07,3054.03L2202.24,3052.88C2202.26,3052.81 2202.28,3052.73 2202.25,3052.63L2202.15,3052.75L2202.24,3052.88C2202.23,3052.93 2202.21,3052.97 2202.19,3053.01C2202.15,3053.16 2202.07,3053.3 2201.98,3053.41C2201.83,3053.61 2201.6,3053.87 2201.36,3053.83L2201.3,3053.81L2202.15,3052.75L2201.42,3051.74C2200.92,3051.73 2200.34,3051.88 2200.2,3052.42ZM2283.14,2860.78C2278.32,2850.01 2268.33,2844.53 2256.77,2841.9C2245.2,2839.27 2232.04,2839.5 2220.48,2840.48C2216.65,2874.35 2215.5,2918.74 2214.42,2950.89C2217.59,2949.63 2221.17,2947.53 2224.77,2945.9C2224.94,2944.49 2226.04,2943.84 2227.58,2943.84L2228.16,2944.42C2228.29,2943.7 2228.59,2942.9 2229.27,2942.56L2230.2,2942.34C2230.64,2942.34 2231.03,2942.47 2231.36,2942.64C2236.11,2938.35 2241.96,2934.62 2247.53,2930.54C2253.23,2926.37 2258.64,2921.83 2262.05,2915.73L2263.36,2914.72C2264.54,2914.43 2264.91,2913.49 2265.41,2912.72C2266.02,2911.8 2266.68,2910.95 2267.62,2910.33C2276.24,2897.01 2284.83,2881.55 2283.14,2860.78ZM2226.83,2947.26L2226.91,2947.22L2226.95,2947.21L2226.66,2947.09L2226.83,2947.26ZM2225.75,2944.98C2225.65,2945.14 2225.57,2945.33 2225.53,2945.56L2226.03,2945.35L2226.33,2945.22L2225.75,2944.98ZM2535.2,2857.92C2535.22,2857.85 2535.24,2857.78 2535.24,2857.7L2535.24,2857.63L2535.2,2857.92ZM2583.94,2820.6C2583.92,2820.12 2583.74,2819.76 2583.39,2819.43L2583.34,2819.39L2583.05,2819.29L2583.04,2819.27L2583.03,2819.26C2583.01,2819.26 2582.99,2819.26 2582.98,2819.26L2583.94,2820.6ZM2242.23,2817.8C2242.5,2817.56 2242.76,2817.16 2242.76,2816.48L2240.67,2814.4C2239.61,2814.4 2239.24,2815.03 2239.05,2815.36C2238.8,2815.77 2238.71,2816.23 2238.77,2816.66L2239.69,2817.58C2240.55,2817.65 2241.39,2817.72 2242.23,2817.8ZM2240.67,2816.48C2240.67,2816.39 2240.7,2816.34 2240.73,2816.33C2240.76,2816.31 2240.79,2816.32 2240.81,2816.34C2240.86,2816.39 2240.86,2816.48 2240.67,2816.48Z" style="fill:white;fill-rule:nonzero;"/>
        <path d="M2703.21,2944.61C2701.01,2914.29 2705.48,2884.73 2708.47,2857.41L2708.54,2857.09C2710.22,2850.92 2711.25,2844.93 2712.7,2839.51C2714.23,2833.77 2716.25,2828.64 2719.81,2824.48L2720.81,2823.84C2746.98,2816.25 2784.9,2813.26 2811.06,2821.61L2812.16,2822.43C2813.05,2823.76 2813.91,2825.09 2814.36,2827.74L2814.3,2828.65C2813.84,2830.27 2812.79,2831.3 2811.44,2832.06C2810.28,2832.72 2808.78,2833.05 2807.79,2834.04L2806.04,2834.63C2792.56,2832.81 2776.9,2833.87 2766.34,2838.24L2766.22,2838.28C2758.24,2841.05 2754.44,2847.68 2750.29,2853.61C2748.11,2864.62 2747.02,2876.02 2745.92,2888.86L2745.91,2888.94C2745.54,2891.85 2744.43,2894.76 2744.43,2897.66C2744.43,2899.97 2744.79,2901.9 2744.42,2904.58C2744.39,2905.13 2744.23,2905.52 2744.03,2905.84C2743.86,2906.11 2743.4,2906.48 2743.15,2906.67L2743.09,2906.83C2743.01,2906.97 2743.04,2907.17 2743.04,2907.4C2743.04,2907.94 2743.09,2908.55 2743.16,2909.2C2743.31,2910.79 2743.49,2912.53 2743.29,2913.97C2741.87,2928.2 2742.49,2943.1 2742.55,2958.04C2758.95,2957.77 2775.88,2954.52 2789.33,2958.51L2790.71,2959.85C2791.43,2962 2791.13,2964.15 2790.36,2966.24C2789.72,2967.95 2788.76,2969.61 2787.98,2971.17L2786.63,2972.26C2772.53,2975.87 2757.75,2977.42 2742.93,2976.25C2742.94,2985.52 2743.01,2992.7 2744.04,3003.71L2744.03,3004.22C2743.49,3007.79 2743.78,3011.19 2744.05,3014.49C2744.33,3017.97 2744.59,3021.35 2744.1,3024.73C2745.59,3030.21 2745.45,3036.81 2745.45,3042.39C2745.46,3045.8 2745.49,3048.79 2746.18,3050.72L2746.11,3052.28C2744.03,3056.87 2741.43,3060.96 2736.85,3063.04L2736.36,3063.19C2731.06,3064.18 2725.95,3064.64 2721.63,3063.95C2716.86,3063.19 2713,3061.07 2710.61,3056.95L2710.41,3056.47C2708.5,3049.59 2706.6,3042.33 2706.22,3035.42C2705.48,3016.89 2702.91,2998 2703.21,2980.23C2703.11,2979.95 2703.03,2979.6 2703.07,2979.18C2703.1,2978.89 2703.21,2978.5 2703.31,2978.22C2704.34,2973.22 2703.67,2967.44 2703.1,2961.75C2702.47,2955.64 2701.95,2949.62 2703.21,2944.61ZM2991.28,2854.97L2991.28,2851.65L2991.51,2850.7C2998.01,2838.08 3005.3,2826.64 3015.62,2818.24L3016.78,2817.77C3021.6,2817.4 3026.41,2815.54 3031.59,2814.8C3043.92,2812.93 3057.75,2816.3 3068.97,2814.43L3069.78,2814.45C3072.8,2815.15 3076.09,2815.72 3078.83,2816.81C3080.96,2817.66 3082.78,2818.81 3084.05,2820.44L3084.42,2821.22C3084.56,2821.78 3084.76,2822.23 3084.96,2822.66L3085.38,2823.51C3085.5,2823.76 3085.62,2824.01 3085.72,2824.3C3103.64,2840.75 3109.11,2870.88 3113.64,2898.83L3113.67,2899.16C3113.67,2907.03 3115.11,2915.27 3114.06,2921.69C3115.11,2933.64 3111.8,2945.95 3111.8,2957.14L3111.7,2957.76C3105.69,2977.3 3103.04,2995.33 3095.15,3012.99L3094.8,3013.53C3093.25,3015.26 3092.44,3017.78 3091.36,3020.16C3090.14,3022.85 3088.62,3025.36 3086.12,3026.95C3085.66,3028.76 3084.76,3030.18 3083.76,3031.54C3082.48,3033.27 3080.93,3034.84 3080.74,3037.72L3079.99,3039.18C3077.83,3040.98 3076.42,3043.52 3074.26,3046.04L3073.93,3046.35C3061.6,3055.59 3048.49,3064.39 3025.77,3062.85L3025.49,3062.81C3014.26,3060.49 3006.12,3055.47 2998.76,3049.27L2998.31,3048.75C2997.38,3047.19 2996.47,3045.91 2994.91,3044.97L2994.09,3044.05C2992.28,3040.08 2989.38,3036.49 2986.86,3033.24L2986.61,3032.84C2975.25,3008.23 2968.05,2977.18 2971.84,2941.22L2971.85,2941.14C2976.34,2910.06 2980.86,2879.37 2991.28,2854.97ZM2832.66,2854.97L2832.66,2851.65L2832.89,2850.7C2839.39,2838.08 2846.68,2826.64 2857,2818.24L2858.16,2817.77C2862.98,2817.4 2867.79,2815.54 2872.97,2814.8C2885.3,2812.93 2899.13,2816.3 2910.35,2814.43L2911.16,2814.45C2914.18,2815.15 2917.47,2815.72 2920.21,2816.81C2922.35,2817.66 2924.16,2818.81 2925.43,2820.44L2925.8,2821.22C2925.95,2821.78 2926.14,2822.23 2926.34,2822.66L2926.76,2823.51C2926.88,2823.76 2927,2824.01 2927.1,2824.3C2945.03,2840.75 2950.49,2870.88 2955.02,2898.83L2955.05,2899.16C2955.05,2907.03 2956.49,2915.27 2955.44,2921.69C2956.49,2933.64 2953.18,2945.95 2953.18,2957.14L2953.08,2957.76C2947.07,2977.3 2944.43,2995.33 2936.53,3012.99L2936.18,3013.53C2934.63,3015.26 2933.82,3017.78 2932.74,3020.16C2931.52,3022.85 2930.01,3025.36 2927.5,3026.95C2927.04,3028.76 2926.14,3030.18 2925.14,3031.54C2923.87,3033.27 2922.31,3034.84 2922.12,3037.72L2921.38,3039.18C2919.22,3040.98 2917.8,3043.52 2915.64,3046.04L2915.31,3046.35C2902.99,3055.59 2889.87,3064.39 2867.15,3062.85L2866.87,3062.81C2855.64,3060.49 2847.5,3055.47 2840.14,3049.27L2839.7,3048.75C2838.76,3047.19 2837.86,3045.91 2836.29,3044.97L2835.47,3044.05C2833.67,3040.08 2830.76,3036.49 2828.24,3033.24L2827.99,3032.84C2816.63,3008.23 2809.44,2977.18 2813.22,2941.22L2813.23,2941.14C2817.72,2910.06 2822.24,2879.37 2832.66,2854.97ZM3172.57,3043.79C3172.91,3045.91 3172.95,3048.19 3171.81,3050.48L3171.19,3051.22C3164.69,3056.09 3151.69,3058.11 3143.16,3053.64L3142.83,3053.42C3141.86,3052.64 3141.16,3051.58 3140.56,3050.43C3140.01,3049.36 3139.62,3048.16 3138.71,3047.43L3137.96,3046.16C3131.95,3011.23 3132.32,2977.04 3133.07,2946.97C3134.19,2916.7 3135.69,2881.19 3135.31,2845.31L3135.4,2844.69C3136.48,2841.08 3136.73,2836.11 3137,2831.15C3137.29,2825.82 3137.61,2820.5 3138.77,2816.63L3139.94,2815.32C3145.1,2813.1 3151.74,2812.68 3157.02,2814.45C3160.27,2815.54 3163.01,2817.44 3164.72,2820.19C3183.91,2817.35 3198.53,2817.6 3215.34,2825.44L3215.71,2825.66C3218.63,2827.85 3221.91,2829.67 3225.2,2831.5L3225.47,2831.68C3237.73,2841.25 3246.55,2853.51 3252.67,2868.8C3264.43,2896.88 3258.85,2920.4 3254.68,2948.1L3254.52,2948.64C3253.09,2951.86 3252.02,2955.07 3251.31,2959.36L3251.19,2959.79C3249.72,2963.44 3247.51,2967.45 3246.42,2972.2L3246.23,2972.71C3238.67,2987.08 3230.7,3001.81 3219.37,3013.17C3209.49,3024.93 3196.59,3035.92 3182.93,3043.51L3182.14,3043.76C3178.79,3044.14 3176.55,3043.76 3173.57,3044.13L3172.57,3043.79ZM2911.71,2836.69C2911.2,2837.19 2910.49,2837.65 2909.57,2837.65L2908.64,2837.43C2905.43,2835.83 2901.63,2835.15 2897.22,2835.65C2896.91,2835.96 2896.56,2836.24 2896.16,2836.5C2895.85,2836.7 2895.51,2836.89 2895.18,2837.1C2894.86,2837.32 2894.5,2837.56 2894.42,2838.1L2893.25,2839.69C2886.57,2842.86 2879.53,2849.54 2876.36,2858.34L2875.88,2859.11C2873.95,2861.04 2871.94,2862.93 2871.62,2866.79L2870.74,2868.31C2866.7,2871.18 2865.29,2875.7 2864.28,2880.34C2863.17,2885.43 2862.53,2890.68 2860.47,2894.7C2860.5,2895.18 2860.47,2895.62 2860.41,2896.01C2860.36,2896.36 2860.26,2896.91 2860.26,2896.91C2860.26,2896.91 2860.28,2896.68 2860.16,2896.56L2860.61,2898.85C2855.47,2910.97 2854.37,2928.18 2851.47,2944.36C2852.14,2947.26 2851.89,2950.26 2851.55,2953.31C2851.24,2956.05 2850.86,2958.84 2851.39,2961.63L2851.38,2962.41C2848.8,2975.69 2852.49,2986.77 2851.8,2999.66C2852.88,3005.78 2853.96,3011.89 2856.12,3016.93L2856.28,3017.75C2856.28,3018.31 2856.16,3018.76 2855.99,3019.15C2855.9,3019.37 2855.71,3019.66 2855.56,3019.87C2857.9,3024.19 2858.35,3028.81 2860.47,3032.75C2862.82,3036.12 2863.83,3038.55 2867.47,3040.93C2868.69,3041.36 2869.56,3041.83 2870.41,3042.62C2875.27,3045.28 2879.89,3044.74 2884.07,3042.88C2888.63,3040.84 2892.7,3037.29 2896.08,3034.27C2921.9,3002.11 2938.84,2959.27 2935.55,2903.9C2932.96,2889.98 2931.2,2876.44 2927.77,2864.52C2924.58,2853.47 2919.97,2843.82 2911.71,2836.69ZM3070.33,2836.69C3069.82,2837.19 3069.11,2837.65 3068.19,2837.65L3067.26,2837.43C3064.05,2835.83 3060.25,2835.15 3055.84,2835.65C3055.53,2835.96 3055.18,2836.24 3054.78,2836.5C3054.47,2836.7 3054.13,2836.89 3053.8,2837.1C3053.47,2837.32 3053.12,2837.56 3053.04,2838.1L3051.87,2839.69C3045.18,2842.86 3038.15,2849.54 3034.98,2858.34L3034.49,2859.11C3032.56,2861.04 3030.56,2862.93 3030.23,2866.79L3029.36,2868.31C3025.32,2871.18 3023.91,2875.7 3022.9,2880.34C3021.79,2885.43 3021.15,2890.68 3019.09,2894.7C3019.12,2895.18 3019.09,2895.62 3019.03,2896.01C3018.98,2896.36 3018.88,2896.91 3018.88,2896.91C3018.88,2896.91 3018.9,2896.68 3018.78,2896.56L3019.23,2898.85C3014.09,2910.97 3012.99,2928.18 3010.09,2944.36C3010.76,2947.26 3010.51,2950.26 3010.17,2953.31C3009.86,2956.05 3009.48,2958.84 3010,2961.63L3010,2962.41C3007.42,2975.69 3011.11,2986.77 3010.42,2999.66C3011.5,3005.78 3012.58,3011.89 3014.73,3016.93L3014.9,3017.75C3014.9,3018.31 3014.78,3018.76 3014.61,3019.15C3014.52,3019.37 3014.33,3019.66 3014.18,3019.87C3016.52,3024.19 3016.97,3028.81 3019.09,3032.75C3021.43,3036.12 3022.45,3038.55 3026.09,3040.93C3027.31,3041.36 3028.18,3041.83 3029.03,3042.62C3033.89,3045.28 3038.51,3044.74 3042.69,3042.88C3047.25,3040.84 3051.32,3037.29 3054.7,3034.27C3080.52,3002.11 3097.46,2959.27 3094.17,2903.9C3091.58,2889.98 3089.82,2876.44 3086.39,2864.52C3083.2,2853.47 3078.59,2843.82 3070.33,2836.69ZM3169.62,3016.47C3193.65,2998.57 3214.45,2977.76 3227.15,2949.19L3227.15,2949.18C3234.15,2933.71 3237.82,2915.3 3238.19,2897.99L3238.19,2897.93C3238.91,2883.85 3238,2865.03 3226.8,2853.46C3218.92,2845.23 3204.24,2839.17 3191,2839.89L3190.73,2839.88C3186.51,2839.56 3178.93,2841.7 3174.31,2844.83C3175.25,2872.74 3170.17,2895.31 3171.28,2921.52L3170.13,2923.47C3170.39,2923.34 3170.78,2922.81 3170.78,2922.81C3170.78,2922.81 3170.57,2924.31 3170.15,2925.41C3170.14,2939.49 3169.4,2953.19 3169.03,2966.53C3169.03,2974.74 3168.66,2982.2 3168.66,2992.27C3168.98,3000.97 3169.85,3008.01 3169.62,3016.47ZM2742.97,2906.81C2743,2906.79 2743.03,2906.76 2743.06,2906.74L2743.07,2906.73L2742.97,2906.81Z" style="fill:white;fill-rule:nonzero;"/>
    </g>
</svg>
