<?xml version="1.0" encoding="UTF-8"?>
<svg xmlns="http://www.w3.org/2000/svg" xmlns:xlink="http://www.w3.org/1999/xlink" width="216pt" height="215.999996pt" viewBox="0 0 216 215.999996" version="1.2">
<defs>
<clipPath id="clip1">
  <path d="M 99 59.25 L 117 59.25 L 117 67 L 99 67 Z M 99 59.25 "/>
</clipPath>
<clipPath id="clip2">
  <path d="M 89 69 L 127 69 L 127 156.75 L 89 156.75 Z M 89 69 "/>
</clipPath>
</defs>
<g id="surface1">
<path style=" stroke:none;fill-rule:nonzero;fill:rgb(0%,29.019165%,67.83905%);fill-opacity:1;" d="M 118.347656 113.222656 L 97.460938 113.222656 L 97.460938 134.117188 L 118.347656 134.117188 L 118.347656 113.222656 "/>
<g clip-path="url(#clip1)" clip-rule="nonzero">
<path style=" stroke:none;fill-rule:nonzero;fill:rgb(0%,29.019165%,67.83905%);fill-opacity:1;" d="M 114.867188 59.25 L 100.941406 59.25 C 99.984375 59.25 99.199219 60.03125 99.199219 60.992188 L 99.199219 66.214844 L 102.683594 66.214844 L 102.683594 62.730469 L 106.164062 62.730469 L 106.164062 66.214844 L 109.644531 66.214844 L 109.644531 62.730469 L 113.125 62.730469 L 113.125 66.214844 L 116.605469 66.214844 L 116.605469 60.992188 C 116.605469 60.03125 115.824219 59.25 114.867188 59.25 "/>
</g>
<g clip-path="url(#clip2)" clip-rule="nonzero">
<path style=" stroke:none;fill-rule:nonzero;fill:rgb(0%,29.019165%,67.83905%);fill-opacity:1;" d="M 93.980469 113.222656 C 93.980469 111.304688 95.542969 109.742188 97.460938 109.742188 L 118.347656 109.742188 C 120.265625 109.742188 121.828125 111.304688 121.828125 113.222656 L 121.828125 134.117188 C 121.828125 136.035156 120.265625 137.597656 118.347656 137.597656 L 97.460938 137.597656 C 95.542969 137.597656 93.980469 136.035156 93.980469 134.117188 Z M 89.035156 111.769531 L 90.390625 155.0625 C 90.421875 156.007812 91.183594 156.75 92.128906 156.75 L 123.675781 156.75 C 124.621094 156.75 125.382812 156.007812 125.417969 155.0625 L 126.769531 111.769531 C 126.925781 106.667969 124.589844 101.804688 120.507812 98.738281 L 113.824219 93.722656 C 113.382812 93.390625 113.125 92.882812 113.125 92.332031 L 113.125 90.589844 C 113.125 90.316406 113.1875 90.050781 113.308594 89.8125 C 113.324219 89.78125 114.867188 86.636719 114.867188 83.625 C 114.867188 79.734375 112.738281 72.519531 111.855469 69.695312 L 103.953125 69.695312 C 103.070312 72.527344 100.941406 79.734375 100.941406 83.625 C 100.941406 86.636719 102.484375 89.78125 102.5 89.8125 C 102.621094 90.050781 102.683594 90.316406 102.683594 90.589844 L 102.683594 92.332031 C 102.683594 92.882812 102.421875 93.390625 101.988281 93.722656 L 95.296875 98.738281 C 91.21875 101.796875 88.878906 106.667969 89.035156 111.769531 "/>
</g>
</g>
</svg>
