<?xml version="1.0" encoding="UTF-8" standalone="no"?>
<svg
   xmlns:dc="http://purl.org/dc/elements/1.1/"
   xmlns:cc="http://creativecommons.org/ns#"
   xmlns:rdf="http://www.w3.org/1999/02/22-rdf-syntax-ns#"
   xmlns:svg="http://www.w3.org/2000/svg"
   xmlns="http://www.w3.org/2000/svg"
   xmlns:sodipodi="http://sodipodi.sourceforge.net/DTD/sodipodi-0.dtd"
   xmlns:inkscape="http://www.inkscape.org/namespaces/inkscape"
   version="1.1"
   id="svg44"
   width="288"
   height="288"
   viewBox="0 0 288 288"
   sodipodi:docname="beer-bottle-perfect.svg"
   inkscape:version="1.0.1 (c497b03c, 2020-09-10)">
  <metadata
     id="metadata50">
    <rdf:RDF>
      <cc:Work
         rdf:about="">
        <dc:format>image/svg+xml</dc:format>
        <dc:type
           rdf:resource="http://purl.org/dc/dcmitype/StillImage" />
        <dc:title></dc:title>
      </cc:Work>
    </rdf:RDF>
  </metadata>
  <defs
     id="defs48" />
  <sodipodi:namedview
     pagecolor="#ffffff"
     bordercolor="#666666"
     borderopacity="1"
     objecttolerance="10"
     gridtolerance="10"
     guidetolerance="10"
     inkscape:pageopacity="0"
     inkscape:pageshadow="2"
     inkscape:window-width="1680"
     inkscape:window-height="1050"
     id="namedview46"
     showgrid="false"
     inkscape:zoom="2.0859093"
     inkscape:cx="310.45026"
     inkscape:cy="189.61651"
     inkscape:window-x="0"
     inkscape:window-y="0"
     inkscape:window-maximized="0"
     inkscape:current-layer="g52" />
  <g
     inkscape:groupmode="layer"
     inkscape:label="Image"
     id="g52">
    <path
       style="fill:#064daf;stroke:none"
       d="m 131.74097,80.177844 h 5 v -4 h 5 v 4 h 4 v -4 h 5 v 4 h 4 l -1.028,-7.3966 -4.977,-1.5841 -15.253,1.0085 -1.742,7.9722 m 7.513,6.0278 c -4.847,3.4391 -5.019,15.770206 -4.188,20.972206 0.362,2.267 1.472,4.676 0.887,6.996 -0.989,3.925 -5.292,6.281 -8.197,8.669 -3.949,3.246 -7.273,7.258 -8.483,12.335 -1.136,4.77 -0.532,10.13 -0.532,15 0,11.362 1,22.611 1,34 0,4.187 -1.254,13.042 2.589,15.972 1.936,1.476 5.14,1.023 7.411,1.028 h 16 c 4.705,0 15.561,2.01 19.397,-1.028 2.908,-2.303 2.27,-12.409 2.513,-15.972 0.569,-8.308 -0.389,-16.692 0.18,-25 0.623,-9.103 2.829,-19.447 -1.468,-27.999 -3.31,-6.588 -12.72,-9.553 -14.978,-16.091 -0.905,-2.62 0.333,-5.351 0.842,-7.91 1.12,-5.631 0.239,-14.714003 -2.916,-19.682106 -1.797,-2.8304 -7.432,-3.1522 -10.057,-1.2901 m -10.454,52.575206 c 6.369,-2.572 17.117,-0.694 23.941,-0.599 2.872,0.04 6.147,-0.005 8.142,2.43 1.908,2.329 1.819,5.73 1.854,8.566 0.08,6.495 0.722,13.558 -0.185,19.995 -0.376,2.668 -1.351,4.971 -3.944,6.111 -6.378,2.804 -16.997,0.986 -23.867,0.89 -2.9,-0.04 -6.206,-0.017 -8.258,-2.43 -1.974,-2.321 -1.726,-5.722 -1.741,-8.566 -0.033,-6.254 -3.061,-23.522 4.058,-26.397 m 0.941,4.397 v 28 h 28 v -28 z"
       id="path110" />
  </g>
</svg>
