<?xml version="1.0" encoding="UTF-8" standalone="no"?>
<svg
   xmlns:dc="http://purl.org/dc/elements/1.1/"
   xmlns:cc="http://creativecommons.org/ns#"
   xmlns:rdf="http://www.w3.org/1999/02/22-rdf-syntax-ns#"
   xmlns:svg="http://www.w3.org/2000/svg"
   xmlns="http://www.w3.org/2000/svg"
   xmlns:sodipodi="http://sodipodi.sourceforge.net/DTD/sodipodi-0.dtd"
   xmlns:inkscape="http://www.inkscape.org/namespaces/inkscape"
   version="1.1"
   id="svg511"
   width="1350"
   height="650"
   viewBox="0 0 1350 650"
   sodipodi:docname="beet-perfect.svg"
   inkscape:version="1.0.1 (c497b03c, 2020-09-10)">
  <metadata
     id="metadata517">
    <rdf:RDF>
      <cc:Work
         rdf:about="">
        <dc:format>image/svg+xml</dc:format>
        <dc:type
           rdf:resource="http://purl.org/dc/dcmitype/StillImage" />
        <dc:title></dc:title>
      </cc:Work>
    </rdf:RDF>
  </metadata>
  <defs
     id="defs515" />
  <sodipodi:namedview
     pagecolor="#ffffff"
     bordercolor="#666666"
     borderopacity="1"
     objecttolerance="10"
     gridtolerance="10"
     guidetolerance="10"
     inkscape:pageopacity="0"
     inkscape:pageshadow="2"
     inkscape:window-width="1680"
     inkscape:window-height="1024"
     id="namedview513"
     showgrid="false"
     inkscape:zoom="0.81185185"
     inkscape:cx="675"
     inkscape:cy="325"
     inkscape:window-x="0"
     inkscape:window-y="26"
     inkscape:window-maximized="0"
     inkscape:current-layer="g519" />
  <g
     inkscape:groupmode="layer"
     inkscape:label="Image"
     id="g519">
    <path
       style="fill:#024aad;stroke:none"
       d="m 615.66971,238.37774 h -1 c 1.03,-13.048 7.146,-30.073 -0.559,-41.985 -9.455,-14.618 -44.269,-17.284 -49.459,2.985 -2.554,9.974 5.919,17.731 11.018,25 -13.505,6.658 -6.54,22.297 2.004,29.7 3.994,3.461 14.706,6.926 16.783,11.525 2.768,6.128 -4.591,11.134 1.441,17.59 12.178,13.033 29.832,14.611 30.772,36.185 -14.344,0 -27.58,0.236 -40,8.523 -18.052,12.045 -23.054,44.274 -11.031,62.462 4.446,6.726 12.723,10.304 20.031,12.961 4.44,1.614 9.58,1.968 11.141,7.098 4.92,16.162 2.218,30.978 -4.879,45.956 -2.262,4.773 -6.337,14.083 -1.262,18 0.794,-9.031 7.45,-15.571 10.252,-24 3.686,-11.09 1.58,-30.609 8.834,-39.667 2.413,-3.014 7.519,-1.355 10.914,-1.761 8.804,-1.053 18.683,-1.153 25.985,-6.966 5.555,-4.421 8.864,-11.124 11.4,-17.606 11.541,-29.496 -3.015,-53.427 -32.385,-63 8.656,-19.68 26.333,-12.15 39.891,-22.653 5.644,-4.372 1.61,-14.013 8.168,-16.747 12.976,-5.411 44.33,-11.1 27.941,-32.6 3.572,-1.67 7,-3.61 9.996,-6.21 23.109,-20.05 -7.783,-36.788 -26.996,-36.79 0.685,-8.685 1.359,-16.196 -3.559,-24 -11.284,-17.905 -47.451,-27.828 -63.216,-9.957 -13.921,15.78 -1.239,36.563 -2.982,53.914 -0.476,4.74 -7.176,7.65 -9.243,12.043 m 58,-7 -4,26 -18,-8 c 2.568,-9.15 13.321,-15.5 22,-18 z"
       id="path523" />
  </g>
</svg>
