<?xml version="1.0" encoding="UTF-8" standalone="no"?>
<svg
   xmlns:dc="http://purl.org/dc/elements/1.1/"
   xmlns:cc="http://creativecommons.org/ns#"
   xmlns:rdf="http://www.w3.org/1999/02/22-rdf-syntax-ns#"
   xmlns:svg="http://www.w3.org/2000/svg"
   xmlns="http://www.w3.org/2000/svg"
   xmlns:sodipodi="http://sodipodi.sourceforge.net/DTD/sodipodi-0.dtd"
   xmlns:inkscape="http://www.inkscape.org/namespaces/inkscape"
   version="1.1"
   id="svg430"
   width="1350"
   height="650"
   viewBox="0 0 1350 650"
   sodipodi:docname="bull-perfect.svg"
   inkscape:version="1.0.1 (c497b03c, 2020-09-10)">
  <metadata
     id="metadata436">
    <rdf:RDF>
      <cc:Work
         rdf:about="">
        <dc:format>image/svg+xml</dc:format>
        <dc:type
           rdf:resource="http://purl.org/dc/dcmitype/StillImage" />
        <dc:title></dc:title>
      </cc:Work>
    </rdf:RDF>
  </metadata>
  <defs
     id="defs434" />
  <sodipodi:namedview
     pagecolor="#ffffff"
     bordercolor="#666666"
     borderopacity="1"
     objecttolerance="10"
     gridtolerance="10"
     guidetolerance="10"
     inkscape:pageopacity="0"
     inkscape:pageshadow="2"
     inkscape:window-width="1680"
     inkscape:window-height="1024"
     id="namedview432"
     showgrid="false"
     inkscape:zoom="0.81185185"
     inkscape:cx="675"
     inkscape:cy="325"
     inkscape:window-x="0"
     inkscape:window-y="26"
     inkscape:window-maximized="0"
     inkscape:current-layer="g438" />
  <g
     inkscape:groupmode="layer"
     inkscape:label="Image"
     id="g438">
    <path
       style="fill:#024aad;stroke:none"
       d="m 466.52372,149.29197 c -3.734,12.751 9.443,20.367 14,31 -10.362,2.467 -23.126,6.551 -30.606,-3.004 -5.743,-7.336 -4.27,-17.149 -13.394,-21.996 2.259,8.516 2.072,19.028 5.533,27 3.095,7.129 11.003,10.439 10.989,19 -0.01,6.217 -5.68,10.239 -7.103,16 -2.561,10.366 2.11,19.474 -2.913,30 -5.632,11.802 -23.855,25.041 -5.502,36.532 18.172,11.377 25.951,-1.465 41.996,-8.423 11.953,-5.183 25.802,-3.103 35.985,4.791 11.075,8.584 24.916,26.806 31.663,39.1 2.944,5.365 3.295,11.638 6.257,17 6.115,11.069 18.212,15.206 30.095,13 0,10.026 -1.327,21.104 0.326,31 1.034,6.197 5.415,11.659 5.491,18 0.127,10.571 -4.65,24.52 -9.075,34 -2.383,5.103 -15.305,21.216 -9.589,24.836 6.722,4.256 19.999,0.717 23.985,-5.855 3.456,-5.697 -0.781,-12.812 8.862,-10.981 l 0.286,-39 5.374,-19 1.34,-27 h 1 c 0.323,7.517 0.326,17.027 3.367,24 2.051,4.706 6.437,8.072 7.98,13 5.96,19.032 -2.069,38.9 -14.347,53 v 1 c 8.274,6.673 21.314,6.612 27.656,-3.09 4.387,-6.713 1.663,-11.97 9.344,-16.91 l -7.83,-34 -3.17,-59 c 28.781,6.82 53.366,19.795 84,16.83 12.813,-1.24 25.229,-5.22 37,-10.257 4.4,-1.884 11.197,-7.651 16,-7.321 14.398,0.992 9.511,20.554 15.027,27.125 4.568,5.443 8.009,-10.011 11.549,-10.607 5.303,-0.893 6.39,13.969 7.424,17.23 l 13,-11 c 6.336,34.105 10.745,63.252 -16,90 v 1 c 5.925,6.181 17.73,9.294 24.297,1.606 3.796,-4.443 1.787,-12.407 9.703,-10.606 v 1 l -11,18 c 6.829,2.63 18.974,5.939 23.821,-2.214 1.935,-3.254 1.853,-8.148 3.179,-11.786 l 5,3 0.039,-39 3.131,-35 1.44,-16 -6.849,-13 -5.672,-25 8.911,-94 c 8.139,9.317 6,32.211 6,44 0,28.364 -0.331,56.861 3.185,85 1.285,10.283 8.344,18.024 8.815,29 h 1 l 1,-12 h 1 v 6 h 1 c 2.634,-13.582 4.998,-32.317 2.535,-46 -2.017,-11.207 -7.087,-21.878 -9.648,-33 -4.626,-20.09 -2.887,-41.532 -2.887,-62 0,-13.599 0.545,-26.614 -10.174,-36.787 -8.943,-8.488 -24.588,-6.824 -35.826,-5.498 -20.281,2.392 -41.552,4.285 -62,4.285 -34.079,0 -69.009,2.238 -103,-0.09 -20.035,-1.372 -39.96,-5.993 -60,-6.871 -18.012,-0.788 -34.38,4.636 -52,5.871 -10.845,0.761 -20.548,-2.029 -31,-4.241 -7.586,-1.606 -13.176,-0.903 -19.853,-5.843 -4.072,-3.012 -4.12,-8.951 -7.372,-12.822 -7.202,-8.575 -16.249,-13.605 -22.775,-23.004 z"
       id="path442" />
  </g>
</svg>
