<?xml version="1.0" encoding="UTF-8" standalone="no"?>
<svg
   xmlns:dc="http://purl.org/dc/elements/1.1/"
   xmlns:cc="http://creativecommons.org/ns#"
   xmlns:rdf="http://www.w3.org/1999/02/22-rdf-syntax-ns#"
   xmlns:svg="http://www.w3.org/2000/svg"
   xmlns="http://www.w3.org/2000/svg"
   xmlns:sodipodi="http://sodipodi.sourceforge.net/DTD/sodipodi-0.dtd"
   xmlns:inkscape="http://www.inkscape.org/namespaces/inkscape"
   version="1.1"
   id="svg268"
   width="1350"
   height="650"
   viewBox="0 0 1350 650"
   sodipodi:docname="chicken-perfect.svg"
   inkscape:version="1.0.1 (c497b03c, 2020-09-10)">
  <metadata
     id="metadata274">
    <rdf:RDF>
      <cc:Work
         rdf:about="">
        <dc:format>image/svg+xml</dc:format>
        <dc:type
           rdf:resource="http://purl.org/dc/dcmitype/StillImage" />
        <dc:title></dc:title>
      </cc:Work>
    </rdf:RDF>
  </metadata>
  <defs
     id="defs272" />
  <sodipodi:namedview
     pagecolor="#ffffff"
     bordercolor="#666666"
     borderopacity="1"
     objecttolerance="10"
     gridtolerance="10"
     guidetolerance="10"
     inkscape:pageopacity="0"
     inkscape:pageshadow="2"
     inkscape:window-width="1680"
     inkscape:window-height="1024"
     id="namedview270"
     showgrid="false"
     inkscape:pagecheckerboard="true"
     inkscape:zoom="1"
     inkscape:cx="675"
     inkscape:cy="325"
     inkscape:window-x="0"
     inkscape:window-y="26"
     inkscape:window-maximized="0"
     inkscape:current-layer="g276" />
  <g
     inkscape:groupmode="layer"
     inkscape:label="Image"
     id="g276">
    <path
       style="fill:#024aad;stroke:none"
       d="m 536,165 1,7 -6,-4 v 8 l -4,-2 v 6 l -8,12 -7,13 c 3.286,-0.07 9.743,-2.512 12.473,-0.473 2.341,1.748 0.384,6.921 0.875,9.473 1.494,7.767 12.214,15.368 17.652,7 7.024,6.706 1.434,20.142 1,29 -1.431,29.2 -16.174,56.973 -11.701,87 1.915,12.851 13.293,28.656 24.701,34.86 8.31,4.52 17.585,5.712 26,11.102 11.154,7.146 22.938,15.327 31.397,25.632 2.216,2.699 1.728,6.508 4.037,9.273 3.902,4.673 13.074,4.5 14.778,11.148 3.146,12.276 -12.134,27.328 -14.212,38.985 -6.335,-0.854 -14.03,-5.4 -20,-2 l 10,3 v 1 c -8.796,2.094 -18.527,-1.161 -26,5 8.895,2.629 24.437,2.613 33,-1 v 6 l 14,-8.94 14,-0.06 v -1 c -12.94,-3.075 -11.483,-10.293 -8,-21 l 20,1 -20,15 c 6.779,-0.611 15.081,-4.144 21,-7.529 3.987,-2.279 7.928,-6.687 12.985,-4.863 4.952,1.786 5.891,7.691 10.015,10.392 -0.35,-4.283 -6.781,-20.294 -2.592,-22.802 2.488,-1.49 7.74,-0.206 10.592,-0.198 v -1 c -9.26,-2.143 -23.658,-13.155 -15.972,-24.682 2.929,-4.394 16.004,-3.265 20.972,-5.017 12.497,-4.408 23.952,-13.379 31.329,-24.301 7.355,-10.891 13.985,-23.59 13.656,-37 -0.149,-6.105 -4.748,-13.173 -3.509,-19 1.168,-5.491 6.82,-8.844 8.789,-14 2.008,-5.255 -0.165,-12.974 2.763,-17.61 2.627,-4.159 7.341,-4.924 8.577,-10.391 2.135,-9.445 -3.839,-18.089 -4.218,-26.999 -0.437,-10.259 3.277,-20.93 4.226,-31 1.468,-15.567 -18.174,-38.945 -33.613,-39 -4.45,-15.339 -22.988,0.124 -26.677,8 -7.436,15.878 -4.33,36.286 -15.222,49.961 -12.741,15.996 -52.22,21.108 -67.062,6.024 C 597.961,239.676 594.486,219.452 582.331,204 574.411,193.932 561.462,189.509 554,180 c 5.412,-1.992 4.487,-5.182 3,-10 l -6,2 -1,-5 h -1 l -1,5 -2,-4 -3,5 -7,-8 m 127,252 c -0.006,9.272 0.225,24.975 -10.001,29.142 C 648.327,448.046 641.962,447 637,447 c 2.145,-12.456 12.706,-27.949 26,-30 z"
       id="path280" />
  </g>
</svg>
