<?xml version="1.0" encoding="UTF-8"?>
<svg xmlns="http://www.w3.org/2000/svg" xmlns:xlink="http://www.w3.org/1999/xlink" width="216pt" height="215.999996pt" viewBox="0 0 216 215.999996" version="1.2">
<defs>
<clipPath id="clip1">
  <path d="M 59.914062 70.875 L 155.914062 70.875 L 155.914062 145.125 L 59.914062 145.125 Z M 59.914062 70.875 "/>
</clipPath>
</defs>
<g id="surface1">
<g clip-path="url(#clip1)" clip-rule="nonzero">
<path style=" stroke:none;fill-rule:evenodd;fill:rgb(0%,29.019165%,67.83905%);fill-opacity:1;" d="M 68.761719 117.707031 C 78.265625 117.425781 73.007812 125.558594 65.714844 123.300781 L 65.714844 139.328125 L 150.003906 139.328125 C 150.171875 134.152344 149.671875 128.308594 150.261719 123.554688 C 145.621094 123.78125 139.644531 124.125 140.863281 119.484375 C 141.246094 118.046875 142.667969 117.472656 144.929688 117.449219 C 143.707031 113.757812 142.296875 110.253906 141.371094 106.257812 L 73.082031 106.257812 C 71.253906 109.6875 70.269531 113.960938 68.765625 117.707031 Z M 120.300781 85.402344 C 117.941406 85.679688 118.207031 82.390625 117 80.316406 C 113.410156 74.136719 102.488281 72.933594 97.703125 79.042969 C 96.585938 80.472656 95.917969 85.996094 93.390625 85.402344 C 91.023438 84.847656 92.585938 81.542969 92.878906 79.550781 C 87.5 76.246094 80.882812 80.070312 80.695312 85.910156 C 83.355469 86.125 89.121094 88.144531 88.3125 91.507812 C 87.394531 95.3125 84.230469 90.867188 82.472656 90.234375 C 76.53125 88.09375 71.925781 94.671875 73.585938 100.664062 L 140.359375 100.664062 C 141.753906 93.910156 137.09375 88.453125 131.726562 89.980469 C 129.589844 90.589844 128.613281 93.429688 126.902344 92.777344 C 122.429688 91.074219 130.230469 84.96875 132.996094 85.910156 C 133.140625 79.835938 126.242188 76.34375 121.0625 79.550781 C 120.960938 80.953125 123.269531 85.050781 120.300781 85.402344 Z M 118.777344 76.246094 C 126.78125 71.492188 137.160156 76.636719 136.800781 86.417969 C 141.492188 88.761719 145.441406 93.191406 144.167969 100.664062 C 147.351562 105.101562 148.261719 111.820312 150.515625 117.199219 C 152.351562 117.730469 154.292969 118.15625 155.335938 119.484375 C 154.472656 125.445312 158.492188 142.605469 152.800781 144.667969 C 150.441406 145.519531 145.242188 144.921875 141.371094 144.921875 C 118.140625 144.917969 95.683594 144.921875 72.0625 144.921875 C 68.132812 144.921875 62.648438 145.203125 61.398438 144.160156 C 59.597656 142.648438 60.128906 136.667969 60.132812 132.203125 C 60.132812 125.71875 58.707031 118.554688 63.175781 117.449219 C 65.53125 112.09375 66.535156 105.386719 69.777344 100.917969 C 68.300781 94.136719 71.875 88.359375 77.140625 86.675781 C 76.355469 76.734375 87.46875 71.179688 94.910156 76.5 C 99.910156 69 113.804688 69.085938 118.777344 76.246094 "/>
</g>
<path style=" stroke:none;fill-rule:evenodd;fill:rgb(0%,29.019165%,67.83905%);fill-opacity:1;" d="M 101.769531 111.855469 C 106.933594 111.136719 108.179688 120.507812 103.289062 121.011719 C 98.878906 121.46875 96.007812 112.65625 101.769531 111.855469 "/>
<path style=" stroke:none;fill-rule:evenodd;fill:rgb(0%,29.019165%,67.83905%);fill-opacity:1;" d="M 110.910156 111.855469 C 117.292969 110.460938 116.429688 121.605469 110.652344 121.011719 C 106.015625 120.535156 106.875 112.738281 110.910156 111.855469 "/>
<path style=" stroke:none;fill-rule:evenodd;fill:rgb(0%,29.019165%,67.83905%);fill-opacity:1;" d="M 93.644531 118.214844 C 98.878906 116.664062 101.992188 125.316406 97.453125 126.609375 C 93.148438 127.832031 87.886719 119.917969 93.644531 118.214844 "/>
<path style=" stroke:none;fill-rule:evenodd;fill:rgb(0%,29.019165%,67.83905%);fill-opacity:1;" d="M 118.015625 118.214844 C 124.984375 116.617188 123.484375 127.378906 117.257812 126.863281 C 112.207031 126.445312 114.042969 119.125 118.015625 118.214844 "/>
<path style=" stroke:none;fill-rule:evenodd;fill:rgb(0%,29.019165%,67.83905%);fill-opacity:1;" d="M 105.324219 122.792969 C 109.542969 121.941406 113.660156 124.144531 114.460938 128.132812 C 115.039062 131.011719 114.332031 134.25 112.429688 135 C 110.59375 135.730469 109.234375 134.019531 107.097656 133.984375 C 105.148438 133.953125 103.632812 135.644531 101.769531 135 C 99.792969 134.324219 98.894531 131.949219 99.484375 128.386719 C 99.910156 125.816406 102.324219 123.398438 105.324219 122.792969 "/>
</g>
</svg>
