<?xml version="1.0" encoding="UTF-8" standalone="no"?>
<svg
   xmlns:dc="http://purl.org/dc/elements/1.1/"
   xmlns:cc="http://creativecommons.org/ns#"
   xmlns:rdf="http://www.w3.org/1999/02/22-rdf-syntax-ns#"
   xmlns:svg="http://www.w3.org/2000/svg"
   xmlns="http://www.w3.org/2000/svg"
   xmlns:sodipodi="http://sodipodi.sourceforge.net/DTD/sodipodi-0.dtd"
   xmlns:inkscape="http://www.inkscape.org/namespaces/inkscape"
   version="1.1"
   id="svg60"
   width="288"
   height="288"
   viewBox="0 0 288 288"
   sodipodi:docname="dog-bowl-perfect.svg"
   inkscape:version="1.0.1 (c497b03c, 2020-09-10)">
  <metadata
     id="metadata66">
    <rdf:RDF>
      <cc:Work
         rdf:about="">
        <dc:format>image/svg+xml</dc:format>
        <dc:type
           rdf:resource="http://purl.org/dc/dcmitype/StillImage" />
        <dc:title></dc:title>
      </cc:Work>
    </rdf:RDF>
  </metadata>
  <defs
     id="defs64" />
  <sodipodi:namedview
     pagecolor="#ffffff"
     bordercolor="#666666"
     borderopacity="1"
     objecttolerance="10"
     gridtolerance="10"
     guidetolerance="10"
     inkscape:pageopacity="0"
     inkscape:pageshadow="2"
     inkscape:window-width="1680"
     inkscape:window-height="1050"
     id="namedview62"
     showgrid="false"
     inkscape:zoom="1"
     inkscape:cx="144"
     inkscape:cy="144"
     inkscape:window-x="0"
     inkscape:window-y="0"
     inkscape:window-maximized="0"
     inkscape:current-layer="g68" />
  <g
     inkscape:groupmode="layer"
     inkscape:label="Image"
     id="g68">
    <path
       style="fill:#0a50b0;stroke:none"
       d="m 138,93.5332 c -3.626,0.8809 -6.12,3.9389 -9.576,4.8568 -5.681,1.508 -10.311,-2.3955 -16.334,1.168 -5.629,3.33 -5.016,8.282 -8.103,13.067 -2.075,3.216 -5.7216,4.81 -7.5302,8.379 -4.2463,8.379 -4.6503,19.929 -8.5648,28.996 -4.5492,10.538 -5.8965,16.255 -5.892,28 0.001,3.395 -0.7346,8.566 1.858,11.258 C 88.5239,194.103 106.595,191 113,191 h 62 c 8.899,0 20.366,1.936 28.981,-0.318 8.498,-2.223 7.828,-27.284 3.992,-33.268 -1.673,-2.609 -4.706,-3.528 -6.173,-6.469 -6.675,-13.382 -7.542,-26.094 -16.212,-38.115 -3.395,-4.707 -2.971,-10.012 -8.628,-13.272 -6.106,-3.5186 -10.782,0.359 -16.536,-1.168 C 152.092,96.1773 147.68,91.1815 138,93.5332 M 161,112 h 2 v -8 c 7.964,-3.338 15.39,-0.068 16,9 -5.081,1.026 -8.459,3.542 -8,9 3.903,-2.455 8.243,-5.475 12.956,-2.972 3.066,1.628 7.911,8.758 4.262,11.944 C 184.206,134.476 170.168,132 165,132 h -65 c 0.0402,-13.997 7.907,-15.147 19,-10 0.214,-5.763 -3.899,-7.71 -9,-9 0.667,-8.848 8.249,-12.206 16,-9 v 8 c 3.904,-3.164 5.068,-8.331 9.105,-11.297 11.044,-8.1152 21.929,1.091 25.895,11.297 m 30,28 4,15 c -10.512,3.202 1.991,7.958 7,8 v 21 H 90 v -21 c 5.8606,-0.321 13.304,-6.053 4,-8 L 100.3935,140.603 127,140 h 64 m -53.867,7.851 c -5.822,1.932 -2.288,12.55 3.639,10.487 5.579,-1.942 2.066,-12.38 -3.639,-10.487 m 11.997,0.235 c -5.181,2.517 -3.876,12.824 2.741,10.291 5.918,-2.265 3.443,-13.294 -2.741,-10.291 m -21.076,7.831 c -6.921,0.632 -3.061,11.033 2.838,10.421 6.564,-0.681 2.991,-10.954 -2.838,-10.421 m 30.159,0.83 c -5.653,2.459 -3.974,12.018 2.732,9.491 6.162,-2.321 4.297,-12.549 -2.732,-9.491 m -18.169,6.111 c -4.387,1.893 -7.397,9.721 -3.441,13.524 1.997,1.919 12.568,2.02 15.118,0.975 9.715,-3.981 -2.238,-18.571 -11.677,-14.499 z"
       id="path134" />
  </g>
</svg>
