<svg xmlns="http://www.w3.org/2000/svg" xmlns:xlink="http://www.w3.org/1999/xlink" width="1350" height="650" viewBox="0 0 1012.5 487.5" version="1.2"><defs><clipPath id="cr"><path d="M286.992 24.363h438.516V462.88H286.992zm0 0"/></clipPath><clipPath id="c"><path d="M43 29h145v105H43zm0 0"/></clipPath><clipPath id="d"><path d="M99.207.953L229.254 88.32 131.02 234.543.973 147.176zm0 0"/></clipPath><clipPath id="e"><path d="M99.207.953L229.254 88.32 131.02 234.543.973 147.176zm0 0"/></clipPath><clipPath id="f"><path d="M32 130h87v70H32zm0 0"/></clipPath><clipPath id="g"><path d="M99.207.953L229.254 88.32 131.02 234.543.973 147.176zm0 0"/></clipPath><clipPath id="h"><path d="M99.207.953L229.254 88.32 131.02 234.543.973 147.176zm0 0"/></clipPath><clipPath id="i"><path d="M138 127h40v40h-40zm0 0"/></clipPath><clipPath id="j"><path d="M99.207.953L229.254 88.32 131.02 234.543.973 147.176zm0 0"/></clipPath><clipPath id="k"><path d="M99.207.953L229.254 88.32 131.02 234.543.973 147.176zm0 0"/></clipPath><clipPath id="l"><path d="M123 138h16v30h-16zm0 0"/></clipPath><clipPath id="m"><path d="M99.207.953L229.254 88.32 131.02 234.543.973 147.176zm0 0"/></clipPath><clipPath id="n"><path d="M99.207.953L229.254 88.32 131.02 234.543.973 147.176zm0 0"/></clipPath><clipPath id="o"><path d="M129 131h11v7h-11zm0 0"/></clipPath><clipPath id="p"><path d="M99.207.953L229.254 88.32 131.02 234.543.973 147.176zm0 0"/></clipPath><clipPath id="q"><path d="M99.207.953L229.254 88.32 131.02 234.543.973 147.176zm0 0"/></clipPath><clipPath id="r"><path d="M161 165h6v7h-6zm0 0"/></clipPath><clipPath id="s"><path d="M99.207.953L229.254 88.32 131.02 234.543.973 147.176zm0 0"/></clipPath><clipPath id="t"><path d="M99.207.953L229.254 88.32 131.02 234.543.973 147.176zm0 0"/></clipPath><clipPath id="u"><path d="M152 168h5v8h-5zm0 0"/></clipPath><clipPath id="v"><path d="M99.207.953L229.254 88.32 131.02 234.543.973 147.176zm0 0"/></clipPath><clipPath id="w"><path d="M99.207.953L229.254 88.32 131.02 234.543.973 147.176zm0 0"/></clipPath><clipPath id="x"><path d="M147 169h5v8h-5zm0 0"/></clipPath><clipPath id="y"><path d="M99.207.953L229.254 88.32 131.02 234.543.973 147.176zm0 0"/></clipPath><clipPath id="z"><path d="M99.207.953L229.254 88.32 131.02 234.543.973 147.176zm0 0"/></clipPath><clipPath id="A"><path d="M49 125h4v5h-4zm0 0"/></clipPath><clipPath id="B"><path d="M99.207.953L229.254 88.32 131.02 234.543.973 147.176zm0 0"/></clipPath><clipPath id="C"><path d="M99.207.953L229.254 88.32 131.02 234.543.973 147.176zm0 0"/></clipPath><clipPath id="D"><path d="M103 202h5v5h-5zm0 0"/></clipPath><clipPath id="E"><path d="M99.207.953L229.254 88.32 131.02 234.543.973 147.176zm0 0"/></clipPath><clipPath id="F"><path d="M99.207.953L229.254 88.32 131.02 234.543.973 147.176zm0 0"/></clipPath><clipPath id="G"><path d="M112 132h5v7h-5zm0 0"/></clipPath><clipPath id="H"><path d="M99.207.953L229.254 88.32 131.02 234.543.973 147.176zm0 0"/></clipPath><clipPath id="I"><path d="M99.207.953L229.254 88.32 131.02 234.543.973 147.176zm0 0"/></clipPath><clipPath id="J"><path d="M106 107h4v6h-4zm0 0"/></clipPath><clipPath id="K"><path d="M99.207.953L229.254 88.32 131.02 234.543.973 147.176zm0 0"/></clipPath><clipPath id="L"><path d="M99.207.953L229.254 88.32 131.02 234.543.973 147.176zm0 0"/></clipPath><clipPath id="M"><path d="M134 127h5v4h-5zm0 0"/></clipPath><clipPath id="N"><path d="M99.207.953L229.254 88.32 131.02 234.543.973 147.176zm0 0"/></clipPath><clipPath id="O"><path d="M99.207.953L229.254 88.32 131.02 234.543.973 147.176zm0 0"/></clipPath><clipPath id="P"><path d="M102 113h5v5h-5zm0 0"/></clipPath><clipPath id="Q"><path d="M99.207.953L229.254 88.32 131.02 234.543.973 147.176zm0 0"/></clipPath><clipPath id="R"><path d="M99.207.953L229.254 88.32 131.02 234.543.973 147.176zm0 0"/></clipPath><clipPath id="S"><path d="M97 122h5v4h-5zm0 0"/></clipPath><clipPath id="T"><path d="M99.207.953L229.254 88.32 131.02 234.543.973 147.176zm0 0"/></clipPath><clipPath id="U"><path d="M99.207.953L229.254 88.32 131.02 234.543.973 147.176zm0 0"/></clipPath><clipPath id="V"><path d="M47 77h3v4h-3zm0 0"/></clipPath><clipPath id="W"><path d="M99.207.953L229.254 88.32 131.02 234.543.973 147.176zm0 0"/></clipPath><clipPath id="X"><path d="M99.207.953L229.254 88.32 131.02 234.543.973 147.176zm0 0"/></clipPath><clipPath id="Y"><path d="M91 112h4v4h-4zm0 0"/></clipPath><clipPath id="Z"><path d="M99.207.953L229.254 88.32 131.02 234.543.973 147.176zm0 0"/></clipPath><clipPath id="aa"><path d="M99.207.953L229.254 88.32 131.02 234.543.973 147.176zm0 0"/></clipPath><clipPath id="ab"><path d="M124 163h3v3h-3zm0 0"/></clipPath><clipPath id="ac"><path d="M99.207.953L229.254 88.32 131.02 234.543.973 147.176zm0 0"/></clipPath><clipPath id="ad"><path d="M99.207.953L229.254 88.32 131.02 234.543.973 147.176zm0 0"/></clipPath><clipPath id="ae"><path d="M168 165h4v3h-4zm0 0"/></clipPath><clipPath id="af"><path d="M99.207.953L229.254 88.32 131.02 234.543.973 147.176zm0 0"/></clipPath><clipPath id="ag"><path d="M99.207.953L229.254 88.32 131.02 234.543.973 147.176zm0 0"/></clipPath><clipPath id="ah"><path d="M143 169h3v4h-3zm0 0"/></clipPath><clipPath id="ai"><path d="M99.207.953L229.254 88.32 131.02 234.543.973 147.176zm0 0"/></clipPath><clipPath id="aj"><path d="M99.207.953L229.254 88.32 131.02 234.543.973 147.176zm0 0"/></clipPath><clipPath id="ak"><path d="M123 149h3v2h-3zm0 0"/></clipPath><clipPath id="al"><path d="M99.207.953L229.254 88.32 131.02 234.543.973 147.176zm0 0"/></clipPath><clipPath id="am"><path d="M99.207.953L229.254 88.32 131.02 234.543.973 147.176zm0 0"/></clipPath><clipPath id="an"><path d="M126 118h3v4h-3zm0 0"/></clipPath><clipPath id="ao"><path d="M99.207.953L229.254 88.32 131.02 234.543.973 147.176zm0 0"/></clipPath><clipPath id="ap"><path d="M99.207.953L229.254 88.32 131.02 234.543.973 147.176zm0 0"/></clipPath><clipPath id="aq"><path d="M114 132h4v2h-4zm0 0"/></clipPath><clipPath id="ar"><path d="M99.207.953L229.254 88.32 131.02 234.543.973 147.176zm0 0"/></clipPath><clipPath id="as"><path d="M99.207.953L229.254 88.32 131.02 234.543.973 147.176zm0 0"/></clipPath><clipPath id="at"><path d="M108 112h3v4h-3zm0 0"/></clipPath><clipPath id="au"><path d="M99.207.953L229.254 88.32 131.02 234.543.973 147.176zm0 0"/></clipPath><clipPath id="av"><path d="M99.207.953L229.254 88.32 131.02 234.543.973 147.176zm0 0"/></clipPath><clipPath id="aw"><path d="M184 87h3v3h-3zm0 0"/></clipPath><clipPath id="ax"><path d="M99.207.953L229.254 88.32 131.02 234.543.973 147.176zm0 0"/></clipPath><clipPath id="ay"><path d="M99.207.953L229.254 88.32 131.02 234.543.973 147.176zm0 0"/></clipPath><clipPath id="az"><path d="M133 113h3v3h-3zm0 0"/></clipPath><clipPath id="aA"><path d="M99.207.953L229.254 88.32 131.02 234.543.973 147.176zm0 0"/></clipPath><clipPath id="aB"><path d="M99.207.953L229.254 88.32 131.02 234.543.973 147.176zm0 0"/></clipPath><clipPath id="aC"><path d="M115 140h4v2h-4zm0 0"/></clipPath><clipPath id="aD"><path d="M99.207.953L229.254 88.32 131.02 234.543.973 147.176zm0 0"/></clipPath><clipPath id="aE"><path d="M99.207.953L229.254 88.32 131.02 234.543.973 147.176zm0 0"/></clipPath><clipPath id="aF"><path d="M149 38h2v3h-2zm0 0"/></clipPath><clipPath id="aG"><path d="M99.207.953L229.254 88.32 131.02 234.543.973 147.176zm0 0"/></clipPath><clipPath id="aH"><path d="M99.207.953L229.254 88.32 131.02 234.543.973 147.176zm0 0"/></clipPath><clipPath id="aI"><path d="M120 152h3v2h-3zm0 0"/></clipPath><clipPath id="aJ"><path d="M99.207.953L229.254 88.32 131.02 234.543.973 147.176zm0 0"/></clipPath><clipPath id="aK"><path d="M99.207.953L229.254 88.32 131.02 234.543.973 147.176zm0 0"/></clipPath><clipPath id="aL"><path d="M145 174h3v2h-3zm0 0"/></clipPath><clipPath id="aM"><path d="M99.207.953L229.254 88.32 131.02 234.543.973 147.176zm0 0"/></clipPath><clipPath id="aN"><path d="M99.207.953L229.254 88.32 131.02 234.543.973 147.176zm0 0"/></clipPath><clipPath id="aO"><path d="M178 159h3v3h-3zm0 0"/></clipPath><clipPath id="aP"><path d="M99.207.953L229.254 88.32 131.02 234.543.973 147.176zm0 0"/></clipPath><clipPath id="aQ"><path d="M99.207.953L229.254 88.32 131.02 234.543.973 147.176zm0 0"/></clipPath><clipPath id="aR"><path d="M139 167h3v3h-3zm0 0"/></clipPath><clipPath id="aS"><path d="M99.207.953L229.254 88.32 131.02 234.543.973 147.176zm0 0"/></clipPath><clipPath id="aT"><path d="M99.207.953L229.254 88.32 131.02 234.543.973 147.176zm0 0"/></clipPath><clipPath id="aU"><path d="M46 86h1v3h-1zm0 0"/></clipPath><clipPath id="aV"><path d="M99.207.953L229.254 88.32 131.02 234.543.973 147.176zm0 0"/></clipPath><clipPath id="aW"><path d="M99.207.953L229.254 88.32 131.02 234.543.973 147.176zm0 0"/></clipPath><clipPath id="aX"><path d="M178 110h3v2h-3zm0 0"/></clipPath><clipPath id="aY"><path d="M99.207.953L229.254 88.32 131.02 234.543.973 147.176zm0 0"/></clipPath><clipPath id="aZ"><path d="M99.207.953L229.254 88.32 131.02 234.543.973 147.176zm0 0"/></clipPath><clipPath id="ba"><path d="M177 158h3v2h-3zm0 0"/></clipPath><clipPath id="bb"><path d="M99.207.953L229.254 88.32 131.02 234.543.973 147.176zm0 0"/></clipPath><clipPath id="bc"><path d="M99.207.953L229.254 88.32 131.02 234.543.973 147.176zm0 0"/></clipPath><clipPath id="bd"><path d="M108 208h2v2h-2zm0 0"/></clipPath><clipPath id="be"><path d="M99.207.953L229.254 88.32 131.02 234.543.973 147.176zm0 0"/></clipPath><clipPath id="bf"><path d="M99.207.953L229.254 88.32 131.02 234.543.973 147.176zm0 0"/></clipPath><clipPath id="bg"><path d="M175 160h1v2h-1zm0 0"/></clipPath><clipPath id="bh"><path d="M99.207.953L229.254 88.32 131.02 234.543.973 147.176zm0 0"/></clipPath><clipPath id="bi"><path d="M99.207.953L229.254 88.32 131.02 234.543.973 147.176zm0 0"/></clipPath><clipPath id="bj"><path d="M117 146h2v2h-2zm0 0"/></clipPath><clipPath id="bk"><path d="M99.207.953L229.254 88.32 131.02 234.543.973 147.176zm0 0"/></clipPath><clipPath id="bl"><path d="M99.207.953L229.254 88.32 131.02 234.543.973 147.176zm0 0"/></clipPath><clipPath id="bm"><path d="M119 159h2v2h-2zm0 0"/></clipPath><clipPath id="bn"><path d="M99.207.953L229.254 88.32 131.02 234.543.973 147.176zm0 0"/></clipPath><clipPath id="bo"><path d="M99.207.953L229.254 88.32 131.02 234.543.973 147.176zm0 0"/></clipPath><clipPath id="bp"><path d="M136 170h1v2h-1zm0 0"/></clipPath><clipPath id="bq"><path d="M99.207.953L229.254 88.32 131.02 234.543.973 147.176zm0 0"/></clipPath><clipPath id="br"><path d="M99.207.953L229.254 88.32 131.02 234.543.973 147.176zm0 0"/></clipPath><clipPath id="bs"><path d="M172 166h1v2h-1zm0 0"/></clipPath><clipPath id="bt"><path d="M99.207.953L229.254 88.32 131.02 234.543.973 147.176zm0 0"/></clipPath><clipPath id="bu"><path d="M99.207.953L229.254 88.32 131.02 234.543.973 147.176zm0 0"/></clipPath><clipPath id="bv"><path d="M141 177h2v2h-2zm0 0"/></clipPath><clipPath id="bw"><path d="M99.207.953L229.254 88.32 131.02 234.543.973 147.176zm0 0"/></clipPath><clipPath id="bx"><path d="M99.207.953L229.254 88.32 131.02 234.543.973 147.176zm0 0"/></clipPath><clipPath id="by"><path d="M139 171h1v1h-1zm0 0"/></clipPath><clipPath id="bz"><path d="M99.207.953L229.254 88.32 131.02 234.543.973 147.176zm0 0"/></clipPath><clipPath id="bA"><path d="M99.207.953L229.254 88.32 131.02 234.543.973 147.176zm0 0"/></clipPath><clipPath id="bB"><path d="M151 175h2v1h-2zm0 0"/></clipPath><clipPath id="bC"><path d="M99.207.953L229.254 88.32 131.02 234.543.973 147.176zm0 0"/></clipPath><clipPath id="bD"><path d="M99.207.953L229.254 88.32 131.02 234.543.973 147.176zm0 0"/></clipPath><clipPath id="bE"><path d="M174 56h2v1h-2zm0 0"/></clipPath><clipPath id="bF"><path d="M99.207.953L229.254 88.32 131.02 234.543.973 147.176zm0 0"/></clipPath><clipPath id="bG"><path d="M99.207.953L229.254 88.32 131.02 234.543.973 147.176zm0 0"/></clipPath><clipPath id="bH"><path d="M159 116h1v1h-1zm0 0"/></clipPath><clipPath id="bI"><path d="M99.207.953L229.254 88.32 131.02 234.543.973 147.176zm0 0"/></clipPath><clipPath id="bJ"><path d="M99.207.953L229.254 88.32 131.02 234.543.973 147.176zm0 0"/></clipPath><clipPath id="bK"><path d="M187 80h2v2h-2zm0 0"/></clipPath><clipPath id="bL"><path d="M99.207.953L229.254 88.32 131.02 234.543.973 147.176zm0 0"/></clipPath><clipPath id="bM"><path d="M99.207.953L229.254 88.32 131.02 234.543.973 147.176zm0 0"/></clipPath><clipPath id="bN"><path d="M187 80h2v1h-2zm0 0"/></clipPath><clipPath id="bO"><path d="M99.207.953L229.254 88.32 131.02 234.543.973 147.176zm0 0"/></clipPath><clipPath id="bP"><path d="M99.207.953L229.254 88.32 131.02 234.543.973 147.176zm0 0"/></clipPath><clipPath id="bQ"><path d="M141 178h2v1h-2zm0 0"/></clipPath><clipPath id="bR"><path d="M99.207.953L229.254 88.32 131.02 234.543.973 147.176zm0 0"/></clipPath><clipPath id="bS"><path d="M99.207.953L229.254 88.32 131.02 234.543.973 147.176zm0 0"/></clipPath><clipPath id="bT"><path d="M152 177h1v1h-1zm0 0"/></clipPath><clipPath id="bU"><path d="M99.207.953L229.254 88.32 131.02 234.543.973 147.176zm0 0"/></clipPath><clipPath id="bV"><path d="M99.207.953L229.254 88.32 131.02 234.543.973 147.176zm0 0"/></clipPath><clipPath id="bW"><path d="M138 168h1v1h-1zm0 0"/></clipPath><clipPath id="bX"><path d="M99.207.953L229.254 88.32 131.02 234.543.973 147.176zm0 0"/></clipPath><clipPath id="bY"><path d="M99.207.953L229.254 88.32 131.02 234.543.973 147.176zm0 0"/></clipPath><clipPath id="bZ"><path d="M154 168h1v1h-1zm0 0"/></clipPath><clipPath id="ca"><path d="M99.207.953L229.254 88.32 131.02 234.543.973 147.176zm0 0"/></clipPath><clipPath id="cb"><path d="M99.207.953L229.254 88.32 131.02 234.543.973 147.176zm0 0"/></clipPath><clipPath id="cc"><path d="M115 141h1v1h-1zm0 0"/></clipPath><clipPath id="cd"><path d="M99.207.953L229.254 88.32 131.02 234.543.973 147.176zm0 0"/></clipPath><clipPath id="ce"><path d="M99.207.953L229.254 88.32 131.02 234.543.973 147.176zm0 0"/></clipPath><clipPath id="cf"><path d="M38 166h1v1h-1zm0 0"/></clipPath><clipPath id="cg"><path d="M99.207.953L229.254 88.32 131.02 234.543.973 147.176zm0 0"/></clipPath><clipPath id="ch"><path d="M99.207.953L229.254 88.32 131.02 234.543.973 147.176zm0 0"/></clipPath><clipPath id="ci"><path d="M152 176h1v2h-1zm0 0"/></clipPath><clipPath id="cj"><path d="M99.207.953L229.254 88.32 131.02 234.543.973 147.176zm0 0"/></clipPath><clipPath id="ck"><path d="M99.207.953L229.254 88.32 131.02 234.543.973 147.176zm0 0"/></clipPath><clipPath id="cl"><path d="M106 111h1v1h-1zm0 0"/></clipPath><clipPath id="cm"><path d="M99.207.953L229.254 88.32 131.02 234.543.973 147.176zm0 0"/></clipPath><clipPath id="cn"><path d="M99.207.953L229.254 88.32 131.02 234.543.973 147.176zm0 0"/></clipPath><clipPath id="co"><path d="M138 130h1v2h-1zm0 0"/></clipPath><clipPath id="cp"><path d="M99.207.953L229.254 88.32 131.02 234.543.973 147.176zm0 0"/></clipPath><clipPath id="cq"><path d="M99.207.953L229.254 88.32 131.02 234.543.973 147.176zm0 0"/></clipPath><clipPath id="b"><path d="M0 0h231v234H0z"/></clipPath><symbol overflow="visible" id="cs"><path d="M-14.89-54.5c4.542 2.125 8.554 4.758 12.03 7.89 3.47 3.137 6.15 6.555 8.047 10.25A28.349 28.349 0 018.36-24.671c.207 4.106-.648 8.203-2.562 12.297l-3 6.39c-.281.606-.777 1.008-1.485 1.204C.614-4.594-.085-4.664-.796-5l-60.906-28.516a3.205 3.205 0 01-1.563-1.515c-.332-.676-.359-1.317-.078-1.922l3-6.39c1.918-4.094 4.508-7.38 7.766-9.86 3.262-2.477 6.933-4.16 11.016-5.047 4.074-.895 8.402-1.023 12.984-.39 4.574.624 9.137 2.007 13.687 4.14zm11.468 34.766c.781-2.594.95-5.13.5-7.61-.445-2.488-1.379-4.836-2.797-7.047-1.426-2.207-3.289-4.234-5.593-6.078-2.313-1.851-4.938-3.468-7.876-4.843-2.882-1.352-5.773-2.32-8.671-2.907-2.907-.593-5.664-.726-8.282-.406-2.625.313-5.023 1.094-7.203 2.344-2.176 1.25-4.015 3.008-5.515 5.265-.438.668-.5 1.368-.188 2.094.313.73.844 1.274 1.594 1.625l40.281 18.844c.805.387 1.57.46 2.297.219.73-.25 1.215-.75 1.453-1.5zm0 0"/></symbol><symbol overflow="visible" id="ct"><path d="M-1.578-14.86c-3.477-1-7.02-2.648-10.625-4.953-3.613-2.3-7.211-5.222-10.797-8.765-3.57-3.52-6.54-7.078-8.906-10.672-2.375-3.594-4.086-7.125-5.14-10.594-2.552-8.468-1.099-15.468 4.358-21 5.45-5.52 12.422-7.066 20.922-4.64 3.493 1 7.047 2.668 10.672 5C2.531-68.16 6.13-65.238 9.703-61.72c3.582 3.543 6.55 7.102 8.906 10.672 2.352 3.563 4.051 7.078 5.094 10.547 1.219 4.188 1.461 8.043.735 11.563-.731 3.511-2.446 6.636-5.141 9.375-2.711 2.75-5.82 4.515-9.328 5.296-3.512.774-7.36.575-11.547-.593zm-14.766-20.453c.719.711 1.715 1.633 2.985 2.766 1.273 1.137 2.742 2.313 4.406 3.531a45.406 45.406 0 005.375 3.36c1.918 1.031 3.832 1.773 5.75 2.218 1.914.438 3.789.508 5.625.204 1.832-.301 3.5-1.211 5-2.735 1.488-1.508 2.375-3.18 2.656-5.015.281-1.844.188-3.72-.281-5.625-.469-1.914-1.235-3.82-2.297-5.72a45.625 45.625 0 00-3.438-5.327c-1.23-1.657-2.421-3.114-3.578-4.375a90.366 90.366 0 00-2.812-2.953A104.937 104.937 0 000-57.781a51.37 51.37 0 00-4.422-3.547 48.877 48.877 0 00-5.375-3.375c-1.945-1.063-3.879-1.813-5.797-2.25-1.914-.445-3.789-.516-5.625-.203-1.832.304-3.492 1.21-4.984 2.719-1.5 1.523-2.39 3.199-2.672 5.03-.281 1.837-.188 3.712.281 5.626.469 1.906 1.246 3.824 2.328 5.75a47.727 47.727 0 003.438 5.343 57.339 57.339 0 003.625 4.391c1.187 1.293 2.14 2.29 2.86 2.984zm0 0"/></symbol><symbol overflow="visible" id="cu"><path d="M37.172-55.89a64.571 64.571 0 014.016 12.796c.894 4.387 1.035 8.696.421 12.922-.68 4.313-2.195 8.012-4.547 11.094-2.355 3.074-5.453 5.437-9.296 7.094-3.844 1.668-7.696 2.304-11.547 1.906-3.856-.406-7.594-1.836-11.219-4.297-6.363-4.488-11.563-11.398-15.594-20.734-4.094-9.477-5.55-18-4.375-25.563.656-4.406 2.164-8.148 4.516-11.234 2.344-3.082 5.437-5.457 9.281-7.125 3.844-1.656 7.692-2.281 11.547-1.875 3.863.406 7.617 1.886 11.266 4.437.332.211.547.528.64.953.094.43.035.829-.172 1.204l-3.906 6.156c-.367.594-.898.71-1.594.344-1.398-.864-2.793-1.524-4.187-1.985-1.387-.469-2.695-.785-3.922-.953-1.23-.176-2.355-.207-3.375-.094-1.012.106-1.852.297-2.516.578-1.18.512-2.492 1.446-3.937 2.797-1.457 1.356-2.602 3.278-3.438 5.766-.843 2.492-1.14 5.617-.89 9.375.25 3.762 1.5 8.25 3.75 13.469 2.258 5.23 4.66 9.21 7.203 11.937 2.55 2.73 5.016 4.633 7.39 5.703 2.383 1.074 4.567 1.547 6.547 1.422 1.989-.125 3.57-.441 4.75-.953.914-.395 1.926-1.07 3.032-2.031 1.101-.969 2.101-2.285 3-3.953.894-1.664 1.554-3.649 1.984-5.953.426-2.313.398-5.008-.078-8.094-.094-.5-.328-.895-.703-1.188-.375-.3-.766-.363-1.172-.187l-9.375 4.031c-.617.273-1.25.246-1.906-.078-.657-.32-1.164-.895-1.516-1.719l-2.125-4.922c-.313-.718-.36-1.426-.14-2.125.218-.695.632-1.18 1.25-1.453l19.14-8.25c.363-.156.71-.156 1.047 0 .344.156.594.418.75.781zm0 0"/></symbol><symbol overflow="visible" id="cv"><path d="M47.094-31.203c-.606 4.98-1.856 9.605-3.75 13.875-1.887 4.273-4.282 7.898-7.188 10.875C33.25-3.484 29.88-1.258 26.046.219c-3.835 1.476-7.995 1.945-12.483 1.406l-7-.844C5.894.707 5.359.367 4.952-.234c-.398-.614-.547-1.313-.453-2.094l8-66.766c.094-.781.406-1.43.938-1.953.539-.531 1.144-.758 1.812-.687l7 .843c4.488.543 8.422 1.977 11.797 4.297 3.383 2.324 6.133 5.281 8.25 8.875 2.125 3.586 3.601 7.653 4.437 12.203.832 4.543.953 9.313.36 14.313zM17.672-9.438c2.707-.07 5.172-.707 7.39-1.906 2.22-1.195 4.149-2.816 5.797-4.86 1.657-2.038 3-4.444 4.032-7.218 1.039-2.781 1.754-5.773 2.14-8.984.375-3.164.383-6.219.032-9.157-.344-2.937-1.079-5.597-2.204-7.984-1.117-2.383-2.609-4.414-4.484-6.094-1.875-1.687-4.121-2.89-6.734-3.609-.762-.207-1.446-.05-2.047.469-.594.523-.938 1.199-1.032 2.031l-5.296 44.156c-.106.887.07 1.637.53 2.25.458.617 1.083.918 1.876.906zm0 0"/></symbol><symbol overflow="visible" id="cw"><path d="M13.61-6.156c-.137-3.614.32-7.492 1.374-11.64 1.063-4.157 2.707-8.49 4.938-13 2.226-4.5 4.676-8.438 7.344-11.813 2.675-3.375 5.5-6.11 8.468-8.203 7.25-5.063 14.348-5.876 21.297-2.438C63.988-49.8 67.645-43.66 68-34.828c.133 3.637-.336 7.539-1.406 11.703-1.074 4.168-2.727 8.5-4.953 13-2.23 4.512-4.672 8.445-7.328 11.797-2.657 3.363-5.47 6.082-8.438 8.156-3.586 2.469-7.164 3.906-10.734 4.313-3.563.414-7.075-.235-10.532-1.954-3.449-1.71-6.093-4.109-7.937-7.203-1.836-3.086-2.856-6.796-3.063-11.14zm14.796-20.438c-.449.907-1.011 2.14-1.687 3.703-.68 1.563-1.336 3.328-1.969 5.297a44.812 44.812 0 00-1.516 6.172c-.375 2.149-.476 4.2-.297 6.156.188 1.961.708 3.762 1.563 5.407.863 1.644 2.25 2.937 4.156 3.875 1.907.945 3.774 1.265 5.61.953 1.832-.313 3.582-.992 5.25-2.032 1.675-1.03 3.25-2.351 4.718-3.953a48.52 48.52 0 003.985-4.953c1.187-1.687 2.191-3.273 3.015-4.765a86.325 86.325 0 001.922-3.594 92.045 92.045 0 001.735-3.766 54.568 54.568 0 001.984-5.328 50.837 50.837 0 001.516-6.156c.394-2.164.5-4.235.312-6.203-.18-1.969-.703-3.77-1.578-5.407-.867-1.644-2.25-2.94-4.156-3.89-1.907-.938-3.774-1.25-5.594-.938-1.824.305-3.574.98-5.25 2.032-1.668 1.043-3.25 2.375-4.75 4a47.973 47.973 0 00-3.984 4.937 57.965 57.965 0 00-3.032 4.797 99.889 99.889 0 00-1.953 3.656zm0 0"/></symbol><symbol overflow="visible" id="cx"><path d="M14.922-.86c1.164-3.425 2.984-6.89 5.453-10.39 2.477-3.5 5.566-6.953 9.266-10.36 3.687-3.406 7.379-6.203 11.078-8.39 3.707-2.195 7.32-3.738 10.843-4.625 8.57-2.145 15.489-.363 20.75 5.344 5.258 5.71 6.473 12.75 3.641 21.125-1.168 3.437-3 6.914-5.5 10.422-2.492 3.507-5.578 6.968-9.266 10.375-3.699 3.406-7.39 6.195-11.078 8.375-3.68 2.187-7.277 3.718-10.797 4.593-4.23 1.02-8.085 1.082-11.562.188-3.48-.899-6.527-2.762-9.14-5.594-2.618-2.836-4.227-6.023-4.829-9.562-.605-3.543-.226-7.375 1.14-11.5zm21.125-13.78c-.742.687-1.711 1.64-2.906 2.859a55.13 55.13 0 00-3.735 4.219 47.663 47.663 0 00-3.61 5.218c-1.124 1.867-1.96 3.742-2.5 5.64-.53 1.895-.687 3.767-.468 5.61.219 1.844 1.047 3.547 2.485 5.11 1.437 1.562 3.066 2.523 4.89 2.89 1.82.375 3.703.375 5.64 0 1.938-.375 3.88-1.047 5.829-2.015a46.032 46.032 0 005.484-3.188c1.707-1.156 3.219-2.281 4.532-3.375C53 7.242 54.023 6.36 54.766 5.672c.738-.68 1.722-1.649 2.953-2.906a55.399 55.399 0 003.765-4.25 50.514 50.514 0 003.625-5.22c1.145-1.882 1.985-3.773 2.516-5.671.531-1.906.688-3.773.469-5.61-.219-1.843-1.047-3.546-2.485-5.109-1.437-1.562-3.07-2.531-4.89-2.906-1.824-.375-3.703-.367-5.64.016-1.93.375-3.884 1.058-5.86 2.047a47.403 47.403 0 00-5.485 3.187 54.589 54.589 0 00-4.562 3.406 99.114 99.114 0 00-3.125 2.703zm0 0"/></symbol><symbol overflow="visible" id="cy"><path d="M38.344 12.469a842.757 842.757 0 01-4.469 4.281c-.969.926-1.71 1.64-2.219 2.14-.5.5-.945.93-1.328 1.297-.387.364-.996.958-1.828 1.782-.824.82-2.055 2.008-3.688 3.562-1.625 1.563-3.906 3.77-6.843 6.625-.606.563-1.324.77-2.157.625-.824-.148-1.417-.625-1.78-1.437l-1.954-4.36c-.48-1.062-.312-1.996.5-2.797a743.473 743.473 0 013.766-3.656c.906-.855 1.664-1.578 2.281-2.172.625-.586 1.223-1.156 1.797-1.718.57-.563 1.36-1.328 2.36-2.297a954.778 954.778 0 014.062-3.875c1.695-1.617 3.953-3.79 6.765-6.516.395-.492.477-.992.25-1.5A2.335 2.335 0 0032.5 1.188a2.344 2.344 0 00-1.844.062L7.781 11.484a2.327 2.327 0 01-1.843.047 2.384 2.384 0 01-1.36-1.297L2.703 6.031a2.344 2.344 0 01-.062-1.843 2.318 2.318 0 011.265-1.344l62.235-27.86A2.365 2.365 0 0168-25.063a2.36 2.36 0 011.36 1.266L75-11.172c1.395 3.106 1.82 6.11 1.281 9.016-.543 2.894-1.734 5.52-3.578 7.875-1.844 2.351-4.164 4.383-6.953 6.093-2.781 1.708-5.7 2.907-8.75 3.594-3.055.696-6.086.832-9.094.406-3-.43-5.625-1.574-7.875-3.437-.531-.523-1.093-.492-1.687.094zm5.39-17.078c-.625.28-1.058.734-1.297 1.359a2.294 2.294 0 00.047 1.844l1.86 4.14c.707 1.57 1.847 2.649 3.422 3.235 1.582.582 3.312.785 5.187.61 1.883-.18 3.781-.696 5.688-1.548 1.914-.855 3.566-1.918 4.953-3.187C64.988.582 65.992-.82 66.609-2.375c.614-1.563.555-3.156-.171-4.781l-1.86-4.14a2.354 2.354 0 00-1.344-1.267 2.279 2.279 0 00-1.843.063zm0 0"/></symbol><symbol overflow="visible" id="cB"><path d="M33.547-1.438a1.204 1.204 0 00-.594-.75A1.195 1.195 0 0032-2.28l-2.469.734a1.125 1.125 0 00-.734.61 1.263 1.263 0 00-.094.953l1.531 5.125c.114.363.086.695-.078 1-.168.3-.414.5-.734.593l-2.219.672a1.349 1.349 0 01-.984-.093c-.313-.157-.528-.418-.64-.782l-1.532-5.125a1.184 1.184 0 00-.594-.75 1.183 1.183 0 00-.937-.11L3.203 6.329c-.336.102-.652.07-.953-.094a1.183 1.183 0 01-.61-.718L.97 3.25a1.26 1.26 0 01.094-.953 1.22 1.22 0 01.75-.61l33.437-10c.332-.101.648-.07.953.094.313.168.516.418.61.75L40.53 4.938c.094.332.055.644-.11.937-.167.3-.417.504-.75.61l-2.265.671a1.226 1.226 0 01-.937-.093 1.134 1.134 0 01-.594-.735zm0 0"/></symbol><symbol overflow="visible" id="cC"><path d="M8.61 16.313c.331-.25.773-.594 1.328-1.032.562-.43 1.335-1 2.328-1.719.25-.218.425-.468.53-.75a1.012 1.012 0 00-.03-.843l-2.829-6.25a1.152 1.152 0 00-.64-.61 1.597 1.597 0 00-.89-.062A210.88 210.88 0 013.936 6c-.324.04-.624.008-.906-.094a1.054 1.054 0 01-.61-.562l-1-2.219c-.167-.367-.132-.746.11-1.14.25-.4.617-.641 1.11-.735C3.898.988 5.492.656 7.42.25a718.72 718.72 0 016.266-1.281c2.25-.446 4.555-.914 6.922-1.407 2.375-.488 4.63-.957 6.766-1.406 2.133-.457 4.063-.863 5.781-1.219 1.727-.363 3.067-.632 4.016-.812.3-.082.598-.063.89.063.29.125.5.312.626.562l1.265 2.813c.125.273.133.554.031.843-.105.293-.289.532-.547.719C35.739 1.895 32.594 4.27 30 6.25a591.861 591.861 0 01-6.578 4.969 737.876 737.876 0 00-4.313 3.25c-1.086.832-1.953 1.5-2.609 2-.648.5-1.148.879-1.5 1.14-.344.27-.672.52-.984.75-.305.239-.649.5-1.032.782-.375.289-.933.707-1.671 1.25-.399.3-.825.414-1.282.343-.46-.074-.765-.293-.922-.656l-1.015-2.234c-.117-.25-.121-.524-.016-.813.102-.281.281-.523.531-.718zm8.593-8.485c.164.363.473.582.922.656.457.082.89-.03 1.297-.343.758-.594 1.582-1.227 2.469-1.891.894-.668 1.859-1.398 2.89-2.188.301-.218.485-.468.547-.75.063-.28.04-.542-.062-.78a1.16 1.16 0 00-.547-.548c-.25-.136-.559-.171-.922-.109-1.125.227-2.235.453-3.328.672-1.094.226-2.188.453-3.282.672-.492.101-.859.347-1.109.734-.242.395-.277.774-.11 1.14zm0 0"/></symbol><symbol overflow="visible" id="cD"><path d="M20.36 3.484a229.793 229.793 0 00-2.907 3.75c-.219.29-.418.54-.594.75-.168.207-.433.551-.797 1.032a84.73 84.73 0 01-1.593 2.093c-.711.907-1.703 2.188-2.985 3.844-.261.332-.609.492-1.046.485-.43-.012-.766-.211-1.016-.594L8.125 12.78c-.324-.511-.313-.996.031-1.453a345.52 345.52 0 011.656-2.14c.395-.5.723-.922.985-1.266.27-.336.531-.668.781-1 .258-.324.602-.774 1.031-1.344.438-.562 1.024-1.32 1.766-2.266.738-.937 1.723-2.21 2.953-3.812.156-.27.16-.523.016-.766a1.222 1.222 0 00-.797-.546c-.336-.07-.64-.02-.922.156L4.812 5.219a1.24 1.24 0 01-.953.172 1.216 1.216 0 01-.78-.532l-1.267-2a1.22 1.22 0 01-.156-.937c.07-.336.254-.594.547-.781l29.453-18.72c.29-.187.61-.241.953-.171.344.074.602.258.782.547l3.797 5.969c.937 1.468 1.374 2.964 1.312 4.484a9.291 9.291 0 01-1.234 4.266c-.762 1.336-1.782 2.53-3.063 3.593a15.116 15.116 0 01-4.172 2.47c-1.5.581-3.031.878-4.593.89-1.555.008-2.965-.375-4.235-1.157-.312-.218-.594-.164-.844.172zm1.453-9.078a1.196 1.196 0 00-.547.797c-.075.336-.016.649.172.938l1.234 1.953c.476.742 1.133 1.203 1.969 1.39.843.18 1.734.153 2.672-.078.945-.226 1.875-.629 2.78-1.203.907-.57 1.66-1.226 2.266-1.969.602-.75 1.004-1.539 1.203-2.375.196-.832.051-1.632-.437-2.406L31.891-10.5a1.22 1.22 0 00-.782-.547 1.193 1.193 0 00-.937.14zm0 0"/></symbol><symbol overflow="visible" id="cE"><path d="M47.234-3.188c.227.25.317.579.266.985-.043.398-.227.734-.547 1.015L21.328 21.625c-.344.3-.715.445-1.11.438-.386 0-.695-.125-.921-.375l-1.531-1.735c-.23-.25-.325-.57-.282-.953.04-.387.235-.73.578-1.031L30.36 7.016c.258-.23.317-.47.172-.72-.168-.273-.39-.335-.672-.187l-16.375 7.485a1.373 1.373 0 01-.875.14c-.293-.043-.523-.156-.687-.343l-2.25-2.532c-.43-.468-.438-.996-.031-1.578l9.343-15.39c.176-.27.141-.5-.109-.688-.262-.207-.523-.195-.781.031L5.797 4.188c-.344.3-.711.453-1.094.453-.375 0-.68-.125-.906-.375L2.28 2.562a1.165 1.165 0 01-.297-.984c.051-.375.25-.715.594-1.016L28.203-22.25c.32-.281.676-.43 1.063-.453.382-.02.703.11.953.39l1.968 2.204c.188.218.286.48.297.78.008.294-.07.575-.234.845L17.937 5.063c-.125.226-.105.437.063.625.188.207.395.253.625.14l25.031-11.5c.301-.113.594-.156.875-.125a1.1 1.1 0 01.719.36zm0 0"/></symbol><symbol overflow="visible" id="cF"><path d="M12.563-11.5c.218-.25.5-.39.843-.422a1.19 1.19 0 01.906.281l5.829 4.938c.257.219.406.508.437.86a1.14 1.14 0 01-.281.89l-1.531 1.797c-.22.261-.5.406-.844.437a1.228 1.228 0 01-.906-.297l-5.828-4.937a1.198 1.198 0 01-.438-.844 1.19 1.19 0 01.281-.906zm0 0"/></symbol><symbol overflow="visible" id="cG"><path d="M35.39-16.86c-.187.282-.453.462-.796.532a1.242 1.242 0 01-.969-.219l-3.234-2.187a1.28 1.28 0 00-.953-.188 1.11 1.11 0 00-.782.5L11.813 6.484a1.29 1.29 0 01-.797.532c-.336.07-.653 0-.954-.22L8.142 5.5a1.215 1.215 0 01-.532-.797c-.062-.336.004-.64.204-.922l16.843-24.906c.188-.281.242-.586.172-.922a1.163 1.163 0 00-.531-.797l-3.25-2.203a1.184 1.184 0 01-.531-.797c-.063-.343 0-.656.187-.937l1.328-1.953c.188-.29.453-.47.797-.532.344-.07.66-.007.953.188l12.578 8.5c.301.21.485.484.547.828.063.336 0 .648-.187.938zm0 0"/></symbol><symbol overflow="visible" id="cH"><path d="M6.922-3.266c-.106-1.843.098-3.832.61-5.968.519-2.133 1.331-4.364 2.437-6.688 1.113-2.32 2.336-4.36 3.672-6.11 1.343-1.75 2.765-3.171 4.265-4.265 3.676-2.656 7.305-3.125 10.89-1.406 3.595 1.71 5.517 4.828 5.767 9.36.093 1.855-.122 3.855-.641 6-.512 2.136-1.324 4.366-2.438 6.687-1.105 2.324-2.328 4.355-3.672 6.093-1.335 1.75-2.746 3.165-4.234 4.25-1.824 1.29-3.648 2.051-5.469 2.282-1.824.238-3.632-.063-5.422-.907-1.773-.855-3.14-2.07-4.109-3.64-.96-1.563-1.512-3.457-1.656-5.688zm7.406-10.578a44.87 44.87 0 00-.828 1.922c-.324.805-.64 1.711-.953 2.719a26.304 26.304 0 00-.735 3.172 11.967 11.967 0 00-.109 3.172c.113 1 .395 1.918.844 2.75.457.832 1.176 1.484 2.156 1.953.988.468 1.953.617 2.89.453a7.165 7.165 0 002.673-1.078 12.26 12.26 0 002.39-2.078 22.635 22.635 0 002-2.563 27.27 27.27 0 001.5-2.453c.414-.77.735-1.39.953-1.86.22-.456.504-1.1.86-1.937.351-.832.68-1.75.984-2.75.3-1 .54-2.055.719-3.172a11.75 11.75 0 00.125-3.156 7.25 7.25 0 00-.844-2.75c-.46-.844-1.183-1.5-2.172-1.969-.98-.468-1.937-.613-2.875-.437-.93.168-1.82.523-2.672 1.062a11.636 11.636 0 00-2.39 2.078c-.75.844-1.418 1.7-2 2.563a33.224 33.224 0 00-1.532 2.484 39.048 39.048 0 00-.984 1.875zm0 0"/></symbol><symbol overflow="visible" id="cI"><path d="M7.328-15.39c.102-.313.305-.547.61-.704a1.23 1.23 0 01.953-.078l7.25 2.39c.32.106.562.313.718.626.164.312.196.625.094.937l-.75 2.25a1.185 1.185 0 01-.625.719 1.215 1.215 0 01-.953.078l-7.25-2.39a1.173 1.173 0 01-.719-.626 1.213 1.213 0 01-.078-.953zm0 0"/></symbol><symbol overflow="visible" id="cJ"><path d="M15.031-30.016a1.282 1.282 0 00-.953.157c-.281.18-.46.437-.531.78L13-26.561c-.074.335-.023.648.156.937.188.281.453.46.797.531l5.235 1.157c.363.074.64.261.828.562.187.293.242.605.172.938l-.5 2.265a1.241 1.241 0 01-.563.797 1.24 1.24 0 01-.984.188l-5.235-1.157a1.236 1.236 0 00-.953.172c-.281.18-.46.434-.531.766L7.094.28a1.22 1.22 0 01-.547.781 1.193 1.193 0 01-.938.172l-2.296-.5A1.275 1.275 0 012.53.172a1.189 1.189 0 01-.172-.938l7.5-34.093c.07-.332.254-.594.547-.782.29-.187.602-.238.938-.156L24-33.016c.332.075.586.258.766.547.187.282.242.59.172.922l-.516 2.297a1.273 1.273 0 01-.547.813 1.15 1.15 0 01-.922.171zm0 0"/></symbol><symbol overflow="visible" id="cK"><path d="M7.078-.328a1.19 1.19 0 01-.469.812 1.15 1.15 0 01-.906.266L3.36.437a1.19 1.19 0 01-.828-.468 1.221 1.221 0 01-.25-.922l4.531-34.61c.051-.343.211-.617.485-.828.27-.218.578-.304.922-.265l2.344.312c.343.043.613.203.812.485.207.273.285.578.234.922zm0 0"/></symbol><symbol overflow="visible" id="cL"><path d="M22.61-18.063c-.087 2.563-.512 4.981-1.282 7.25-.773 2.274-1.828 4.235-3.172 5.891a14.3 14.3 0 01-4.86 3.86C11.41-.132 9.306.288 6.985.218L3.391.11c-.344-.011-.637-.16-.875-.453a1.59 1.59 0 01-.329-1.047L3.25-35.828c.008-.395.14-.738.39-1.031.258-.29.563-.43.907-.422l3.594.11c2.32.073 4.394.624 6.218 1.655a14.128 14.128 0 014.61 4.157c1.238 1.742 2.172 3.75 2.797 6.03.632 2.274.914 4.696.843 7.267zM8.593-5.608c1.375-.157 2.601-.586 3.687-1.297a9.66 9.66 0 002.735-2.766c.75-1.125 1.32-2.414 1.718-3.875.407-1.457.633-3.015.688-4.672a19.518 19.518 0 00-.39-4.656c-.313-1.488-.81-2.813-1.485-3.969a9.625 9.625 0 00-2.578-2.906c-1.031-.781-2.23-1.29-3.594-1.531-.398-.082-.742.027-1.031.328-.281.293-.43.652-.438 1.078L7.203-7.109c-.012.46.113.836.375 1.125.27.28.61.406 1.016.375zm0 0"/></symbol><symbol overflow="visible" id="cM"><path d="M4.078-6.484c-1.094-1.5-2-3.286-2.719-5.36-.718-2.07-1.242-4.383-1.562-6.937-.32-2.551-.39-4.926-.203-7.125.18-2.196.601-4.16 1.281-5.89 1.656-4.22 4.453-6.579 8.39-7.079 3.946-.488 7.25 1.102 9.907 4.766 1.094 1.511 2 3.308 2.719 5.39.718 2.086 1.238 4.403 1.562 6.953.32 2.555.39 4.922.203 7.11-.18 2.187-.605 4.14-1.281 5.86-.844 2.085-1.969 3.718-3.375 4.905-1.406 1.18-3.09 1.887-5.047 2.125-1.96.25-3.765-.02-5.422-.812-1.656-.8-3.14-2.102-4.453-3.906zm.516-12.907c.062.512.172 1.2.328 2.063.156.867.375 1.805.656 2.812.29 1.012.66 2.032 1.11 3.063.445 1.023.984 1.93 1.609 2.719A7.383 7.383 0 0010.5-6.875c.844.45 1.8.605 2.875.469 1.082-.133 1.969-.524 2.656-1.172a7.254 7.254 0 001.672-2.344c.414-.926.711-1.941.89-3.047.188-1.101.29-2.176.313-3.219.02-1.05-.008-2.015-.078-2.89a43.71 43.71 0 00-.187-2.078c-.075-.5-.188-1.192-.344-2.078a26.613 26.613 0 00-.64-2.844 23.274 23.274 0 00-1.11-3.078c-.45-1.04-.992-1.946-1.625-2.719a7.335 7.335 0 00-2.188-1.86c-.836-.468-1.793-.632-2.875-.5-1.074.137-1.96.532-2.656 1.188a7.372 7.372 0 00-1.672 2.36c-.418.906-.715 1.921-.89 3.046a25.113 25.113 0 00-.313 3.235c-.023 1.043 0 2.015.063 2.922.062.898.129 1.593.203 2.093zm0 0"/></symbol><symbol overflow="visible" id="cN"><path d="M2.469-17.203a1.186 1.186 0 00-.703.64 1.241 1.241 0 00-.032.954L6.141-3.58c.113.325.097.642-.047.954a1.197 1.197 0 01-.688.656l-2.218.797c-.325.125-.641.117-.954-.031a1.174 1.174 0 01-.64-.703l-12-32.782c-.114-.32-.098-.64.047-.953a1.26 1.26 0 01.703-.656l6.64-2.422c1.856-.676 3.586-.734 5.204-.172 1.624.563 3.023 1.508 4.203 2.828 1.187 1.325 2.101 2.883 2.75 4.672.656 1.782.957 3.555.906 5.313-.055 1.762-.516 3.387-1.39 4.875-.876 1.48-2.243 2.558-4.095 3.234zm-5.906-16.188c-.32.118-.555.328-.704.641a1.095 1.095 0 00-.046.938l3.39 9.296c.125.325.344.559.656.703.313.149.63.165.954.047l2.171-.797c.832-.3 1.426-.843 1.782-1.625.351-.78.52-1.656.5-2.625a8.993 8.993 0 00-.594-2.953c-.367-1.007-.844-1.89-1.438-2.64-.593-.758-1.277-1.32-2.046-1.688-.774-.375-1.586-.406-2.454-.093zm0 0"/></symbol><symbol overflow="visible" id="cO"><path d="M-7.531-32.703c-.301.156-.504.398-.61.719-.113.312-.093.625.063.937l1.187 2.297c.157.305.403.508.735.61.324.105.636.078.937-.079l4.766-2.453c.336-.164.66-.195.984-.094.332.106.578.309.735.61l1.062 2.062c.156.305.18.633.078.985a1.17 1.17 0 01-.64.765L-3-23.89c-.3.157-.504.399-.61.72-.113.323-.093.636.063.937L3.438-8.61c.156.304.398.511.734.625.332.105.648.078.953-.079l7.219-3.703c.3-.156.613-.18.937-.078.32.106.563.309.719.61l1.063 2.109c.164.305.195.621.093.953a1.197 1.197 0 01-.61.719L3.017-1.547a1.208 1.208 0 01-.954.078 1.289 1.289 0 01-.734-.625l-15.922-31.062a1.139 1.139 0 01-.062-.938c.105-.332.308-.578.61-.734l11.53-5.906a1.14 1.14 0 01.938-.063c.324.106.562.309.719.61l1.078 2.093c.156.313.18.637.078.969a1.185 1.185 0 01-.61.719zm0 0"/></symbol><symbol overflow="visible" id="cP"><path d="M-2.64-39.11c.199.282.265.594.203.938a1.222 1.222 0 01-.547.813l-3.22 2.203a1.29 1.29 0 00-.53.797c-.07.336-.008.64.187.922L10.391-8.595c.195.281.265.594.203.938-.063.336-.25.605-.563.812L8.125-5.53c-.293.187-.605.25-.938.187a1.204 1.204 0 01-.796-.515l-16.938-24.844a1.204 1.204 0 00-.797-.516 1.227 1.227 0 00-.937.203l-3.25 2.22c-.281.187-.594.25-.938.187a1.227 1.227 0 01-.812-.516l-1.328-1.953a1.232 1.232 0 01-.188-.938c.063-.343.235-.609.516-.797l12.547-8.562a1.22 1.22 0 01.968-.203c.344.062.61.234.797.516zm0 0"/></symbol><symbol overflow="visible" id="cQ"><path d="M-17.61-28.594c-.238.25-.359.547-.359.89 0 .345.125.638.375.876l1.844 1.781c.25.242.547.36.89.36.344 0 .637-.125.876-.375l3.734-3.844c.262-.27.563-.41.906-.422.344-.008.64.105.89.344l1.657 1.609c.25.242.387.543.406.906.012.356-.113.668-.375.938l-3.734 3.843c-.238.25-.36.547-.36.891 0 .336.122.621.36.86L3.969-5.892c.238.243.363.532.375.875.008.344-.106.641-.344.891L2.36-2.437c-.243.25-.54.382-.891.39-.344 0-.637-.117-.875-.36l-25.047-24.327a1.194 1.194 0 01-.36-.875c-.007-.344.106-.641.344-.891l9.032-9.281a1.17 1.17 0 01.874-.375c.344-.008.637.105.876.343l1.703 1.657c.242.242.367.531.375.875a1.15 1.15 0 01-.344.875zm0 0"/></symbol><symbol overflow="visible" id="cR"><path d="M-1.953-7.406c-1.832-.227-3.75-.785-5.75-1.672-2-.895-4.04-2.102-6.125-3.625-2.082-1.508-3.863-3.082-5.344-4.719-1.488-1.644-2.629-3.3-3.422-4.969-1.937-4.101-1.738-7.757.594-10.968 2.336-3.22 5.75-4.536 10.25-3.953 1.836.23 3.762.796 5.781 1.703 2.012.898 4.059 2.101 6.14 3.609 2.083 1.523 3.86 3.102 5.329 4.734 1.469 1.625 2.598 3.274 3.39 4.938.938 2.031 1.36 3.965 1.266 5.797-.094 1.836-.726 3.554-1.89 5.156-1.157 1.594-2.594 2.727-4.313 3.39-1.719.657-3.687.852-5.906.579zm-9.031-9.219c.418.305.992.695 1.718 1.172.73.48 1.563.965 2.5 1.453.938.48 1.934.906 2.985 1.281 1.054.375 2.086.606 3.094.688a7.388 7.388 0 002.859-.328c.906-.301 1.676-.891 2.312-1.766.645-.883.97-1.8.97-2.75a7.023 7.023 0 00-.579-2.828 11.821 11.821 0 00-1.61-2.735 21.98 21.98 0 00-2.156-2.421 31.196 31.196 0 00-2.14-1.938 40.288 40.288 0 00-1.64-1.281c-.415-.29-1-.68-1.75-1.172-.759-.5-1.599-.988-2.516-1.469a25.798 25.798 0 00-2.985-1.297c-1.07-.382-2.11-.613-3.11-.687-1-.082-1.945.027-2.843.328-.906.305-1.68.898-2.328 1.781-.633.875-.953 1.79-.953 2.735-.008.949.18 1.89.562 2.828.375.93.914 1.84 1.61 2.734.699.899 1.418 1.711 2.156 2.438.742.73 1.465 1.382 2.172 1.953.699.562 1.258.992 1.672 1.281zm0 0"/></symbol><symbol overflow="visible" id="cS"><path d="M-3.156-6.969C-5-6.906-6.984-7.145-9.11-7.687c-2.125-.54-4.344-1.38-6.657-2.516-2.3-1.145-4.316-2.399-6.046-3.766-1.739-1.375-3.141-2.82-4.204-4.344-2.601-3.707-3.02-7.335-1.25-10.89 1.762-3.57 4.907-5.453 9.438-5.64 1.855-.063 3.855.183 6 .734 2.137.554 4.355 1.402 6.656 2.547 2.313 1.136 4.328 2.386 6.047 3.75 1.719 1.355 3.102 2.792 4.156 4.312 1.27 1.844 2.008 3.68 2.219 5.5.207 1.824-.125 3.625-1 5.406-.875 1.762-2.105 3.117-3.688 4.063-1.585.937-3.488 1.46-5.718 1.562zM-13.61-14.53c.46.219 1.093.5 1.906.844A34.83 34.83 0 00-9-12.672c1 .324 2.047.586 3.14.781a12.05 12.05 0 003.157.141 7.475 7.475 0 002.781-.797c.844-.445 1.504-1.156 1.984-2.125.477-.976.641-1.937.485-2.875A7.245 7.245 0 001.5-20.234a11.514 11.514 0 00-2.016-2.422 23.901 23.901 0 00-2.53-2.047 30.581 30.581 0 00-2.438-1.547c-.77-.426-1.383-.75-1.844-.969a54.74 54.74 0 00-1.922-.89 27.425 27.425 0 00-2.734-1.016c-.989-.32-2.04-.582-3.157-.781a11.154 11.154 0 00-3.171-.157c-1 .094-1.922.368-2.766.813-.844.438-1.504 1.148-1.985 2.125-.476.969-.64 1.922-.484 2.86.156.937.5 1.835 1.031 2.687.524.855 1.203 1.668 2.047 2.437.836.762 1.68 1.438 2.532 2.032.855.593 1.68 1.117 2.468 1.562.781.45 1.403.79 1.86 1.016zm0 0"/></symbol><symbol overflow="visible" id="cT"><path d="M-11.297-26.64c2.461.773 4.68 1.835 6.656 3.187 1.98 1.355 3.579 2.902 4.797 4.64a14.518 14.518 0 012.406 5.72c.383 2.073.227 4.218-.468 6.437L1.016-3.234c-.106.324-.329.562-.672.718-.344.149-.707.157-1.094.032l-32.875-10.313a1.543 1.543 0 01-.875-.656c-.219-.332-.273-.66-.172-.985l1.078-3.421c.7-2.22 1.79-4.067 3.266-5.547a13.863 13.863 0 015.25-3.313c2.012-.726 4.2-1.086 6.562-1.078 2.356 0 4.762.387 7.22 1.156zm8.203 16.859c.23-1.364.149-2.66-.25-3.89a9.72 9.72 0 00-1.906-3.392c-.883-1.03-1.973-1.937-3.266-2.718-1.289-.782-2.734-1.422-4.328-1.922a19.235 19.235 0 00-4.594-.875c-1.519-.102-2.93.015-4.234.36-1.3.343-2.46.913-3.484 1.702-1.02.782-1.832 1.797-2.438 3.047-.176.356-.16.715.047 1.078.2.356.5.594.906.72l21.75 6.827c.43.137.82.117 1.172-.062.356-.188.563-.477.625-.875zm0 0"/></symbol><filter id="a" filterUnits="objectBoundingBox" x="0%" y="0%" width="100%" height="100%"><feColorMatrix in="SourceGraphic" values="0 0 0 0 1 0 0 0 0 1 0 0 0 0 1 0 0 0 1 0"/></filter><mask id="cA"><g filter="url(#a)"><path fill-opacity=".988" d="M0 0h1012.5v487.5H0z"/></g></mask><g id="cz" clip-path="url(#b)"><g clip-path="url(#c)"><g clip-path="url(#d)"><g clip-path="url(#e)"><path d="M143.918 50.328l.219-.113-.168-.13zm-7.27 12.719c-.183.016-.453-.031-.539.074-.5.57.84 1.445.828.988-.003-.433.024-.812-.289-1.062zm-5.363 8.117c-.472.606-1.148 1.207-.254 1.688.223.117.649.171.813.039.562-.45-.051-.29-.559-1.727zM88.156 89.301c.297-.547.664-1.117.793-1.856.168-.949-1.594-1.562-1.515-.086.03.653-.305 1.454.722 1.942zm71.528 27.02c1.183-1.981 2.039-2.926.953-3.825-.778.055-7.094 1.55-7.672 2.524-.578.968-1.5 1.394-2.434 1.742-.457 1.32.688 2.593-1.484 5.898-.52.781-.684 1.832-1.461 2.535-3.746 3.407-.95 6.442-4 7.196-2.035-2.692-4.856-5.168.133-9.106-.887-2.347 1.043-3.543 2.133-5.023-2.762-3.957-6.739-3.578-8.141-7.246-.426-1.11-1.832-1.121-1.445-2.508.82-2.985-2.86-.953-3.754-5.399-1.055-5.191-7.164-9.984-7.989-5.945-.164.805-.18 1.727-.585 2.395-2.118 3.472-.325 2.527-2.266 5.785-2.137-1.688-1.05-1.29-3.973-1.64l-2.105 3.136c.164 4.117.183 2.82-.34 4.734-.613.207-.879-.02-1.012-.492-2.285-8.383-2.215-5.867-.492-11.223-1.516-2.379-1.457-3.246 1.746-2.851.375 1.176.469 2.031 1.02 2.05.601.028.933-1.316.82-1.753-1.395-5.48 1.031-4.196-2.27-6.215-2.324.441-2.433 2.582-3.765 4.148-.04.047-.196 0-.293 0-.836-1.11-.684-2.84-2.344-3.629-1.969 1.36-1.238.817-2.766 2.106-1.855-1.172-2.8-2.469-4.605-1.238-1.176.796-3.711-.637-3.336 1.585.352 2.122.352 2.122-.117 3.829.7.418.996-.805 1.933-.52 1.422.434 2.11 2.77 2.149 3.54.05 1.038 1.496 1.062 1.11 1.847-.462.898-4.325-1.164-2.66-2.27.296-.203-.216-.87-.517-.73-1.675.82-3.66.531-5.308 1.515-1.942 1.157-1.453-1.113-5.016.817-2.457 1.324-.336 7.039 5.48 6.722 2.821-.148 1.141-1.308 5.212-1.753.797-.086 1.343.605.394 1.293-1.262.902-2.719 1.449-3.976 2.41-.829.625-2.028 1.058-3.246.52-.993-.438-1.528.402-2.754 1.597l-1.207-1.43c-2.543.899-1.579.574-3.746 1.219-2.473 5.742 3.03 3.21 3.585 6.34.887 4.918 3.856 2.36 6.407 4.316-3.852 2.758-2.93 1.75-4.516 2.813-.793.523-2.746 2.918-5.113 2.375-1.793-.41-3.164.66-4.281 2.05-.762-.085-1.473-.171-2.266-.261-.188-.746-.36-1.45-.524-2.153-.789-3.289-6.28-1.695-6.656-1.199-.754 1.012-1.804 1.364-2.969 1.543-4.835.738-2.16 3.492-9.363 4.555-.926-1.219-1.855-2.434-2.816-3.688.355-.71.676-1.347.969-1.925-1.102-2.43-4.387-2.344-7.422-2.77-1.051-4.648-2.223-1.266-2.993-5.305-.335-1.761-1.16-1.117-.937-3.125.398-3.59-3.531-1.625-2.738-4.273.789-2.68-.008-1.797.441-4.883.234-1.562-.062-3.004-1.02-4.285.305-.707.137-1.844 1.266-1.871 1.383-.031 3.031 4.691 2.727 6.223-.098.539 1.062 3.843 1.496 4.34.867.972 1.27 2.144 1.62 3.343.935 3.211 3.231 5.524 5.231 8.031 3.848 1.305-1.382 2.18 6.637 3.211 1.125-2.57.57-1.554 2.063-3.777-.524-.844-1.063-1.723-1.664-2.691-.497-.184-1.063-.473-1.672-.598-6.414-1.317-9.477-10.363-9.688-13.695-.027-.407-.199-.965 0-1.215.89-1.145.57-2.61 1.113-3.79.684-1.484.836-2.992.754-4.624-.433-.399-.882-.805-1.289-1.176-.273-1.836 1.18-2.34 2.375-3.203-1.562-1.989.032-3.34.121-4.895.149-2.62 1.23-1.734 1.989-4.46 1.215-4.407 6.918-5.602 7.668-6.16 4.668-3.516 7.367-.184 7.937-2.75-.37-.977-1.406-1.099-2.32-1.641.137-.497.129-1.137.43-1.38.566-.453 1.386-.703 2.058-.296 2.3 1.379 4.824 2.48 6.344 4.906.644 1.02 1.594 1.617 2.848 1.676 1.832.086.261-1.86 1.18-3.024 1.007-1.27.562-2.73.366-4.101-.191-1.39-.277-1.383 1.375-2.34.875 1.383 1.762 2.77 2.63 4.16.581.942-.805 1.781 2.105 3.918 1.015.746 1.926 1.57 2.699 2.59.875 1.148 2.531 1.266 3.45 2.57 3.933 5.582 7.382 1.715 5.288-1.23-.492-.688-1.035-.063-3.07-4.633-1.04-2.36.457-3.879-.527-7.988-.598-2.512-.243-5.153.226-7.711 1.094-1.637 1.41-3.696 3.016-5.078 1.969-1.692 2.926-6.164 3.703-7.13 2.887-3.57 3.434-6.784 5.89-7.929 1.688-.777 1.93-2.86 5.063-4.09 4.457-1.754 4.824-4.785 10.703-4.383 2.938.2 7.567 1.004 8.887 3.633.824 1.649 4.34 1.88 5.633 12.078-.692 2.11.34 4.39-.633 6.492-.535 1.176 2.664 1.243 2.488-1.214-.203-2.875-.789-2.418.828-4.57-.863-1.708-.687-1.188-.68-1.926.712-.633 1.528-1.426 2.419-2.122.632-.488 1.437.399 1.488 1.102.41 5.578.45 4.781-2.137 8.633.48.86.926 1.652 1.43 2.543l-2.492 3.125c.148.386.355.941.578 1.523-.992 2.211-1.59 4.32-2.766 3.457-.926-.683-.613-1.125 0-4.234-.683-.91-1.383-1.402-2.586-.813.399.684.762 1.293 1.121 1.91-.382 1.274-.863 2.5-.402 3.915.664 2.046-3.145 1.804-1.598 3.98.582.809 1.688 1.508 1.364 2.621-.746 2.606-2.938-1.164-3.93-2.36-1.363-1.644-3.883 1.536-1.695 3.282 2.847 2.273 4.218.36 5.8 2.98-2.968 1.676-1.746 1.094-4.652 2.13.27.835.527 1.62.852 2.617-1.954 3.28-2.07 2.949-1.52 5.527-.668.473-1.34.937-2.137 1.496.922 1.723.844 4.047 3.496 4.336.59-1.23.45-.934.711-1.426.797-.512 2.356 1.387 2.953-.312.602-1.739 3.848-8.45 5.489-10.559-.68-1.273-.617-2.703-.297-4.164.082-.387.422-3.574.469-3.695 6.492-17.203 2.816-15.29 13.843-21.907 4.004-2.402 5.477-1.476 7.399-2.148 1.137 1.059 2.254 1.996 3.234 3.047 2.125 2.27 1.446 3.508 3.426 4.68 2.254 1.343-.742 4.004 1.957 4.879 1.938.632 1.95.617 3.203 2.03-.355 2.915-.21.919 2.113 8.626 2.672 8.867-1.66 21.449-3.765 24.035-.055 1.758-1.836 2.453-2.414 3.898-.14.356-.715.543-.848.895-1.125 2.988-3.371 2.871-4.355 4.219-1.618 2.222-2.54.097-5.813 3.964-.86 1.008.875 1.946 1.656 1.891 5.621-.39-1.453.961 9.63-1.469.445-.656.995-1.48 1.59-2.363-.157-.312-.345-.68-.524-1.039.965-2.277 4.855-4.902 5.472-5.234 2.688-1.454 2.883-3.66 6.239-4.672 1 3.562 2.183 1.312 1.718 4.36-.507.78-1.64.62-2.218 1.538-.938 1.496-1.067 1.41-3.184 1.367-2.5 3.153-5.004 1.32-5.75 4.59-.066.305-.293.7-.176.903 1.32 2.234-1.82 4.906-1.37 6.277.128.39-.134.469-.438.582-1.668.625-1.368 1.91-3.125.926-.528-.297-1.04-.64-1.711-1.063-.617 1.239-1.157 2.317-1.645 3.301-.8.34-.41-.07-2.398-1.406-.762.027-3.399 4.41-6.168 1.668l.008.058" fill="#f2cc59"/></g></g></g><g clip-path="url(#f)"><g clip-path="url(#g)"><g clip-path="url(#h)"><path d="M38.254 166.523c1.27.864 1.234-.855 2.828.329-.559 1.097-.504.71.055 1.46.437-.449 1.093-1.035-.157-1.433 1.293-2.191.2-1.184-1.074-6.73-3.707-2.493-3.129-2.356-6.011-2.692-1.051-.125-.97-.39-1.07-.605.171-.18.323-.485.558-.575 10.988-4.191 2.984-2.765 12.262-3.793 3.414-.375 3.046-1.464 6.105-2.859 1.352-.617 1.531-.059 5.133.613 2.949.551 3.144-1.043 5.125-2.261 3.297-2.02 1.289-4.618 5.793-6.114 6.05-2.015 5.195-2.23 4.883-5.008-1.004-.664-1.082.942-2.02.418-.398-.218-1.144.172-1.73.293-1.235-.925-1.836-2.074-1.59-3.691.074-.523-.364-1.117-.555-1.648 3.047-2.504 4.852.863 7.711-1.34 1.027.035 2.063.074 3.258.113-.008 2.574.555 4.816-2.36 5.555-.453.113-.859.601-.335 1.37.984-.55 3.242-1.738 4.101-1.929 2.89-.633 3.527-4.348 9.926-4.586 1.535-.062 3.082.399 4.613.461 1.54.07 3.098-.25 4.656-.059.313.036.676-.03.926.106 2.043 1.098 4.371 1.164 6.52 1.863 3.054.989 3.023 2.399 4.023 3.285 1.094.961 2.559 1.668 3.266 2.848 5.273 8.746 2.71 11.914 5.422 15.82.226.332-.2.856-.649.762-.445-.094-.87-.32-1.273-.484-.739.687.027 1.218.191 1.695.977 2.79.496 1.707 1.426 8.945.344-.511-1.938 2.024-1.742 5.668.07 1.348.14 2.711-.633 3.95-.152.25-.227.64-.145.906.325 1.074-.175 2.058-.222 3.086-.067 1.425-.809 2.32-2.07 3 .472.652 1.206 1.234 1.331 1.925.172.958.997 1.313 1.43 2.235-.176.527-.398 1.195-.62 1.879.288.422.577.84.792 1.137-.105 1.351-.207 2.582-.305 3.808-5.64 4.582-3.375 1.246-6.023 4.582-.762.961-1.555.094-2.02-.324-.328-.297-.332-.29-1.418-.145-.16-.453-.16-.172-.156-1.199-2.242-.437-1.406-.25-3.2-.75l-1.847 1.586c-1.148-.293-2.508.176-3.777-.488-.156-.078-.453-.074-.594.027-1.89 1.344-5.07-.515-6.316.84-.156.172-.617.215-.871.133-2.54-.88-6.446-.094-10.11-2.664-4.582-3.207-6.898-.824-16.652-11.156-5.512-5.833-2.27-3.348-5.441-7.864-1.563-2.219-2.383-.465-4.403-1.887-3.886-2.75-4.59-2.902-5.754-2.894-.41.012-.922.05-1.215-.16-1.566-1.125-3.609-.832-5.226-1.797-.328-.191-.797-.16-1.219-.238-.254-.594-.46-1.168-.726-1.723-.262-.531-.938-.883-.7-1.629l-.105.027" fill="#f2cc59"/></g></g></g><g clip-path="url(#i)"><g clip-path="url(#j)"><g clip-path="url(#k)"><path d="M142.621 162.414c.863-4.93-2.734-7.875-3.664-10.195-.91-2.27-2.672-12.106 3.547-17.27 2.527-2.101 4.324-2.71 6.02-5.34 1.5-2.336 6.437-3.347 9.046-1.62 1.059.702 2.27.616 3.332.464 1.922-.277 3.715.336 5.563.438 1.707.082 2.781 2.691 6.836 2.27 2.304 2.651 2.75 2.991 2.562 3.624-.375 1.262 1.067 2.238.715 3.211-.734 2.04-.078 3.356 1.137 7.555-.531 1.351-1.778 1.144-3.57 7.074-1.266 4.207-10.563 11.973-17.442 13.52-2.871.644-2.297-.293-6.473.203-1.937.226-2.242-.328-7.609-3.934" fill="#f2cc59"/></g></g></g><g clip-path="url(#l)"><g clip-path="url(#m)"><g clip-path="url(#n)"><path d="M136.25 160.766c1.277 4.289 1.043 2.785 1.766 4.828.496 1.422-1.38 2.55-1.536 1.699-.5-2.762-2.355-2.113-6.52-5.77.872-.835 2.04-1.53 1.83-3.136-.43-.563-.923-1.223-1.438-1.903-4.797-1.359-.91-.136-7.067.297-.316-.886-.402-1.441.403-2.226 1.332-1.301 2.734-2.453 4.324-3.328.058-3.364.75-2.875-2.457-7.235.468-.804 1.293-.937 2.086-1.172 1.273-.379 1.074-1.468 1.21-4.328 5.665-.222 2.09.434 6.426 3.656 3.352 2.489-2.496 3.774-.89 9.036.23.761-1.258 2.199.265 3.824 1.524 1.629.668 3.472 2.618 4 .222.058.488.426.507.664.036.516-.406.613-.832.691-.187.04-.355.203-.695.403" fill="#f2cc59"/></g></g></g><g clip-path="url(#o)"><g clip-path="url(#p)"><g clip-path="url(#q)"><path d="M133.457 133.383c.785-.461 1.406-.828 2.055-1.211 1.086.133 1.8.922 2.605 1.535.32 1.383 1.332 2.606.801 4.227-1.856-.079-2.867-1.7-5.207-1.563-.774.047-5.422-4.238-4.188-4.375.801-.09.696-.039 3.934 1.387" fill="#f2cc59"/></g></g></g><g clip-path="url(#r)"><g clip-path="url(#s)"><g clip-path="url(#t)"><path d="M161.023 168.383c.602-1.867 2.72-1.57 3.497-3.102 5.398 2.574.238 2.68.222 5.211 0 .684-1.23.914-1.695.363-.652-.765-1.274-1.55-2.024-2.472" fill="#f2cc59"/></g></g></g><g clip-path="url(#u)"><g clip-path="url(#v)"><g clip-path="url(#w)"><path d="M154.531 168.902c2.707.926 2.309 1.192 2.438 4.899-.461.5-.942 1.02-1.348 1.472-1.09.043-1.246-.625-2.754-3.453.219-1.066.348-2.34 1.727-2.933l-.063.015" fill="#f2cc59"/></g></g></g><g clip-path="url(#x)"><g clip-path="url(#y)"><g clip-path="url(#z)"><path d="M151.32 170.938c.88 2.023-.257 3.082-.636 4.19-.145.435.066.962-.204 1.505-1.69-1.133-.855-1.54-2.3-2.957-1.18-1.172-.957-4.844.742-4.008.832.414 1.637.863 2.398 1.27" fill="#f2cc59"/></g></g></g><g clip-path="url(#A)"><g clip-path="url(#B)"><g clip-path="url(#C)"><path d="M52.285 125.98c.219 1.25.52 2.532-.496 3.82-.66-.167-3.672-.472-2.383-2.476.649-1 1.375-1.847 2.88-1.344" fill="#f2cc59"/></g></g></g><g clip-path="url(#D)"><g clip-path="url(#E)"><g clip-path="url(#F)"><path d="M103.535 204.363c.613-1.449 1.637-2.144 3.164-2.05 1.617 1.503-.719 3.742-1.836 4.128-.562-.035-.242-.793-.558-1.125-.266-.293-.5-.613-.77-.953" fill="#f2cc59"/></g></g></g><g clip-path="url(#G)"><g clip-path="url(#H)"><g clip-path="url(#I)"><path d="M115.027 133.234c-.664 1.418 1.317 2.403 1.621 5.348-1.16.742-.195-1.324-1.82-1.5-.168-.023-.457-.195-.457-.293.024-1.309-1.226-1.793-1.894-2.726 1.093-1.024 1.582-1.797 2.593-.72l-.043-.109" fill="#f2cc59"/></g></g></g><g clip-path="url(#J)"><g clip-path="url(#K)"><g clip-path="url(#L)"><path d="M109.008 112.7c-.442-.536-.887-1.063-1.301-1.563-.496.086-.98.16-1.457.238l.023.098c.895-3.778.489-3.496 2.27-3.801.832 1.539.934 3.223.852 4.95a3.39 3.39 0 01-.387.077" fill="#f2cc59"/></g></g></g><g clip-path="url(#M)"><g clip-path="url(#N)"><g clip-path="url(#O)"><path d="M138.566 130.855c-2.507-1.707-3.933-2.496-3.64-3.042.492-.903 1.293-.88 2.34-.618.632.164.84.86 1.46 3.157.036.136-.152.347-.234.52l.074-.017" fill="#f2cc59"/></g></g></g><g clip-path="url(#P)"><g clip-path="url(#Q)"><g clip-path="url(#R)"><path d="M102.629 117.156c.68-.261 1.062-.406 1.476-.558.868-1.133-1.335-1.993 1.91-2.93-.359 2.465-.277 1.41-.316 3.894-.941.43-1.875.555-3.07-.406" fill="#f2cc59"/></g></g></g><g clip-path="url(#S)"><g clip-path="url(#T)"><g clip-path="url(#U)"><path d="M100.844 122.652c1.086 1.614-.86 1.961-2.887 2.77-.96-.649-.945-2.402.566-2.664.778-.137 1.594-.078 2.32-.106" fill="#f2cc59"/></g></g></g><g clip-path="url(#V)"><g clip-path="url(#W)"><g clip-path="url(#X)"><path d="M47.54 77.71c2.784.286 2.019 2.946.831 2.907-2.293-.07-1.066-2.262-.832-2.906" fill="#f2cc59"/></g></g></g><g clip-path="url(#Y)"><g clip-path="url(#Z)"><g clip-path="url(#aa)"><path d="M94.25 114.367c-.75.301-1.5.606-2.254.918-.543-.734-.527-1.488-.125-2.265 1.953-.102 1.953-.11 2.379 1.347" fill="#f2cc59"/></g></g></g><g clip-path="url(#ab)"><g clip-path="url(#ac)"><g clip-path="url(#ad)"><path d="M126.988 163.492c-.355 1.176-.82 1.89-1.687 2.34-.903-.836-.121-1.648-.215-2.637.703.106 1.184.18 1.902.297" fill="#f2cc59"/></g></g></g><g clip-path="url(#ae)"><g clip-path="url(#af)"><g clip-path="url(#ag)"><path d="M171.5 166.066c-.5.586-.664.97-.867.993-1.953.242-2.91-2.106-2.04-1.875.856.234 1.692.507 2.907.882" fill="#f2cc59"/></g></g></g><g clip-path="url(#ah)"><g clip-path="url(#ai)"><g clip-path="url(#aj)"><path d="M143.477 169.445l1.722.618c-.199.789-.375 1.464-.578 2.257-.988-.386-.734.325-1.144-2.875" fill="#f2cc59"/></g></g></g><g clip-path="url(#ak)"><g clip-path="url(#al)"><g clip-path="url(#am)"><path d="M123.293 150.918c-.035-.32-.148-.566-.066-.691.636-.97 2.93-1.399 2.574.445-.813.078-1.66.16-2.508.246" fill="#f2cc59"/></g></g></g><g clip-path="url(#an)"><g clip-path="url(#ao)"><g clip-path="url(#ap)"><path d="M126.582 121.219c-.09-.86-.152-1.457-.2-2.004.626-.555 1.188-.656 1.567.078.371.723.11 1.09-1.367 1.926" fill="#f2cc59"/></g></g></g><g clip-path="url(#aq)"><g clip-path="url(#ar)"><g clip-path="url(#as)"><path d="M115.07 133.344c-.054-.395-.105-.79-.156-1.176 1.14.344 1.14.344 2.168 1.238-.805.457-.234.57-2.055-.172l.043.11" fill="#f2cc59"/></g></g></g><g clip-path="url(#at)"><g clip-path="url(#au)"><g clip-path="url(#av)"><path d="M109.395 112.621c.78.598.734 1.442.582 2.266-.036.21-.403.367-.696.61-.191-1.005-.781-1.84-.273-2.798a3.39 3.39 0 00.387-.078" fill="#f2cc59"/></g></g></g><g clip-path="url(#aw)"><g clip-path="url(#ax)"><g clip-path="url(#ay)"><path d="M184.691 88.918c-.062-.164-.242-.406-.183-.508.262-.414.562-.8.918-1.133.066-.062.597.164.64.332.215.797-.64 1.801-1.375 1.309" fill="#f2cc59"/></g></g></g><g clip-path="url(#az)"><g clip-path="url(#aA)"><g clip-path="url(#aB)"><path d="M135.73 113.332c-.449 1.129-.859 1.996-2.203 2.117.098-1.445 1.02-1.777 2.203-2.117" fill="#f2cc59"/></g></g></g><g clip-path="url(#aC)"><g clip-path="url(#aD)"><g clip-path="url(#aE)"><path d="M115.371 141.844c.285-.422.57-.852.957-1.426.578.305 1.09.586 1.707.918-.629.363.031.266-2.68.406l.016.102" fill="#f2cc59"/></g></g></g><g clip-path="url(#aF)"><g clip-path="url(#aG)"><g clip-path="url(#aH)"><path d="M150.813 38.941c.003.829.238 1.657-.872 1.223-.359-.144-.445-.855-.136-1.059.199-.14.53-.101 1.007-.164" fill="#f2cc59"/></g></g></g><g clip-path="url(#aI)"><g clip-path="url(#aJ)"><g clip-path="url(#aK)"><path d="M122.516 153.082c-.75.543-1.274.2-1.739-.422.961-.426.961-.426 1.739.422" fill="#f2cc59"/></g></g></g><g clip-path="url(#aL)"><g clip-path="url(#aM)"><g clip-path="url(#aN)"><path d="M147.156 175.586c-.492.414-1.664.73-1.242-.352.672-1.664 1.941-.226 1.242.352" fill="#f2cc59"/></g></g></g><g clip-path="url(#aO)"><g clip-path="url(#aP)"><g clip-path="url(#aQ)"><path d="M178.98 159.55c1.41 1.212 1.098.852 1.239 1.282-.598.89-2.14-.187-1.14-1.32l-.099.039" fill="#f2cc59"/></g></g></g><g clip-path="url(#aR)"><g clip-path="url(#aS)"><g clip-path="url(#aT)"><path d="M141.348 167.906c-.09 1.078-.868 1.078-1.72 1.266.325-.977.962-1.184 1.72-1.266" fill="#f2cc59"/></g></g></g><g clip-path="url(#aU)"><g clip-path="url(#aV)"><g clip-path="url(#aW)"><path d="M46.836 86.988c.203 1.207.379.91-.648 1.153-.208-.993-.34-.68.648-1.153" fill="#f2cc59"/></g></g></g><g clip-path="url(#aX)"><g clip-path="url(#aY)"><g clip-path="url(#aZ)"><path d="M180.04 110.773c-.825.446-.696.536-1.142-.003-.14-.176.278-.727 1.332-.657-.062.188-.109.383-.19.66" fill="#f2cc59"/></g></g></g><g clip-path="url(#ba)"><g clip-path="url(#bb)"><g clip-path="url(#bc)"><path d="M179.078 159.512c-.476-.067-.965-.133-1.453-.203.008-.801.582-.832.969-.727.203.05.261.633.386.969l.098-.04" fill="#f2cc59"/></g></g></g><g clip-path="url(#bd)"><g clip-path="url(#be)"><g clip-path="url(#bf)"><path d="M109.645 208.926c-1.243.27-.895.398-1.243-.54 1.04-.37.696-.44 1.243.54" fill="#f2cc59"/></g></g></g><g clip-path="url(#bg)"><g clip-path="url(#bh)"><g clip-path="url(#bi)"><path d="M175.918 161.36c-.227.011-.371.019-.523.03.003-.242-.008-.476.027-.706 0-.04.246-.09.246-.079.094.239.168.489.25.754" fill="#f2cc59"/></g></g></g><g clip-path="url(#bj)"><g clip-path="url(#bk)"><g clip-path="url(#bl)"><path d="M118.723 146.398c-.106.25-.203.47-.293.688-.532-.242-.47-.004-.403-.797l.696.11" fill="#f2cc59"/></g></g></g><g clip-path="url(#bm)"><g clip-path="url(#bn)"><g clip-path="url(#bo)"><path d="M120.55 160.508c-.222-.102-.437-.207-.648-.305.25-.324.313-.61.797-.176.04.036-.078.258-.148.48" fill="#f2cc59"/></g></g></g><g clip-path="url(#bp)"><g clip-path="url(#bq)"><g clip-path="url(#br)"><path d="M136.633 170.969c.312.683.445.472-.43.976-.129-.414-.215-.129.43-.976" fill="#f2cc59"/></g></g></g><g clip-path="url(#bs)"><g clip-path="url(#bt)"><g clip-path="url(#bu)"><path d="M172.832 167.148c-.68-.27-.527-.093-.465-.73.543.21.457 0 .465.73" fill="#f2cc59"/></g></g></g><g clip-path="url(#bv)"><g clip-path="url(#bw)"><g clip-path="url(#bx)"><path d="M142.012 178.594c-.293-.621-.305-.399.129-.836.132.523.187.281-.223.855l.094-.02" fill="#f2cc59"/></g></g></g><g clip-path="url(#by)"><g clip-path="url(#bz)"><g clip-path="url(#bA)"><path d="M139.652 171.715c-.148.086-.3.164-.445.25-.047-.246-.227-.195.426-.535.008.097.012.187.02.285" fill="#f2cc59"/></g></g></g><g clip-path="url(#bB)"><g clip-path="url(#bC)"><g clip-path="url(#bD)"><path d="M152.203 175.273c-.14.633-.144.493-.379.5.16-.66.16-.492.38-.5" fill="#f2cc59"/></g></g></g><g clip-path="url(#bE)"><g clip-path="url(#bF)"><g clip-path="url(#bG)"><path d="M175.094 56.586c-.27-.035-.242.066-.235-.32.301.152.223.082.235.32" fill="#f2cc59"/></g></g></g><g clip-path="url(#bH)"><g clip-path="url(#bI)"><g clip-path="url(#bJ)"><path d="M159.676 116.262c-.149.039-.293.07-.438.113.207-.195.086-.21.446-.055l-.008-.058" fill="#f2cc59"/></g></g></g><g clip-path="url(#bK)"><g clip-path="url(#bL)"><g clip-path="url(#bM)"><path d="M187.969 80.844c.039.062.086.125.129.187-.004-.07-.012-.14-.016-.207l-.113.02" fill="#f2cc59"/></g></g></g><g clip-path="url(#bN)"><g clip-path="url(#bO)"><g clip-path="url(#bP)"><path d="M188.082 80.824l-.086-.433c.094.187.145.078-.027.453l.113-.02" fill="#f2cc59"/></g></g></g><g clip-path="url(#bQ)"><g clip-path="url(#bR)"><g clip-path="url(#bS)"><path d="M141.918 178.613c.059.07.105.145.164.215a3.334 3.334 0 01-.07-.234l-.094.02" fill="#f2cc59"/></g></g></g><g clip-path="url(#bT)"><g clip-path="url(#bU)"><g clip-path="url(#bV)"><path d="M152.574 177.438c.047.078.09.156.137.238-.02-.086-.031-.176-.047-.262l-.09.024" fill="#f2cc59"/></g></g></g><g clip-path="url(#bW)"><g clip-path="url(#bX)"><g clip-path="url(#bY)"><path d="M138.8 168.55c-.331.032-.257.095-.288-.234.328-.03.25-.093.289.235" fill="#f2cc59"/></g></g></g><g clip-path="url(#bZ)"><g clip-path="url(#ca)"><g clip-path="url(#cb)"><path d="M154.594 168.887c-.035-.121-.063-.246-.094-.371.148.187.121.12.031.386l.063-.015" fill="#f2cc59"/></g></g></g><g clip-path="url(#cc)"><g clip-path="url(#cd)"><g clip-path="url(#ce)"><path d="M115.355 141.742c-.37.102-.062.082.016.102l-.016-.102" fill="#f2cc59"/></g></g></g><g clip-path="url(#cf)"><g clip-path="url(#cg)"><g clip-path="url(#ch)"><path d="M38.36 166.496a10.093 10.093 0 01-.188-.426c.137.137.16.032.082.453l.105-.027" fill="#f2cc59"/></g></g></g><g clip-path="url(#ci)"><g clip-path="url(#cj)"><g clip-path="url(#ck)"><path d="M152.664 177.414a20.344 20.344 0 00-.293-.39c.602-.13.242.226.203.413l.09-.023" fill="#f2cc59"/></g></g></g><g clip-path="url(#cl)"><g clip-path="url(#cm)"><g clip-path="url(#cn)"><path d="M106.25 111.375c-.082.063-.16.129-.238.2.09-.036.175-.067.261-.102l-.023-.098" fill="#f2cc59"/></g></g></g><g clip-path="url(#co)"><g clip-path="url(#cp)"><g clip-path="url(#cq)"><path d="M138.492 130.871c.063.074.125.149.188.227-.035-.082-.078-.16-.114-.243l-.074.016" fill="#f2cc59"/></g></g></g></g></defs><g clip-path="url(#cr)"><path d="M506.25 24.363c-120.898 0-219.258 98.364-219.258 219.258 0 120.902 98.36 219.258 219.258 219.258 120.895 0 219.258-98.356 219.258-219.258 0-120.894-98.363-219.258-219.258-219.258zm0 432.801c-117.746 0-213.543-95.797-213.543-213.539 0-117.75 95.797-213.543 213.543-213.543 117.746 0 213.543 95.793 213.543 213.543 0 117.746-95.797 213.54-213.543 213.54zm0 0" fill="#004aad"/></g><path d="M506.25 41.48c-111.465 0-202.14 90.684-202.14 202.141 0 111.465 90.68 202.145 202.14 202.145 111.465 0 202.137-90.684 202.137-202.145.004-111.457-90.672-202.14-202.137-202.14zm0 0" fill="#004aad"/><use xlink:href="#cs" x="389.792" y="220.212" fill="#fff"/><use xlink:href="#ct" x="403.335" y="185.606" fill="#fff"/><use xlink:href="#cu" x="432.048" y="152.595" fill="#fff"/><use xlink:href="#cv" x="497.044" y="128.998" fill="#fff"/><use xlink:href="#cw" x="534.152" y="131.015" fill="#fff"/><use xlink:href="#cx" x="574.498" y="148.74" fill="#fff"/><use xlink:href="#cy" x="605.39" y="181.416" fill="#fff"/><use xlink:href="#cz" transform="translate(391 137)" mask="url(#cA)"/><use xlink:href="#cB" x="327.817" y="282.563" fill="#fff"/><use xlink:href="#cC" x="334.065" y="303.597" fill="#fff"/><use xlink:href="#cD" x="345.795" y="328.761" fill="#fff"/><use xlink:href="#cE" x="358.613" y="349.353" fill="#fff"/><use xlink:href="#cF" x="382.282" y="374.749" fill="#fff"/><use xlink:href="#cG" x="394.552" y="385.312" fill="#fff"/><use xlink:href="#cH" x="414.792" y="399.059" fill="#fff"/><use xlink:href="#cI" x="442.272" y="411.543" fill="#fff"/><use xlink:href="#cJ" x="457.519" y="416.622" fill="#fff"/><use xlink:href="#cK" x="478.204" y="420.873" fill="#fff"/><use xlink:href="#cL" x="488.841" y="422.563" fill="#fff"/><use xlink:href="#cM" x="515.59" y="423.34" fill="#fff"/><use xlink:href="#cN" x="559.516" y="415.557" fill="#fff"/><use xlink:href="#cO" x="581.597" y="407.29" fill="#fff"/><use xlink:href="#cP" x="600.935" y="397.307" fill="#fff"/><use xlink:href="#cQ" x="631.407" y="374.433" fill="#fff"/><use xlink:href="#cR" x="646.892" y="358.686" fill="#fff"/><use xlink:href="#cS" x="664.86" y="333.553" fill="#fff"/><use xlink:href="#cT" x="678.174" y="305.91" fill="#fff"/></svg>