<?xml version="1.0" encoding="UTF-8" standalone="no"?>
<svg
   xmlns:dc="http://purl.org/dc/elements/1.1/"
   xmlns:cc="http://creativecommons.org/ns#"
   xmlns:rdf="http://www.w3.org/1999/02/22-rdf-syntax-ns#"
   xmlns:svg="http://www.w3.org/2000/svg"
   xmlns="http://www.w3.org/2000/svg"
   xmlns:sodipodi="http://sodipodi.sourceforge.net/DTD/sodipodi-0.dtd"
   xmlns:inkscape="http://www.inkscape.org/namespaces/inkscape"
   version="1.1"
   id="svg187"
   width="288"
   height="288"
   viewBox="0 0 288 288"
   sodipodi:docname="paw-logo-blue-perfect.svg"
   inkscape:version="1.0.1 (c497b03c, 2020-09-10)">
  <metadata
     id="metadata193">
    <rdf:RDF>
      <cc:Work
         rdf:about="">
        <dc:format>image/svg+xml</dc:format>
        <dc:type
           rdf:resource="http://purl.org/dc/dcmitype/StillImage" />
        <dc:title></dc:title>
      </cc:Work>
    </rdf:RDF>
  </metadata>
  <defs
     id="defs191" />
  <sodipodi:namedview
     pagecolor="#ffffff"
     bordercolor="#666666"
     borderopacity="1"
     objecttolerance="10"
     gridtolerance="10"
     guidetolerance="10"
     inkscape:pageopacity="0"
     inkscape:pageshadow="2"
     inkscape:window-width="1680"
     inkscape:window-height="1024"
     id="namedview189"
     showgrid="false"
     inkscape:zoom="1"
     inkscape:cx="144"
     inkscape:cy="144"
     inkscape:window-x="0"
     inkscape:window-y="26"
     inkscape:window-maximized="0"
     inkscape:current-layer="g195" />
  <g
     inkscape:groupmode="layer"
     inkscape:label="Image"
     id="g195">
    <path
       style="fill:#064dae;stroke:none"
       d="m 110,83 h -1 l -2,12 -15,-8 3,4 c -11.3771,2.8103 -24.7656,8.6165 -22,23 -6.4836,4.375 -3.3709,23.453 1.3904,28.892 2.3594,2.695 8.9396,4.348 9.4337,8.196 0.5692,4.434 -4.31,4.22 -6.8102,2.459 C 72.4264,150.315 69.3615,145.018 67.1543,140 64.8812,134.832 64.3239,128.813 60,125 c 0.3904,9.093 0.7114,20.629 7.7091,27.567 2.1941,2.176 5.5451,2.086 7.6921,4.171 2.2892,2.224 1.7915,6.246 5.6574,6.835 5.8486,0.893 10.9984,-6.365 16.9229,-6.85 3.3303,-0.272 4.4376,2.796 7.2778,3.56 5.9317,1.595 14.2747,-4.09 17.7407,-8.283 -6.312,-1.288 -14.867,-15.226 -6,-12 h 1 l 12,-7 c -2.595,0.316 -5.399,1.576 -7.996,1.462 -3.238,-0.142 -8.587,-4.456 -4.642,-7.45 2.954,-2.242 9.036,-2.698 12.638,-3.012 l 2,3 c -1.278,-3.539 -2.176,-5.339 -6,-6 v -5 l 15,-2 2,4 c 5.478,-6.284 6.979,-0.867 7,5 h -1 l -4,-3 2,18 h 1 c 0.307,-5.595 2.056,-8.661 8,-8 6.855,-17.315 12.296,-2.942 19.032,6.988 2.154,3.177 7.404,5.479 8.48,9.116 1.879,6.346 -8.04,12.193 0.488,16.896 4.666,-11.483 8.238,-19.489 20,-24 l -1,6 10,-1 2,-4 c 8.838,1.454 6.118,-6.766 10.508,-11.363 2.731,-2.858 7.321,-3.353 9.869,-6.425 1.187,-1.431 1.521,-4.136 -0.7,-4.871 -6.18,-2.046 -12.056,9.932 -15.236,13.23 -3.548,3.678 -9.895,3.474 -14.441,2.429 3.407,-4.315 8.67,-5.992 12.251,-10.174 C 225.866,112.762 229.622,97.8491 226.244,85 224.945,80.0591 224.324,74.615 219,73 217.822,56.7791 202.375,55.2289 192.225,65.3287 184.492,73.0222 185.117,86.3464 182.502,96 c -1.423,5.2496 -4.982,9.722 -6.502,15 -11.33,-1.722 -3.814,-8.435 -5,-17 l 5,-3 c -3.459,-1.7218 -6.507,-2.9004 -7,-7 l 7,4 1,-17 2,7 c 5.549,-3.9001 7.806,-18.829 6,-25 l -7,13 c 0,-6.7832 0.787,-13.9786 -2.995,-19.9961 -9.396,-14.9529 -28.548,-5.911 -36.912,5.1659 -5.309,7.0315 -13.197,18.8426 -13.039,27.8302 0.087,4.9611 0.414,11.4204 2.354,15.9961 0.609,1.4352 2.893,4.3789 1.57,5.9622 C 127.172,103.122 123.332,99.4784 122,98.4005 116.463,93.919 113.46,89.0491 110,83 m 80,-34 1,1 -1,-1 m -15,30 -1,1 1,-1 m -7.333,10.6667 -0.334,0.6666 0.334,-0.6666 M 64,97 v 3 l 3,-1 v -1 l -3,-1 m 51,10 v 4 h -1 l 1,-4 m 118.667,2.333 0.666,0.334 -0.666,-0.334 M 138,134 l 2,5 v -5 h -2 m -19,9 3,-2 c -2.396,-0.575 -2.487,-0.475 -3,2 m 21,-3 v 3 h 1 l -1,-3 m -5,1 -2,5 c 3.012,-0.646 3.498,-2.387 2,-5 m 36.333,0.667 0.334,0.666 -0.334,-0.666 M 162,147 v 3 h 1 l -1,-3 m -36,8 4,-3 -4,3 m -60,4 4,1 v -4 l -4,3 m 106,-1 4,3 -4,-3 m 19,1.028 c -24.984,12.442 -13.868,57.734 14,44.151 8.638,-4.21 18.205,-13.957 18.778,-24.179 C 224.65,163.436 205.54,151.787 191,159.028 M 89,163 c 0.1502,4.575 1.0329,7.13 6,6 -0.2339,5.193 -4.0109,5.21 -7.625,7.994 -3.3227,2.559 -5.1113,6.829 -9.3758,8.174 -8.7478,2.76 -25.0097,1.053 -30.9992,9.832 6.8638,1.389 9.4187,6.392 10,13 h -1 l -3,-2 c 4.3181,7.42 15.0556,7.202 21.8117,11.92 5.4754,3.823 8.9771,11.341 14.1883,15.895 12.3084,10.756 27.578,11.82 43,10.279 6.046,-0.604 10.753,2.758 15.394,-3.42 3.175,-4.227 0.164,-9.131 -0.004,-13.674 -0.285,-7.717 3.079,-15.383 3.502,-23 0.215,-3.867 -2.216,-8.349 1.108,-11 -2.286,-6.226 -2.778,-13.468 -6.649,-19 C 133.579,157.178 112.575,162.484 98,171 l 4,-8 H 89 m 59,1 1,1 -1,-1 m 18,0 11,7 c -0.781,-6.841 -5.061,-6.701 -11,-7 m -21,1 3,6 h 1 l -4,-6 m 16,12 c 1.977,8.781 -0.682,9.075 -3,17 4.469,-0.512 9.526,-0.833 8,5 v 1 l 9,7 c 0.846,-6.561 -2.698,-11.77 -3.732,-18 -0.46,-2.769 4.191,-21.107 -5.583,-15.933 -1.755,0.93 -2.908,2.89 -4.685,3.933 m -12,-3 1,1 -1,-1 m 9,13 3,-1 -3,1 m -3,2 1,1 -1,-1 m 70,7 1,1 -1,-1 m 1,2 1,1 -1,-1 m -66,4 v 3 l 2,-3 h -2 m 48,10 3,-6 -1,-1 c -4.107,1.515 -5.237,3.723 -2,7 m 6,-7 1,2 h 1 l 1,-2 h -3 m -36,3 1,1 -1,-1 m 21,8 c -0.322,-9.665 -7.491,-2.375 0,0 m -16,-6 v 3 h 1 l -1,-3 m 5,0 2,8 c 2.396,-3.518 2.069,-6.363 -2,-8 m -2,6 1,1 -1,-1 m -51,34 v 5 l 3,-4 -1,-1 z"
       id="path199" />
  </g>
</svg>
