<?xml version="1.0" encoding="UTF-8"?>
<svg xmlns="http://www.w3.org/2000/svg" xmlns:xlink="http://www.w3.org/1999/xlink" width="216pt" height="215.999996pt" viewBox="0 0 216 215.999996" version="1.2">
<defs>
<filter id="alpha" filterUnits="objectBoundingBox" x="0%" y="0%" width="100%" height="100%">
  <feColorMatrix type="matrix" in="SourceGraphic" values="0 0 0 0 1 0 0 0 0 1 0 0 0 0 1 0 0 0 1 0"/>
</filter>
<mask id="mask0">
  <g filter="url(#alpha)">
<rect x="0" y="0" width="216" height="215.999996" style="fill:rgb(0%,0%,0%);fill-opacity:0.9882;stroke:none;"/>
  </g>
</mask>
<clipPath id="clip2">
  <path d="M 39 26 L 173 26 L 173 123 L 39 123 Z M 39 26 "/>
</clipPath>
<clipPath id="clip3">
  <path d="M 90.765625 0.00390625 L 210.917969 80.722656 L 120.160156 215.816406 L 0.0078125 135.097656 Z M 90.765625 0.00390625 "/>
</clipPath>
<clipPath id="clip4">
  <path d="M 90.765625 0.00390625 L 210.917969 80.722656 L 120.160156 215.816406 L 0.0078125 135.097656 Z M 90.765625 0.00390625 "/>
</clipPath>
<clipPath id="clip5">
  <path d="M 29 120 L 109 120 L 109 184 L 29 184 Z M 29 120 "/>
</clipPath>
<clipPath id="clip6">
  <path d="M 90.765625 0.00390625 L 210.917969 80.722656 L 120.160156 215.816406 L 0.0078125 135.097656 Z M 90.765625 0.00390625 "/>
</clipPath>
<clipPath id="clip7">
  <path d="M 90.765625 0.00390625 L 210.917969 80.722656 L 120.160156 215.816406 L 0.0078125 135.097656 Z M 90.765625 0.00390625 "/>
</clipPath>
<clipPath id="clip8">
  <path d="M 126 116 L 164 116 L 164 153 L 126 153 Z M 126 116 "/>
</clipPath>
<clipPath id="clip9">
  <path d="M 90.765625 0.00390625 L 210.917969 80.722656 L 120.160156 215.816406 L 0.0078125 135.097656 Z M 90.765625 0.00390625 "/>
</clipPath>
<clipPath id="clip10">
  <path d="M 90.765625 0.00390625 L 210.917969 80.722656 L 120.160156 215.816406 L 0.0078125 135.097656 Z M 90.765625 0.00390625 "/>
</clipPath>
<clipPath id="clip11">
  <path d="M 112 127 L 127 127 L 127 154 L 112 154 Z M 112 127 "/>
</clipPath>
<clipPath id="clip12">
  <path d="M 90.765625 0.00390625 L 210.917969 80.722656 L 120.160156 215.816406 L 0.0078125 135.097656 Z M 90.765625 0.00390625 "/>
</clipPath>
<clipPath id="clip13">
  <path d="M 90.765625 0.00390625 L 210.917969 80.722656 L 120.160156 215.816406 L 0.0078125 135.097656 Z M 90.765625 0.00390625 "/>
</clipPath>
<clipPath id="clip14">
  <path d="M 118 121 L 128 121 L 128 127 L 118 127 Z M 118 121 "/>
</clipPath>
<clipPath id="clip15">
  <path d="M 90.765625 0.00390625 L 210.917969 80.722656 L 120.160156 215.816406 L 0.0078125 135.097656 Z M 90.765625 0.00390625 "/>
</clipPath>
<clipPath id="clip16">
  <path d="M 90.765625 0.00390625 L 210.917969 80.722656 L 120.160156 215.816406 L 0.0078125 135.097656 Z M 90.765625 0.00390625 "/>
</clipPath>
<clipPath id="clip17">
  <path d="M 147 151 L 154 151 L 154 158 L 147 158 Z M 147 151 "/>
</clipPath>
<clipPath id="clip18">
  <path d="M 90.765625 0.00390625 L 210.917969 80.722656 L 120.160156 215.816406 L 0.0078125 135.097656 Z M 90.765625 0.00390625 "/>
</clipPath>
<clipPath id="clip19">
  <path d="M 90.765625 0.00390625 L 210.917969 80.722656 L 120.160156 215.816406 L 0.0078125 135.097656 Z M 90.765625 0.00390625 "/>
</clipPath>
<clipPath id="clip20">
  <path d="M 140 155 L 145 155 L 145 162 L 140 162 Z M 140 155 "/>
</clipPath>
<clipPath id="clip21">
  <path d="M 90.765625 0.00390625 L 210.917969 80.722656 L 120.160156 215.816406 L 0.0078125 135.097656 Z M 90.765625 0.00390625 "/>
</clipPath>
<clipPath id="clip22">
  <path d="M 90.765625 0.00390625 L 210.917969 80.722656 L 120.160156 215.816406 L 0.0078125 135.097656 Z M 90.765625 0.00390625 "/>
</clipPath>
<clipPath id="clip23">
  <path d="M 135 155 L 140 155 L 140 163 L 135 163 Z M 135 155 "/>
</clipPath>
<clipPath id="clip24">
  <path d="M 90.765625 0.00390625 L 210.917969 80.722656 L 120.160156 215.816406 L 0.0078125 135.097656 Z M 90.765625 0.00390625 "/>
</clipPath>
<clipPath id="clip25">
  <path d="M 90.765625 0.00390625 L 210.917969 80.722656 L 120.160156 215.816406 L 0.0078125 135.097656 Z M 90.765625 0.00390625 "/>
</clipPath>
<clipPath id="clip26">
  <path d="M 44 115 L 48 115 L 48 120 L 44 120 Z M 44 115 "/>
</clipPath>
<clipPath id="clip27">
  <path d="M 90.765625 0.00390625 L 210.917969 80.722656 L 120.160156 215.816406 L 0.0078125 135.097656 Z M 90.765625 0.00390625 "/>
</clipPath>
<clipPath id="clip28">
  <path d="M 90.765625 0.00390625 L 210.917969 80.722656 L 120.160156 215.816406 L 0.0078125 135.097656 Z M 90.765625 0.00390625 "/>
</clipPath>
<clipPath id="clip29">
  <path d="M 94 186 L 99 186 L 99 190 L 94 190 Z M 94 186 "/>
</clipPath>
<clipPath id="clip30">
  <path d="M 90.765625 0.00390625 L 210.917969 80.722656 L 120.160156 215.816406 L 0.0078125 135.097656 Z M 90.765625 0.00390625 "/>
</clipPath>
<clipPath id="clip31">
  <path d="M 90.765625 0.00390625 L 210.917969 80.722656 L 120.160156 215.816406 L 0.0078125 135.097656 Z M 90.765625 0.00390625 "/>
</clipPath>
<clipPath id="clip32">
  <path d="M 103 121 L 107 121 L 107 128 L 103 128 Z M 103 121 "/>
</clipPath>
<clipPath id="clip33">
  <path d="M 90.765625 0.00390625 L 210.917969 80.722656 L 120.160156 215.816406 L 0.0078125 135.097656 Z M 90.765625 0.00390625 "/>
</clipPath>
<clipPath id="clip34">
  <path d="M 90.765625 0.00390625 L 210.917969 80.722656 L 120.160156 215.816406 L 0.0078125 135.097656 Z M 90.765625 0.00390625 "/>
</clipPath>
<clipPath id="clip35">
  <path d="M 97 98 L 101 98 L 101 104 L 97 104 Z M 97 98 "/>
</clipPath>
<clipPath id="clip36">
  <path d="M 90.765625 0.00390625 L 210.917969 80.722656 L 120.160156 215.816406 L 0.0078125 135.097656 Z M 90.765625 0.00390625 "/>
</clipPath>
<clipPath id="clip37">
  <path d="M 90.765625 0.00390625 L 210.917969 80.722656 L 120.160156 215.816406 L 0.0078125 135.097656 Z M 90.765625 0.00390625 "/>
</clipPath>
<clipPath id="clip38">
  <path d="M 123 116 L 128 116 L 128 121 L 123 121 Z M 123 116 "/>
</clipPath>
<clipPath id="clip39">
  <path d="M 90.765625 0.00390625 L 210.917969 80.722656 L 120.160156 215.816406 L 0.0078125 135.097656 Z M 90.765625 0.00390625 "/>
</clipPath>
<clipPath id="clip40">
  <path d="M 90.765625 0.00390625 L 210.917969 80.722656 L 120.160156 215.816406 L 0.0078125 135.097656 Z M 90.765625 0.00390625 "/>
</clipPath>
<clipPath id="clip41">
  <path d="M 93 104 L 98 104 L 98 109 L 93 109 Z M 93 104 "/>
</clipPath>
<clipPath id="clip42">
  <path d="M 90.765625 0.00390625 L 210.917969 80.722656 L 120.160156 215.816406 L 0.0078125 135.097656 Z M 90.765625 0.00390625 "/>
</clipPath>
<clipPath id="clip43">
  <path d="M 90.765625 0.00390625 L 210.917969 80.722656 L 120.160156 215.816406 L 0.0078125 135.097656 Z M 90.765625 0.00390625 "/>
</clipPath>
<clipPath id="clip44">
  <path d="M 89 112 L 93 112 L 93 115 L 89 115 Z M 89 112 "/>
</clipPath>
<clipPath id="clip45">
  <path d="M 90.765625 0.00390625 L 210.917969 80.722656 L 120.160156 215.816406 L 0.0078125 135.097656 Z M 90.765625 0.00390625 "/>
</clipPath>
<clipPath id="clip46">
  <path d="M 90.765625 0.00390625 L 210.917969 80.722656 L 120.160156 215.816406 L 0.0078125 135.097656 Z M 90.765625 0.00390625 "/>
</clipPath>
<clipPath id="clip47">
  <path d="M 42 70 L 45 70 L 45 74 L 42 74 Z M 42 70 "/>
</clipPath>
<clipPath id="clip48">
  <path d="M 90.765625 0.00390625 L 210.917969 80.722656 L 120.160156 215.816406 L 0.0078125 135.097656 Z M 90.765625 0.00390625 "/>
</clipPath>
<clipPath id="clip49">
  <path d="M 90.765625 0.00390625 L 210.917969 80.722656 L 120.160156 215.816406 L 0.0078125 135.097656 Z M 90.765625 0.00390625 "/>
</clipPath>
<clipPath id="clip50">
  <path d="M 83 103 L 87 103 L 87 106 L 83 106 Z M 83 103 "/>
</clipPath>
<clipPath id="clip51">
  <path d="M 90.765625 0.00390625 L 210.917969 80.722656 L 120.160156 215.816406 L 0.0078125 135.097656 Z M 90.765625 0.00390625 "/>
</clipPath>
<clipPath id="clip52">
  <path d="M 90.765625 0.00390625 L 210.917969 80.722656 L 120.160156 215.816406 L 0.0078125 135.097656 Z M 90.765625 0.00390625 "/>
</clipPath>
<clipPath id="clip53">
  <path d="M 114 149 L 117 149 L 117 153 L 114 153 Z M 114 149 "/>
</clipPath>
<clipPath id="clip54">
  <path d="M 90.765625 0.00390625 L 210.917969 80.722656 L 120.160156 215.816406 L 0.0078125 135.097656 Z M 90.765625 0.00390625 "/>
</clipPath>
<clipPath id="clip55">
  <path d="M 90.765625 0.00390625 L 210.917969 80.722656 L 120.160156 215.816406 L 0.0078125 135.097656 Z M 90.765625 0.00390625 "/>
</clipPath>
<clipPath id="clip56">
  <path d="M 154 151 L 158 151 L 158 154 L 154 154 Z M 154 151 "/>
</clipPath>
<clipPath id="clip57">
  <path d="M 90.765625 0.00390625 L 210.917969 80.722656 L 120.160156 215.816406 L 0.0078125 135.097656 Z M 90.765625 0.00390625 "/>
</clipPath>
<clipPath id="clip58">
  <path d="M 90.765625 0.00390625 L 210.917969 80.722656 L 120.160156 215.816406 L 0.0078125 135.097656 Z M 90.765625 0.00390625 "/>
</clipPath>
<clipPath id="clip59">
  <path d="M 131 155 L 134 155 L 134 159 L 131 159 Z M 131 155 "/>
</clipPath>
<clipPath id="clip60">
  <path d="M 90.765625 0.00390625 L 210.917969 80.722656 L 120.160156 215.816406 L 0.0078125 135.097656 Z M 90.765625 0.00390625 "/>
</clipPath>
<clipPath id="clip61">
  <path d="M 90.765625 0.00390625 L 210.917969 80.722656 L 120.160156 215.816406 L 0.0078125 135.097656 Z M 90.765625 0.00390625 "/>
</clipPath>
<clipPath id="clip62">
  <path d="M 112 137 L 116 137 L 116 139 L 112 139 Z M 112 137 "/>
</clipPath>
<clipPath id="clip63">
  <path d="M 90.765625 0.00390625 L 210.917969 80.722656 L 120.160156 215.816406 L 0.0078125 135.097656 Z M 90.765625 0.00390625 "/>
</clipPath>
<clipPath id="clip64">
  <path d="M 90.765625 0.00390625 L 210.917969 80.722656 L 120.160156 215.816406 L 0.0078125 135.097656 Z M 90.765625 0.00390625 "/>
</clipPath>
<clipPath id="clip65">
  <path d="M 115 108 L 118 108 L 118 112 L 115 112 Z M 115 108 "/>
</clipPath>
<clipPath id="clip66">
  <path d="M 90.765625 0.00390625 L 210.917969 80.722656 L 120.160156 215.816406 L 0.0078125 135.097656 Z M 90.765625 0.00390625 "/>
</clipPath>
<clipPath id="clip67">
  <path d="M 90.765625 0.00390625 L 210.917969 80.722656 L 120.160156 215.816406 L 0.0078125 135.097656 Z M 90.765625 0.00390625 "/>
</clipPath>
<clipPath id="clip68">
  <path d="M 105 121 L 108 121 L 108 123 L 105 123 Z M 105 121 "/>
</clipPath>
<clipPath id="clip69">
  <path d="M 90.765625 0.00390625 L 210.917969 80.722656 L 120.160156 215.816406 L 0.0078125 135.097656 Z M 90.765625 0.00390625 "/>
</clipPath>
<clipPath id="clip70">
  <path d="M 90.765625 0.00390625 L 210.917969 80.722656 L 120.160156 215.816406 L 0.0078125 135.097656 Z M 90.765625 0.00390625 "/>
</clipPath>
<clipPath id="clip71">
  <path d="M 99 103 L 101 103 L 101 106 L 99 106 Z M 99 103 "/>
</clipPath>
<clipPath id="clip72">
  <path d="M 90.765625 0.00390625 L 210.917969 80.722656 L 120.160156 215.816406 L 0.0078125 135.097656 Z M 90.765625 0.00390625 "/>
</clipPath>
<clipPath id="clip73">
  <path d="M 90.765625 0.00390625 L 210.917969 80.722656 L 120.160156 215.816406 L 0.0078125 135.097656 Z M 90.765625 0.00390625 "/>
</clipPath>
<clipPath id="clip74">
  <path d="M 169 79 L 172 79 L 172 82 L 169 82 Z M 169 79 "/>
</clipPath>
<clipPath id="clip75">
  <path d="M 90.765625 0.00390625 L 210.917969 80.722656 L 120.160156 215.816406 L 0.0078125 135.097656 Z M 90.765625 0.00390625 "/>
</clipPath>
<clipPath id="clip76">
  <path d="M 90.765625 0.00390625 L 210.917969 80.722656 L 120.160156 215.816406 L 0.0078125 135.097656 Z M 90.765625 0.00390625 "/>
</clipPath>
<clipPath id="clip77">
  <path d="M 122 103 L 125 103 L 125 106 L 122 106 Z M 122 103 "/>
</clipPath>
<clipPath id="clip78">
  <path d="M 90.765625 0.00390625 L 210.917969 80.722656 L 120.160156 215.816406 L 0.0078125 135.097656 Z M 90.765625 0.00390625 "/>
</clipPath>
<clipPath id="clip79">
  <path d="M 90.765625 0.00390625 L 210.917969 80.722656 L 120.160156 215.816406 L 0.0078125 135.097656 Z M 90.765625 0.00390625 "/>
</clipPath>
<clipPath id="clip80">
  <path d="M 105 128 L 109 128 L 109 131 L 105 131 Z M 105 128 "/>
</clipPath>
<clipPath id="clip81">
  <path d="M 90.765625 0.00390625 L 210.917969 80.722656 L 120.160156 215.816406 L 0.0078125 135.097656 Z M 90.765625 0.00390625 "/>
</clipPath>
<clipPath id="clip82">
  <path d="M 90.765625 0.00390625 L 210.917969 80.722656 L 120.160156 215.816406 L 0.0078125 135.097656 Z M 90.765625 0.00390625 "/>
</clipPath>
<clipPath id="clip83">
  <path d="M 137 35 L 139 35 L 139 37 L 137 37 Z M 137 35 "/>
</clipPath>
<clipPath id="clip84">
  <path d="M 90.765625 0.00390625 L 210.917969 80.722656 L 120.160156 215.816406 L 0.0078125 135.097656 Z M 90.765625 0.00390625 "/>
</clipPath>
<clipPath id="clip85">
  <path d="M 90.765625 0.00390625 L 210.917969 80.722656 L 120.160156 215.816406 L 0.0078125 135.097656 Z M 90.765625 0.00390625 "/>
</clipPath>
<clipPath id="clip86">
  <path d="M 110 139 L 113 139 L 113 141 L 110 141 Z M 110 139 "/>
</clipPath>
<clipPath id="clip87">
  <path d="M 90.765625 0.00390625 L 210.917969 80.722656 L 120.160156 215.816406 L 0.0078125 135.097656 Z M 90.765625 0.00390625 "/>
</clipPath>
<clipPath id="clip88">
  <path d="M 90.765625 0.00390625 L 210.917969 80.722656 L 120.160156 215.816406 L 0.0078125 135.097656 Z M 90.765625 0.00390625 "/>
</clipPath>
<clipPath id="clip89">
  <path d="M 133 160 L 136 160 L 136 162 L 133 162 Z M 133 160 "/>
</clipPath>
<clipPath id="clip90">
  <path d="M 90.765625 0.00390625 L 210.917969 80.722656 L 120.160156 215.816406 L 0.0078125 135.097656 Z M 90.765625 0.00390625 "/>
</clipPath>
<clipPath id="clip91">
  <path d="M 90.765625 0.00390625 L 210.917969 80.722656 L 120.160156 215.816406 L 0.0078125 135.097656 Z M 90.765625 0.00390625 "/>
</clipPath>
<clipPath id="clip92">
  <path d="M 164 146 L 166 146 L 166 149 L 164 149 Z M 164 146 "/>
</clipPath>
<clipPath id="clip93">
  <path d="M 90.765625 0.00390625 L 210.917969 80.722656 L 120.160156 215.816406 L 0.0078125 135.097656 Z M 90.765625 0.00390625 "/>
</clipPath>
<clipPath id="clip94">
  <path d="M 90.765625 0.00390625 L 210.917969 80.722656 L 120.160156 215.816406 L 0.0078125 135.097656 Z M 90.765625 0.00390625 "/>
</clipPath>
<clipPath id="clip95">
  <path d="M 128 154 L 130 154 L 130 156 L 128 156 Z M 128 154 "/>
</clipPath>
<clipPath id="clip96">
  <path d="M 90.765625 0.00390625 L 210.917969 80.722656 L 120.160156 215.816406 L 0.0078125 135.097656 Z M 90.765625 0.00390625 "/>
</clipPath>
<clipPath id="clip97">
  <path d="M 90.765625 0.00390625 L 210.917969 80.722656 L 120.160156 215.816406 L 0.0078125 135.097656 Z M 90.765625 0.00390625 "/>
</clipPath>
<clipPath id="clip98">
  <path d="M 41 79 L 43 79 L 43 81 L 41 81 Z M 41 79 "/>
</clipPath>
<clipPath id="clip99">
  <path d="M 90.765625 0.00390625 L 210.917969 80.722656 L 120.160156 215.816406 L 0.0078125 135.097656 Z M 90.765625 0.00390625 "/>
</clipPath>
<clipPath id="clip100">
  <path d="M 90.765625 0.00390625 L 210.917969 80.722656 L 120.160156 215.816406 L 0.0078125 135.097656 Z M 90.765625 0.00390625 "/>
</clipPath>
<clipPath id="clip101">
  <path d="M 164 100 L 166 100 L 166 102 L 164 102 Z M 164 100 "/>
</clipPath>
<clipPath id="clip102">
  <path d="M 90.765625 0.00390625 L 210.917969 80.722656 L 120.160156 215.816406 L 0.0078125 135.097656 Z M 90.765625 0.00390625 "/>
</clipPath>
<clipPath id="clip103">
  <path d="M 90.765625 0.00390625 L 210.917969 80.722656 L 120.160156 215.816406 L 0.0078125 135.097656 Z M 90.765625 0.00390625 "/>
</clipPath>
<clipPath id="clip104">
  <path d="M 163 145 L 165 145 L 165 147 L 163 147 Z M 163 145 "/>
</clipPath>
<clipPath id="clip105">
  <path d="M 90.765625 0.00390625 L 210.917969 80.722656 L 120.160156 215.816406 L 0.0078125 135.097656 Z M 90.765625 0.00390625 "/>
</clipPath>
<clipPath id="clip106">
  <path d="M 90.765625 0.00390625 L 210.917969 80.722656 L 120.160156 215.816406 L 0.0078125 135.097656 Z M 90.765625 0.00390625 "/>
</clipPath>
<clipPath id="clip107">
  <path d="M 99 191 L 101 191 L 101 193 L 99 193 Z M 99 191 "/>
</clipPath>
<clipPath id="clip108">
  <path d="M 90.765625 0.00390625 L 210.917969 80.722656 L 120.160156 215.816406 L 0.0078125 135.097656 Z M 90.765625 0.00390625 "/>
</clipPath>
<clipPath id="clip109">
  <path d="M 90.765625 0.00390625 L 210.917969 80.722656 L 120.160156 215.816406 L 0.0078125 135.097656 Z M 90.765625 0.00390625 "/>
</clipPath>
<clipPath id="clip110">
  <path d="M 161 147 L 162 147 L 162 149 L 161 149 Z M 161 147 "/>
</clipPath>
<clipPath id="clip111">
  <path d="M 90.765625 0.00390625 L 210.917969 80.722656 L 120.160156 215.816406 L 0.0078125 135.097656 Z M 90.765625 0.00390625 "/>
</clipPath>
<clipPath id="clip112">
  <path d="M 90.765625 0.00390625 L 210.917969 80.722656 L 120.160156 215.816406 L 0.0078125 135.097656 Z M 90.765625 0.00390625 "/>
</clipPath>
<clipPath id="clip113">
  <path d="M 108 134 L 109 134 L 109 136 L 108 136 Z M 108 134 "/>
</clipPath>
<clipPath id="clip114">
  <path d="M 90.765625 0.00390625 L 210.917969 80.722656 L 120.160156 215.816406 L 0.0078125 135.097656 Z M 90.765625 0.00390625 "/>
</clipPath>
<clipPath id="clip115">
  <path d="M 90.765625 0.00390625 L 210.917969 80.722656 L 120.160156 215.816406 L 0.0078125 135.097656 Z M 90.765625 0.00390625 "/>
</clipPath>
<clipPath id="clip116">
  <path d="M 109 146 L 111 146 L 111 148 L 109 148 Z M 109 146 "/>
</clipPath>
<clipPath id="clip117">
  <path d="M 90.765625 0.00390625 L 210.917969 80.722656 L 120.160156 215.816406 L 0.0078125 135.097656 Z M 90.765625 0.00390625 "/>
</clipPath>
<clipPath id="clip118">
  <path d="M 90.765625 0.00390625 L 210.917969 80.722656 L 120.160156 215.816406 L 0.0078125 135.097656 Z M 90.765625 0.00390625 "/>
</clipPath>
<clipPath id="clip119">
  <path d="M 124 157 L 126 157 L 126 158 L 124 158 Z M 124 157 "/>
</clipPath>
<clipPath id="clip120">
  <path d="M 90.765625 0.00390625 L 210.917969 80.722656 L 120.160156 215.816406 L 0.0078125 135.097656 Z M 90.765625 0.00390625 "/>
</clipPath>
<clipPath id="clip121">
  <path d="M 90.765625 0.00390625 L 210.917969 80.722656 L 120.160156 215.816406 L 0.0078125 135.097656 Z M 90.765625 0.00390625 "/>
</clipPath>
<clipPath id="clip122">
  <path d="M 158 152 L 159 152 L 159 154 L 158 154 Z M 158 152 "/>
</clipPath>
<clipPath id="clip123">
  <path d="M 90.765625 0.00390625 L 210.917969 80.722656 L 120.160156 215.816406 L 0.0078125 135.097656 Z M 90.765625 0.00390625 "/>
</clipPath>
<clipPath id="clip124">
  <path d="M 90.765625 0.00390625 L 210.917969 80.722656 L 120.160156 215.816406 L 0.0078125 135.097656 Z M 90.765625 0.00390625 "/>
</clipPath>
<clipPath id="clip125">
  <path d="M 130 163 L 131 163 L 131 165 L 130 165 Z M 130 163 "/>
</clipPath>
<clipPath id="clip126">
  <path d="M 90.765625 0.00390625 L 210.917969 80.722656 L 120.160156 215.816406 L 0.0078125 135.097656 Z M 90.765625 0.00390625 "/>
</clipPath>
<clipPath id="clip127">
  <path d="M 90.765625 0.00390625 L 210.917969 80.722656 L 120.160156 215.816406 L 0.0078125 135.097656 Z M 90.765625 0.00390625 "/>
</clipPath>
<clipPath id="clip128">
  <path d="M 127 157 L 129 157 L 129 158 L 127 158 Z M 127 157 "/>
</clipPath>
<clipPath id="clip129">
  <path d="M 90.765625 0.00390625 L 210.917969 80.722656 L 120.160156 215.816406 L 0.0078125 135.097656 Z M 90.765625 0.00390625 "/>
</clipPath>
<clipPath id="clip130">
  <path d="M 90.765625 0.00390625 L 210.917969 80.722656 L 120.160156 215.816406 L 0.0078125 135.097656 Z M 90.765625 0.00390625 "/>
</clipPath>
<clipPath id="clip131">
  <path d="M 139 161 L 140 161 L 140 162 L 139 162 Z M 139 161 "/>
</clipPath>
<clipPath id="clip132">
  <path d="M 90.765625 0.00390625 L 210.917969 80.722656 L 120.160156 215.816406 L 0.0078125 135.097656 Z M 90.765625 0.00390625 "/>
</clipPath>
<clipPath id="clip133">
  <path d="M 90.765625 0.00390625 L 210.917969 80.722656 L 120.160156 215.816406 L 0.0078125 135.097656 Z M 90.765625 0.00390625 "/>
</clipPath>
<clipPath id="clip134">
  <path d="M 160 51 L 161 51 L 161 52 L 160 52 Z M 160 51 "/>
</clipPath>
<clipPath id="clip135">
  <path d="M 90.765625 0.00390625 L 210.917969 80.722656 L 120.160156 215.816406 L 0.0078125 135.097656 Z M 90.765625 0.00390625 "/>
</clipPath>
<clipPath id="clip136">
  <path d="M 90.765625 0.00390625 L 210.917969 80.722656 L 120.160156 215.816406 L 0.0078125 135.097656 Z M 90.765625 0.00390625 "/>
</clipPath>
<clipPath id="clip137">
  <path d="M 146 106 L 147 106 L 147 107 L 146 107 Z M 146 106 "/>
</clipPath>
<clipPath id="clip138">
  <path d="M 90.765625 0.00390625 L 210.917969 80.722656 L 120.160156 215.816406 L 0.0078125 135.097656 Z M 90.765625 0.00390625 "/>
</clipPath>
<clipPath id="clip139">
  <path d="M 90.765625 0.00390625 L 210.917969 80.722656 L 120.160156 215.816406 L 0.0078125 135.097656 Z M 90.765625 0.00390625 "/>
</clipPath>
<clipPath id="clip140">
  <path d="M 172 73 L 173 73 L 173 74 L 172 74 Z M 172 73 "/>
</clipPath>
<clipPath id="clip141">
  <path d="M 90.765625 0.00390625 L 210.917969 80.722656 L 120.160156 215.816406 L 0.0078125 135.097656 Z M 90.765625 0.00390625 "/>
</clipPath>
<clipPath id="clip142">
  <path d="M 90.765625 0.00390625 L 210.917969 80.722656 L 120.160156 215.816406 L 0.0078125 135.097656 Z M 90.765625 0.00390625 "/>
</clipPath>
<clipPath id="clip143">
  <path d="M 130 164 L 131 164 L 131 165 L 130 165 Z M 130 164 "/>
</clipPath>
<clipPath id="clip144">
  <path d="M 90.765625 0.00390625 L 210.917969 80.722656 L 120.160156 215.816406 L 0.0078125 135.097656 Z M 90.765625 0.00390625 "/>
</clipPath>
<clipPath id="clip145">
  <path d="M 90.765625 0.00390625 L 210.917969 80.722656 L 120.160156 215.816406 L 0.0078125 135.097656 Z M 90.765625 0.00390625 "/>
</clipPath>
<clipPath id="clip146">
  <path d="M 140 163 L 141 163 L 141 164 L 140 164 Z M 140 163 "/>
</clipPath>
<clipPath id="clip147">
  <path d="M 90.765625 0.00390625 L 210.917969 80.722656 L 120.160156 215.816406 L 0.0078125 135.097656 Z M 90.765625 0.00390625 "/>
</clipPath>
<clipPath id="clip148">
  <path d="M 90.765625 0.00390625 L 210.917969 80.722656 L 120.160156 215.816406 L 0.0078125 135.097656 Z M 90.765625 0.00390625 "/>
</clipPath>
<clipPath id="clip149">
  <path d="M 127 154 L 128 154 L 128 155 L 127 155 Z M 127 154 "/>
</clipPath>
<clipPath id="clip150">
  <path d="M 90.765625 0.00390625 L 210.917969 80.722656 L 120.160156 215.816406 L 0.0078125 135.097656 Z M 90.765625 0.00390625 "/>
</clipPath>
<clipPath id="clip151">
  <path d="M 90.765625 0.00390625 L 210.917969 80.722656 L 120.160156 215.816406 L 0.0078125 135.097656 Z M 90.765625 0.00390625 "/>
</clipPath>
<clipPath id="clip152">
  <path d="M 141 154 L 142 154 L 142 156 L 141 156 Z M 141 154 "/>
</clipPath>
<clipPath id="clip153">
  <path d="M 90.765625 0.00390625 L 210.917969 80.722656 L 120.160156 215.816406 L 0.0078125 135.097656 Z M 90.765625 0.00390625 "/>
</clipPath>
<clipPath id="clip154">
  <path d="M 90.765625 0.00390625 L 210.917969 80.722656 L 120.160156 215.816406 L 0.0078125 135.097656 Z M 90.765625 0.00390625 "/>
</clipPath>
<clipPath id="clip155">
  <path d="M 105 130 L 106 130 L 106 131 L 105 131 Z M 105 130 "/>
</clipPath>
<clipPath id="clip156">
  <path d="M 90.765625 0.00390625 L 210.917969 80.722656 L 120.160156 215.816406 L 0.0078125 135.097656 Z M 90.765625 0.00390625 "/>
</clipPath>
<clipPath id="clip157">
  <path d="M 90.765625 0.00390625 L 210.917969 80.722656 L 120.160156 215.816406 L 0.0078125 135.097656 Z M 90.765625 0.00390625 "/>
</clipPath>
<clipPath id="clip158">
  <path d="M 34 152 L 35 152 L 35 153 L 34 153 Z M 34 152 "/>
</clipPath>
<clipPath id="clip159">
  <path d="M 90.765625 0.00390625 L 210.917969 80.722656 L 120.160156 215.816406 L 0.0078125 135.097656 Z M 90.765625 0.00390625 "/>
</clipPath>
<clipPath id="clip160">
  <path d="M 90.765625 0.00390625 L 210.917969 80.722656 L 120.160156 215.816406 L 0.0078125 135.097656 Z M 90.765625 0.00390625 "/>
</clipPath>
<clipPath id="clip161">
  <path d="M 139 162 L 141 162 L 141 164 L 139 164 Z M 139 162 "/>
</clipPath>
<clipPath id="clip162">
  <path d="M 90.765625 0.00390625 L 210.917969 80.722656 L 120.160156 215.816406 L 0.0078125 135.097656 Z M 90.765625 0.00390625 "/>
</clipPath>
<clipPath id="clip163">
  <path d="M 90.765625 0.00390625 L 210.917969 80.722656 L 120.160156 215.816406 L 0.0078125 135.097656 Z M 90.765625 0.00390625 "/>
</clipPath>
<clipPath id="clip164">
  <path d="M 97 102 L 98 102 L 98 103 L 97 103 Z M 97 102 "/>
</clipPath>
<clipPath id="clip165">
  <path d="M 90.765625 0.00390625 L 210.917969 80.722656 L 120.160156 215.816406 L 0.0078125 135.097656 Z M 90.765625 0.00390625 "/>
</clipPath>
<clipPath id="clip166">
  <path d="M 90.765625 0.00390625 L 210.917969 80.722656 L 120.160156 215.816406 L 0.0078125 135.097656 Z M 90.765625 0.00390625 "/>
</clipPath>
<clipPath id="clip167">
  <path d="M 127 120 L 128 120 L 128 121 L 127 121 Z M 127 120 "/>
</clipPath>
<clipPath id="clip168">
  <path d="M 90.765625 0.00390625 L 210.917969 80.722656 L 120.160156 215.816406 L 0.0078125 135.097656 Z M 90.765625 0.00390625 "/>
</clipPath>
<clipPath id="clip169">
  <path d="M 90.765625 0.00390625 L 210.917969 80.722656 L 120.160156 215.816406 L 0.0078125 135.097656 Z M 90.765625 0.00390625 "/>
</clipPath>
<clipPath id="clip1">
  <rect x="0" y="0" width="212" height="216"/>
</clipPath>
<g id="surface5" clip-path="url(#clip1)">
<g clip-path="url(#clip2)" clip-rule="nonzero">
<g clip-path="url(#clip3)" clip-rule="nonzero">
<g clip-path="url(#clip4)" clip-rule="nonzero">
<path style=" stroke:none;fill-rule:nonzero;fill:rgb(94.898987%,79.998779%,34.899902%);fill-opacity:1;" d="M 132.074219 45.625 L 132.273438 45.515625 L 132.121094 45.398438 Z M 125.355469 57.375 C 125.1875 57.390625 124.9375 57.34375 124.859375 57.441406 C 124.398438 57.96875 125.632812 58.777344 125.621094 58.355469 C 125.621094 57.953125 125.644531 57.605469 125.355469 57.375 Z M 120.398438 64.871094 C 119.964844 65.433594 119.339844 65.988281 120.167969 66.429688 C 120.375 66.539062 120.765625 66.589844 120.917969 66.46875 C 121.4375 66.054688 120.871094 66.199219 120.398438 64.871094 Z M 80.554688 81.625 C 80.828125 81.121094 81.167969 80.59375 81.285156 79.910156 C 81.445312 79.035156 79.8125 78.46875 79.886719 79.832031 C 79.917969 80.433594 79.605469 81.175781 80.554688 81.625 Z M 146.640625 106.59375 C 147.734375 104.761719 148.523438 103.890625 147.523438 103.058594 C 146.800781 103.109375 140.96875 104.492188 140.433594 105.390625 C 139.898438 106.285156 139.046875 106.679688 138.183594 107 C 137.761719 108.21875 138.820312 109.398438 136.8125 112.449219 C 136.335938 113.171875 136.179688 114.140625 135.464844 114.792969 C 132 117.941406 134.585938 120.742188 131.769531 121.4375 C 129.890625 118.953125 127.28125 116.664062 131.890625 113.023438 C 131.070312 110.859375 132.851562 109.753906 133.863281 108.386719 C 131.308594 104.726562 127.636719 105.078125 126.339844 101.691406 C 125.945312 100.664062 124.648438 100.65625 125.003906 99.375 C 125.761719 96.617188 122.363281 98.492188 121.535156 94.386719 C 120.5625 89.589844 114.914062 85.160156 114.15625 88.894531 C 114.003906 89.636719 113.988281 90.488281 113.613281 91.105469 C 111.660156 94.3125 113.316406 93.441406 111.523438 96.449219 C 109.546875 94.890625 110.550781 95.261719 107.851562 94.933594 C 107.207031 95.898438 106.574219 96.839844 105.90625 97.832031 C 106.054688 101.632812 106.074219 100.4375 105.589844 102.203125 C 105.023438 102.398438 104.78125 102.1875 104.660156 101.753906 C 102.546875 94.003906 102.613281 96.332031 104.203125 91.382812 C 102.800781 89.1875 102.855469 88.386719 105.8125 88.75 C 106.160156 89.835938 106.25 90.625 106.757812 90.644531 C 107.3125 90.667969 107.621094 89.425781 107.515625 89.023438 C 106.226562 83.960938 108.46875 85.148438 105.417969 83.28125 C 103.269531 83.6875 103.167969 85.664062 101.941406 87.113281 C 101.902344 87.15625 101.757812 87.113281 101.667969 87.113281 C 100.894531 86.085938 101.035156 84.488281 99.503906 83.761719 C 97.683594 85.015625 98.355469 84.515625 96.945312 85.707031 C 95.234375 84.621094 94.359375 83.421875 92.691406 84.5625 C 91.609375 85.296875 89.265625 83.972656 89.613281 86.027344 C 89.9375 87.988281 89.9375 87.988281 89.503906 89.5625 C 90.148438 89.949219 90.421875 88.820312 91.285156 89.085938 C 92.601562 89.484375 93.238281 91.640625 93.273438 92.351562 C 93.320312 93.3125 94.65625 93.332031 94.296875 94.058594 C 93.875 94.890625 90.300781 92.984375 91.839844 91.960938 C 92.113281 91.777344 91.640625 91.15625 91.367188 91.289062 C 89.816406 92.046875 87.984375 91.78125 86.460938 92.691406 C 84.667969 93.757812 85.117188 91.660156 81.824219 93.441406 C 79.558594 94.667969 81.515625 99.949219 86.890625 99.652344 C 89.492188 99.515625 87.945312 98.445312 91.703125 98.03125 C 92.441406 97.953125 92.945312 98.59375 92.066406 99.226562 C 90.902344 100.0625 89.554688 100.566406 88.394531 101.457031 C 87.628906 102.03125 86.523438 102.433594 85.398438 101.933594 C 84.476562 101.527344 83.984375 102.308594 82.851562 103.410156 C 82.453125 102.941406 82.148438 102.574219 81.738281 102.089844 C 79.386719 102.917969 80.28125 102.621094 78.277344 103.214844 C 75.992188 108.519531 81.074219 106.179688 81.589844 109.070312 C 82.410156 113.617188 85.148438 111.253906 87.507812 113.0625 C 83.949219 115.609375 84.800781 114.679688 83.335938 115.660156 C 82.605469 116.140625 80.800781 118.355469 78.613281 117.855469 C 76.953125 117.472656 75.6875 118.464844 74.65625 119.75 C 73.949219 119.667969 73.292969 119.589844 72.5625 119.503906 C 72.390625 118.816406 72.230469 118.164062 72.078125 117.519531 C 71.347656 114.476562 66.273438 115.953125 65.929688 116.410156 C 65.234375 117.34375 64.261719 117.667969 63.1875 117.835938 C 58.71875 118.515625 61.191406 121.0625 54.535156 122.042969 C 53.679688 120.914062 52.820312 119.792969 51.933594 118.632812 C 52.261719 117.976562 52.558594 117.390625 52.828125 116.855469 C 51.8125 114.609375 48.773438 114.691406 45.972656 114.296875 C 45 110.003906 43.917969 113.125 43.207031 109.394531 C 42.898438 107.769531 42.132812 108.367188 42.339844 106.511719 C 42.707031 103.195312 39.078125 105.007812 39.808594 102.558594 C 40.539062 100.082031 39.800781 100.902344 40.21875 98.046875 C 40.433594 96.605469 40.160156 95.277344 39.273438 94.09375 C 39.558594 93.4375 39.402344 92.386719 40.445312 92.363281 C 41.722656 92.332031 43.242188 96.699219 42.964844 98.109375 C 42.871094 98.609375 43.945312 101.664062 44.347656 102.121094 C 45.144531 103.019531 45.519531 104.101562 45.84375 105.210938 C 46.707031 108.175781 48.828125 110.3125 50.675781 112.632812 C 54.230469 113.835938 49.398438 114.644531 56.808594 115.597656 C 57.847656 113.21875 57.335938 114.160156 58.714844 112.105469 C 58.230469 111.324219 57.734375 110.515625 57.175781 109.621094 C 56.71875 109.449219 56.195312 109.183594 55.632812 109.066406 C 49.707031 107.851562 46.875 99.492188 46.679688 96.417969 C 46.65625 96.039062 46.496094 95.523438 46.683594 95.292969 C 47.503906 94.238281 47.207031 92.882812 47.707031 91.792969 C 48.34375 90.421875 48.480469 89.027344 48.40625 87.519531 C 48.007812 87.152344 47.589844 86.773438 47.214844 86.433594 C 46.960938 84.738281 48.304688 84.273438 49.410156 83.472656 C 47.96875 81.636719 49.4375 80.390625 49.523438 78.953125 C 49.660156 76.527344 50.65625 77.351562 51.355469 74.832031 C 52.480469 70.757812 57.75 69.65625 58.441406 69.140625 C 62.757812 65.894531 65.246094 68.96875 65.777344 66.601562 C 65.433594 65.699219 64.476562 65.585938 63.632812 65.082031 C 63.757812 64.625 63.75 64.03125 64.027344 63.808594 C 64.550781 63.390625 65.308594 63.160156 65.929688 63.53125 C 68.058594 64.808594 70.390625 65.824219 71.792969 68.066406 C 72.386719 69.011719 73.265625 69.5625 74.421875 69.613281 C 76.117188 69.695312 74.664062 67.898438 75.515625 66.824219 C 76.445312 65.652344 76.03125 64.300781 75.851562 63.03125 C 75.675781 61.75 75.59375 61.757812 77.121094 60.875 C 77.929688 62.148438 78.75 63.429688 79.550781 64.71875 C 80.089844 65.585938 78.808594 66.363281 81.496094 68.335938 C 82.433594 69.027344 83.273438 69.785156 83.988281 70.726562 C 84.796875 71.789062 86.328125 71.898438 87.179688 73.101562 C 90.8125 78.261719 93.996094 74.6875 92.0625 71.96875 C 91.609375 71.332031 91.109375 71.90625 89.230469 67.683594 C 88.265625 65.507812 89.648438 64.101562 88.738281 60.304688 C 88.1875 57.984375 88.515625 55.546875 88.949219 53.183594 C 89.957031 51.671875 90.25 49.765625 91.734375 48.492188 C 93.550781 46.925781 94.4375 42.792969 95.15625 41.902344 C 97.824219 38.605469 98.324219 35.636719 100.597656 34.578125 C 102.15625 33.859375 102.378906 31.933594 105.277344 30.800781 C 109.394531 29.179688 109.730469 26.378906 115.164062 26.75 C 117.878906 26.9375 122.15625 27.679688 123.375 30.105469 C 124.136719 31.628906 127.382812 31.84375 128.578125 41.269531 C 127.941406 43.21875 128.894531 45.320312 127.996094 47.261719 C 127.5 48.347656 130.457031 48.410156 130.292969 46.140625 C 130.105469 43.484375 129.5625 43.90625 131.058594 41.921875 C 130.261719 40.34375 130.421875 40.824219 130.429688 40.140625 C 131.085938 39.554688 131.839844 38.824219 132.664062 38.183594 C 133.246094 37.730469 133.992188 38.546875 134.039062 39.199219 C 134.417969 44.351562 134.457031 43.613281 132.066406 47.171875 C 132.507812 47.96875 132.921875 48.699219 133.386719 49.527344 C 132.621094 50.484375 131.90625 51.378906 131.085938 52.410156 C 131.222656 52.769531 131.414062 53.28125 131.617188 53.820312 C 130.703125 55.863281 130.148438 57.808594 129.0625 57.011719 C 128.207031 56.382812 128.496094 55.972656 129.0625 53.101562 C 128.429688 52.257812 127.785156 51.804688 126.675781 52.347656 C 127.039062 52.980469 127.375 53.546875 127.710938 54.117188 C 127.355469 55.292969 126.910156 56.425781 127.335938 57.730469 C 127.949219 59.625 124.433594 59.398438 125.863281 61.40625 C 126.402344 62.152344 127.421875 62.800781 127.121094 63.832031 C 126.429688 66.238281 124.40625 62.753906 123.492188 61.648438 C 122.230469 60.128906 119.902344 63.066406 121.921875 64.679688 C 124.558594 66.78125 125.820312 65.011719 127.285156 67.4375 C 124.539062 68.984375 125.671875 68.445312 122.984375 69.402344 C 123.234375 70.175781 123.472656 70.898438 123.773438 71.820312 C 121.96875 74.851562 121.859375 74.542969 122.371094 76.925781 C 121.75 77.363281 121.132812 77.792969 120.394531 78.308594 C 121.246094 79.898438 121.171875 82.046875 123.625 82.3125 C 124.167969 81.175781 124.039062 81.453125 124.285156 80.996094 C 125.015625 80.523438 126.460938 82.277344 127.011719 80.707031 C 127.566406 79.101562 130.566406 72.902344 132.078125 70.953125 C 131.453125 69.777344 131.511719 68.457031 131.804688 67.105469 C 131.882812 66.75 132.195312 63.804688 132.242188 63.691406 C 138.234375 47.800781 134.839844 49.566406 145.027344 43.453125 C 148.726562 41.234375 150.089844 42.089844 151.863281 41.46875 C 152.914062 42.449219 153.945312 43.316406 154.855469 44.285156 C 156.8125 46.382812 156.191406 47.523438 158.015625 48.609375 C 160.097656 49.847656 157.332031 52.308594 159.824219 53.117188 C 161.617188 53.699219 161.628906 53.683594 162.785156 54.992188 C 162.460938 57.6875 162.589844 55.84375 164.738281 62.964844 C 167.207031 71.152344 163.203125 82.777344 161.261719 85.164062 C 161.207031 86.792969 159.566406 87.433594 159.027344 88.769531 C 158.898438 89.097656 158.367188 89.269531 158.246094 89.597656 C 157.207031 92.355469 155.132812 92.246094 154.222656 93.492188 C 152.726562 95.546875 151.875 93.585938 148.851562 97.15625 C 148.058594 98.085938 149.664062 98.953125 150.382812 98.902344 C 155.578125 98.539062 149.039062 99.789062 159.28125 97.546875 C 159.6875 96.9375 160.199219 96.179688 160.75 95.363281 C 160.601562 95.074219 160.433594 94.734375 160.261719 94.402344 C 161.15625 92.296875 164.75 89.875 165.320312 89.566406 C 167.804688 88.226562 167.984375 86.1875 171.082031 85.25 C 172.007812 88.542969 173.101562 86.460938 172.671875 89.277344 C 172.203125 90 171.15625 89.851562 170.625 90.699219 C 169.757812 92.082031 169.636719 92 167.679688 91.964844 C 165.371094 94.875 163.054688 93.183594 162.371094 96.203125 C 162.308594 96.484375 162.097656 96.851562 162.207031 97.035156 C 163.425781 99.101562 160.527344 101.570312 160.941406 102.835938 C 161.058594 103.199219 160.816406 103.269531 160.535156 103.375 C 158.992188 103.953125 159.273438 105.136719 157.648438 104.226562 C 157.160156 103.953125 156.6875 103.636719 156.066406 103.25 C 155.496094 104.390625 155 105.386719 154.546875 106.296875 C 153.808594 106.609375 154.167969 106.230469 152.332031 104.996094 C 151.628906 105.023438 149.195312 109.074219 146.632812 106.535156 L 146.640625 106.59375 "/>
</g>
</g>
</g>
<g clip-path="url(#clip5)" clip-rule="nonzero">
<g clip-path="url(#clip6)" clip-rule="nonzero">
<g clip-path="url(#clip7)" clip-rule="nonzero">
<path style=" stroke:none;fill-rule:nonzero;fill:rgb(94.898987%,79.998779%,34.899902%);fill-opacity:1;" d="M 34.449219 152.96875 C 35.625 153.765625 35.589844 152.179688 37.0625 153.273438 C 36.546875 154.289062 36.601562 153.929688 37.113281 154.621094 C 37.519531 154.207031 38.128906 153.664062 36.972656 153.296875 C 38.167969 151.273438 37.15625 152.203125 35.980469 147.082031 C 32.554688 144.777344 33.089844 144.902344 30.425781 144.59375 C 29.453125 144.476562 29.527344 144.234375 29.4375 144.035156 C 29.59375 143.867188 29.738281 143.585938 29.949219 143.503906 C 40.101562 139.632812 32.707031 140.949219 41.277344 140 C 44.4375 139.652344 44.09375 138.644531 46.921875 137.359375 C 48.171875 136.785156 48.335938 137.304688 51.664062 137.925781 C 54.386719 138.433594 54.570312 136.960938 56.398438 135.835938 C 59.445312 133.96875 57.589844 131.570312 61.75 130.1875 C 67.339844 128.328125 66.550781 128.128906 66.261719 125.5625 C 65.332031 124.945312 65.261719 126.433594 64.394531 125.949219 C 64.027344 125.746094 63.339844 126.105469 62.796875 126.21875 C 61.65625 125.359375 61.101562 124.300781 61.328125 122.808594 C 61.398438 122.324219 60.992188 121.773438 60.816406 121.285156 C 63.628906 118.96875 65.296875 122.082031 67.9375 120.046875 C 68.886719 120.078125 69.84375 120.117188 70.949219 120.152344 C 70.941406 122.53125 71.464844 124.601562 68.769531 125.285156 C 68.351562 125.390625 67.972656 125.839844 68.460938 126.550781 C 69.367188 126.042969 71.453125 124.945312 72.25 124.769531 C 74.917969 124.183594 75.507812 120.75 81.417969 120.53125 C 82.835938 120.472656 84.269531 120.898438 85.683594 120.957031 C 87.101562 121.019531 88.542969 120.726562 89.984375 120.902344 C 90.269531 120.9375 90.605469 120.875 90.835938 121 C 92.726562 122.011719 94.878906 122.074219 96.863281 122.722656 C 99.683594 123.636719 99.652344 124.9375 100.582031 125.757812 C 101.589844 126.644531 102.941406 127.296875 103.597656 128.386719 C 108.46875 136.46875 106.105469 139.394531 108.609375 143.003906 C 108.816406 143.308594 108.425781 143.792969 108.007812 143.710938 C 107.597656 143.621094 107.203125 143.410156 106.832031 143.257812 C 106.148438 143.894531 106.855469 144.386719 107.007812 144.828125 C 107.910156 147.40625 107.46875 146.40625 108.328125 153.089844 C 108.644531 152.617188 106.535156 154.960938 106.714844 158.328125 C 106.78125 159.574219 106.847656 160.832031 106.132812 161.976562 C 105.992188 162.207031 105.921875 162.566406 106 162.816406 C 106.296875 163.808594 105.835938 164.714844 105.792969 165.667969 C 105.730469 166.984375 105.046875 167.808594 103.878906 168.4375 C 104.316406 169.039062 104.996094 169.578125 105.109375 170.214844 C 105.269531 171.097656 106.027344 171.429688 106.429688 172.277344 C 106.269531 172.765625 106.0625 173.382812 105.859375 174.015625 C 106.125 174.40625 106.394531 174.789062 106.589844 175.066406 C 106.492188 176.3125 106.398438 177.453125 106.308594 178.585938 C 101.097656 182.816406 103.191406 179.738281 100.742188 182.820312 C 100.039062 183.707031 99.308594 182.902344 98.878906 182.519531 C 98.574219 182.246094 98.570312 182.25 97.566406 182.386719 C 97.417969 181.96875 97.417969 182.226562 97.421875 181.277344 C 95.351562 180.871094 96.125 181.046875 94.46875 180.582031 C 93.917969 181.058594 93.40625 181.492188 92.761719 182.046875 C 91.699219 181.777344 90.441406 182.210938 89.273438 181.597656 C 89.128906 181.523438 88.851562 181.527344 88.722656 181.621094 C 86.976562 182.863281 84.039062 181.148438 82.886719 182.398438 C 82.742188 182.558594 82.316406 182.597656 82.082031 182.523438 C 79.734375 181.707031 76.128906 182.433594 72.742188 180.058594 C 68.507812 177.09375 66.367188 179.296875 57.355469 169.753906 C 52.265625 164.363281 55.257812 166.660156 52.328125 162.488281 C 50.886719 160.4375 50.128906 162.058594 48.261719 160.742188 C 44.671875 158.203125 44.019531 158.0625 42.945312 158.070312 C 42.566406 158.082031 42.089844 158.117188 41.824219 157.921875 C 40.375 156.878906 38.488281 157.152344 36.992188 156.261719 C 36.691406 156.082031 36.257812 156.113281 35.867188 156.042969 C 35.632812 155.492188 35.441406 154.960938 35.195312 154.449219 C 34.953125 153.957031 34.328125 153.632812 34.550781 152.945312 L 34.449219 152.96875 "/>
</g>
</g>
</g>
<g clip-path="url(#clip8)" clip-rule="nonzero">
<g clip-path="url(#clip9)" clip-rule="nonzero">
<g clip-path="url(#clip10)" clip-rule="nonzero">
<path style=" stroke:none;fill-rule:nonzero;fill:rgb(94.898987%,79.998779%,34.899902%);fill-opacity:1;" d="M 130.878906 149.175781 C 131.675781 144.625 128.351562 141.898438 127.492188 139.757812 C 126.648438 137.660156 125.023438 128.570312 130.769531 123.800781 C 133.105469 121.859375 134.765625 121.296875 136.328125 118.867188 C 137.714844 116.710938 142.277344 115.777344 144.6875 117.371094 C 145.667969 118.023438 146.785156 117.941406 147.765625 117.800781 C 149.542969 117.546875 151.199219 118.113281 152.90625 118.203125 C 154.484375 118.28125 155.476562 120.695312 159.222656 120.300781 C 161.351562 122.753906 161.765625 123.066406 161.589844 123.652344 C 161.246094 124.816406 162.574219 125.71875 162.25 126.617188 C 161.570312 128.503906 162.179688 129.71875 163.300781 133.597656 C 162.808594 134.847656 161.660156 134.65625 160.003906 140.132812 C 158.832031 144.019531 150.246094 151.195312 143.890625 152.625 C 141.234375 153.21875 141.765625 152.351562 137.910156 152.8125 C 136.117188 153.019531 135.835938 152.507812 130.878906 149.175781 "/>
</g>
</g>
</g>
<g clip-path="url(#clip11)" clip-rule="nonzero">
<g clip-path="url(#clip12)" clip-rule="nonzero">
<g clip-path="url(#clip13)" clip-rule="nonzero">
<path style=" stroke:none;fill-rule:nonzero;fill:rgb(94.898987%,79.998779%,34.899902%);fill-opacity:1;" d="M 124.992188 147.652344 C 126.171875 151.617188 125.953125 150.226562 126.621094 152.117188 C 127.082031 153.429688 125.347656 154.46875 125.207031 153.6875 C 124.742188 151.132812 123.027344 151.734375 119.179688 148.355469 C 119.984375 147.582031 121.0625 146.941406 120.871094 145.457031 C 120.472656 144.933594 120.015625 144.324219 119.542969 143.699219 C 115.109375 142.441406 118.699219 143.570312 113.015625 143.96875 C 112.71875 143.152344 112.640625 142.640625 113.382812 141.917969 C 114.617188 140.710938 115.910156 139.648438 117.378906 138.839844 C 117.433594 135.734375 118.070312 136.1875 115.109375 132.15625 C 115.542969 131.414062 116.304688 131.289062 117.035156 131.074219 C 118.214844 130.722656 118.03125 129.71875 118.15625 127.074219 C 123.386719 126.867188 120.085938 127.476562 124.09375 130.453125 C 127.191406 132.753906 121.789062 133.941406 123.269531 138.800781 C 123.484375 139.503906 122.109375 140.832031 123.515625 142.335938 C 124.925781 143.839844 124.132812 145.542969 125.933594 146.027344 C 126.136719 146.082031 126.386719 146.421875 126.402344 146.644531 C 126.4375 147.121094 126.027344 147.210938 125.632812 147.285156 C 125.460938 147.316406 125.304688 147.46875 124.992188 147.652344 "/>
</g>
</g>
</g>
<g clip-path="url(#clip14)" clip-rule="nonzero">
<g clip-path="url(#clip15)" clip-rule="nonzero">
<g clip-path="url(#clip16)" clip-rule="nonzero">
<path style=" stroke:none;fill-rule:nonzero;fill:rgb(94.898987%,79.998779%,34.899902%);fill-opacity:1;" d="M 122.414062 122.355469 C 123.136719 121.925781 123.710938 121.589844 124.308594 121.234375 C 125.3125 121.359375 125.972656 122.089844 126.714844 122.65625 C 127.011719 123.933594 127.949219 125.0625 127.457031 126.558594 C 125.742188 126.484375 124.808594 124.992188 122.644531 125.117188 C 121.929688 125.15625 117.636719 121.199219 118.773438 121.074219 C 119.515625 120.992188 119.417969 121.039062 122.414062 122.355469 "/>
</g>
</g>
</g>
<g clip-path="url(#clip17)" clip-rule="nonzero">
<g clip-path="url(#clip18)" clip-rule="nonzero">
<g clip-path="url(#clip19)" clip-rule="nonzero">
<path style=" stroke:none;fill-rule:nonzero;fill:rgb(94.898987%,79.998779%,34.899902%);fill-opacity:1;" d="M 147.878906 154.695312 C 148.4375 152.96875 150.394531 153.242188 151.109375 151.828125 C 156.097656 154.203125 151.332031 154.300781 151.316406 156.640625 C 151.316406 157.273438 150.179688 157.484375 149.75 156.976562 C 149.148438 156.269531 148.574219 155.542969 147.878906 154.695312 "/>
</g>
</g>
</g>
<g clip-path="url(#clip20)" clip-rule="nonzero">
<g clip-path="url(#clip21)" clip-rule="nonzero">
<g clip-path="url(#clip22)" clip-rule="nonzero">
<path style=" stroke:none;fill-rule:nonzero;fill:rgb(94.898987%,79.998779%,34.899902%);fill-opacity:1;" d="M 141.882812 155.171875 C 144.382812 156.027344 144.015625 156.273438 144.132812 159.699219 C 143.710938 160.160156 143.265625 160.640625 142.886719 161.058594 C 141.882812 161.097656 141.738281 160.480469 140.34375 157.867188 C 140.546875 156.878906 140.664062 155.707031 141.9375 155.15625 L 141.882812 155.171875 "/>
</g>
</g>
</g>
<g clip-path="url(#clip23)" clip-rule="nonzero">
<g clip-path="url(#clip24)" clip-rule="nonzero">
<g clip-path="url(#clip25)" clip-rule="nonzero">
<path style=" stroke:none;fill-rule:nonzero;fill:rgb(94.898987%,79.998779%,34.899902%);fill-opacity:1;" d="M 138.917969 157.054688 C 139.726562 158.917969 138.679688 159.898438 138.328125 160.925781 C 138.195312 161.324219 138.390625 161.808594 138.140625 162.316406 C 136.578125 161.265625 137.347656 160.890625 136.015625 159.582031 C 134.921875 158.5 135.132812 155.105469 136.699219 155.878906 C 137.46875 156.261719 138.210938 156.679688 138.917969 157.054688 "/>
</g>
</g>
</g>
<g clip-path="url(#clip26)" clip-rule="nonzero">
<g clip-path="url(#clip27)" clip-rule="nonzero">
<g clip-path="url(#clip28)" clip-rule="nonzero">
<path style=" stroke:none;fill-rule:nonzero;fill:rgb(94.898987%,79.998779%,34.899902%);fill-opacity:1;" d="M 47.414062 115.515625 C 47.617188 116.667969 47.894531 117.851562 46.957031 119.042969 C 46.34375 118.886719 43.566406 118.605469 44.757812 116.757812 C 45.355469 115.828125 46.023438 115.046875 47.414062 115.515625 "/>
</g>
</g>
</g>
<g clip-path="url(#clip29)" clip-rule="nonzero">
<g clip-path="url(#clip30)" clip-rule="nonzero">
<g clip-path="url(#clip31)" clip-rule="nonzero">
<path style=" stroke:none;fill-rule:nonzero;fill:rgb(94.898987%,79.998779%,34.899902%);fill-opacity:1;" d="M 94.765625 187.933594 C 95.335938 186.59375 96.28125 185.953125 97.691406 186.039062 C 99.183594 187.425781 97.027344 189.496094 95.996094 189.851562 C 95.472656 189.820312 95.769531 189.121094 95.480469 188.8125 C 95.234375 188.539062 95.019531 188.246094 94.765625 187.933594 "/>
</g>
</g>
</g>
<g clip-path="url(#clip32)" clip-rule="nonzero">
<g clip-path="url(#clip33)" clip-rule="nonzero">
<g clip-path="url(#clip34)" clip-rule="nonzero">
<path style=" stroke:none;fill-rule:nonzero;fill:rgb(94.898987%,79.998779%,34.899902%);fill-opacity:1;" d="M 105.382812 122.21875 C 104.769531 123.527344 106.597656 124.4375 106.878906 127.15625 C 105.808594 127.84375 106.699219 125.933594 105.199219 125.769531 C 105.046875 125.75 104.773438 125.59375 104.777344 125.5 C 104.796875 124.292969 103.644531 123.84375 103.023438 122.980469 C 104.035156 122.039062 104.488281 121.320312 105.421875 122.320312 L 105.382812 122.21875 "/>
</g>
</g>
</g>
<g clip-path="url(#clip35)" clip-rule="nonzero">
<g clip-path="url(#clip36)" clip-rule="nonzero">
<g clip-path="url(#clip37)" clip-rule="nonzero">
<path style=" stroke:none;fill-rule:nonzero;fill:rgb(94.898987%,79.998779%,34.899902%);fill-opacity:1;" d="M 99.820312 103.242188 C 99.414062 102.75 99.003906 102.265625 98.621094 101.800781 C 98.160156 101.878906 97.714844 101.949219 97.273438 102.023438 L 97.296875 102.113281 C 98.121094 98.621094 97.746094 98.882812 99.390625 98.597656 C 100.160156 100.023438 100.253906 101.578125 100.175781 103.171875 C 100.058594 103.207031 99.945312 103.230469 99.820312 103.242188 "/>
</g>
</g>
</g>
<g clip-path="url(#clip38)" clip-rule="nonzero">
<g clip-path="url(#clip39)" clip-rule="nonzero">
<g clip-path="url(#clip40)" clip-rule="nonzero">
<path style=" stroke:none;fill-rule:nonzero;fill:rgb(94.898987%,79.998779%,34.899902%);fill-opacity:1;" d="M 127.128906 120.019531 C 124.816406 118.441406 123.496094 117.714844 123.765625 117.210938 C 124.222656 116.375 124.960938 116.394531 125.929688 116.636719 C 126.511719 116.789062 126.707031 117.433594 127.277344 119.554688 C 127.3125 119.683594 127.136719 119.875 127.0625 120.035156 L 127.128906 120.019531 "/>
</g>
</g>
</g>
<g clip-path="url(#clip41)" clip-rule="nonzero">
<g clip-path="url(#clip42)" clip-rule="nonzero">
<g clip-path="url(#clip43)" clip-rule="nonzero">
<path style=" stroke:none;fill-rule:nonzero;fill:rgb(94.898987%,79.998779%,34.899902%);fill-opacity:1;" d="M 93.925781 107.363281 C 94.554688 107.121094 94.910156 106.988281 95.292969 106.84375 C 96.09375 105.796875 94.058594 105.003906 97.054688 104.140625 C 96.722656 106.417969 96.800781 105.441406 96.765625 107.738281 C 95.894531 108.132812 95.035156 108.25 93.925781 107.363281 "/>
</g>
</g>
</g>
<g clip-path="url(#clip44)" clip-rule="nonzero">
<g clip-path="url(#clip45)" clip-rule="nonzero">
<g clip-path="url(#clip46)" clip-rule="nonzero">
<path style=" stroke:none;fill-rule:nonzero;fill:rgb(94.898987%,79.998779%,34.899902%);fill-opacity:1;" d="M 92.277344 112.441406 C 93.28125 113.929688 91.484375 114.253906 89.613281 114.996094 C 88.722656 114.402344 88.734375 112.777344 90.132812 112.539062 C 90.851562 112.410156 91.605469 112.464844 92.277344 112.441406 "/>
</g>
</g>
</g>
<g clip-path="url(#clip47)" clip-rule="nonzero">
<g clip-path="url(#clip48)" clip-rule="nonzero">
<g clip-path="url(#clip49)" clip-rule="nonzero">
<path style=" stroke:none;fill-rule:nonzero;fill:rgb(94.898987%,79.998779%,34.899902%);fill-opacity:1;" d="M 43.027344 70.917969 C 45.601562 71.183594 44.894531 73.636719 43.796875 73.601562 C 41.675781 73.535156 42.808594 71.511719 43.027344 70.917969 "/>
</g>
</g>
</g>
<g clip-path="url(#clip50)" clip-rule="nonzero">
<g clip-path="url(#clip51)" clip-rule="nonzero">
<g clip-path="url(#clip52)" clip-rule="nonzero">
<path style=" stroke:none;fill-rule:nonzero;fill:rgb(94.898987%,79.998779%,34.899902%);fill-opacity:1;" d="M 86.1875 104.785156 C 85.492188 105.066406 84.800781 105.347656 84.101562 105.632812 C 83.601562 104.957031 83.617188 104.257812 83.988281 103.539062 C 85.789062 103.445312 85.792969 103.441406 86.1875 104.785156 "/>
</g>
</g>
</g>
<g clip-path="url(#clip53)" clip-rule="nonzero">
<g clip-path="url(#clip54)" clip-rule="nonzero">
<g clip-path="url(#clip55)" clip-rule="nonzero">
<path style=" stroke:none;fill-rule:nonzero;fill:rgb(94.898987%,79.998779%,34.899902%);fill-opacity:1;" d="M 116.4375 150.171875 C 116.105469 151.257812 115.675781 151.921875 114.878906 152.335938 C 114.039062 151.5625 114.765625 150.808594 114.675781 149.898438 C 115.328125 149.996094 115.769531 150.066406 116.4375 150.171875 "/>
</g>
</g>
</g>
<g clip-path="url(#clip56)" clip-rule="nonzero">
<g clip-path="url(#clip57)" clip-rule="nonzero">
<g clip-path="url(#clip58)" clip-rule="nonzero">
<path style=" stroke:none;fill-rule:nonzero;fill:rgb(94.898987%,79.998779%,34.899902%);fill-opacity:1;" d="M 157.5625 152.550781 C 157.097656 153.09375 156.945312 153.445312 156.757812 153.46875 C 154.957031 153.695312 154.070312 151.523438 154.875 151.738281 C 155.667969 151.953125 156.4375 152.207031 157.5625 152.550781 "/>
</g>
</g>
</g>
<g clip-path="url(#clip59)" clip-rule="nonzero">
<g clip-path="url(#clip60)" clip-rule="nonzero">
<g clip-path="url(#clip61)" clip-rule="nonzero">
<path style=" stroke:none;fill-rule:nonzero;fill:rgb(94.898987%,79.998779%,34.899902%);fill-opacity:1;" d="M 131.667969 155.671875 C 132.300781 155.898438 132.707031 156.046875 133.261719 156.242188 C 133.078125 156.972656 132.914062 157.597656 132.726562 158.328125 C 131.8125 157.972656 132.046875 158.628906 131.667969 155.671875 "/>
</g>
</g>
</g>
<g clip-path="url(#clip62)" clip-rule="nonzero">
<g clip-path="url(#clip63)" clip-rule="nonzero">
<g clip-path="url(#clip64)" clip-rule="nonzero">
<path style=" stroke:none;fill-rule:nonzero;fill:rgb(94.898987%,79.998779%,34.899902%);fill-opacity:1;" d="M 113.019531 138.554688 C 112.984375 138.257812 112.882812 138.03125 112.960938 137.917969 C 113.546875 137.019531 115.667969 136.625 115.335938 138.328125 C 114.585938 138.398438 113.804688 138.476562 113.019531 138.554688 "/>
</g>
</g>
</g>
<g clip-path="url(#clip65)" clip-rule="nonzero">
<g clip-path="url(#clip66)" clip-rule="nonzero">
<g clip-path="url(#clip67)" clip-rule="nonzero">
<path style=" stroke:none;fill-rule:nonzero;fill:rgb(94.898987%,79.998779%,34.899902%);fill-opacity:1;" d="M 116.058594 111.117188 C 115.976562 110.320312 115.917969 109.769531 115.871094 109.261719 C 116.449219 108.753906 116.972656 108.660156 117.320312 109.339844 C 117.664062 110.007812 117.421875 110.34375 116.058594 111.117188 "/>
</g>
</g>
</g>
<g clip-path="url(#clip68)" clip-rule="nonzero">
<g clip-path="url(#clip69)" clip-rule="nonzero">
<g clip-path="url(#clip70)" clip-rule="nonzero">
<path style=" stroke:none;fill-rule:nonzero;fill:rgb(94.898987%,79.998779%,34.899902%);fill-opacity:1;" d="M 105.421875 122.320312 C 105.375 121.953125 105.324219 121.589844 105.277344 121.234375 C 106.332031 121.546875 106.332031 121.546875 107.28125 122.375 C 106.539062 122.796875 107.066406 122.902344 105.382812 122.21875 L 105.421875 122.320312 "/>
</g>
</g>
</g>
<g clip-path="url(#clip71)" clip-rule="nonzero">
<g clip-path="url(#clip72)" clip-rule="nonzero">
<g clip-path="url(#clip73)" clip-rule="nonzero">
<path style=" stroke:none;fill-rule:nonzero;fill:rgb(94.898987%,79.998779%,34.899902%);fill-opacity:1;" d="M 100.175781 103.171875 C 100.898438 103.726562 100.855469 104.507812 100.714844 105.265625 C 100.683594 105.460938 100.34375 105.605469 100.074219 105.828125 C 99.898438 104.902344 99.351562 104.128906 99.820312 103.242188 C 99.945312 103.230469 100.058594 103.207031 100.175781 103.171875 "/>
</g>
</g>
</g>
<g clip-path="url(#clip74)" clip-rule="nonzero">
<g clip-path="url(#clip75)" clip-rule="nonzero">
<g clip-path="url(#clip76)" clip-rule="nonzero">
<path style=" stroke:none;fill-rule:nonzero;fill:rgb(94.898987%,79.998779%,34.899902%);fill-opacity:1;" d="M 169.746094 81.277344 C 169.6875 81.125 169.523438 80.898438 169.578125 80.808594 C 169.816406 80.425781 170.09375 80.070312 170.421875 79.761719 C 170.484375 79.703125 170.976562 79.914062 171.015625 80.066406 C 171.214844 80.804688 170.425781 81.734375 169.746094 81.277344 "/>
</g>
</g>
</g>
<g clip-path="url(#clip77)" clip-rule="nonzero">
<g clip-path="url(#clip78)" clip-rule="nonzero">
<g clip-path="url(#clip79)" clip-rule="nonzero">
<path style=" stroke:none;fill-rule:nonzero;fill:rgb(94.898987%,79.998779%,34.899902%);fill-opacity:1;" d="M 124.511719 103.832031 C 124.097656 104.875 123.714844 105.675781 122.472656 105.785156 C 122.566406 104.449219 123.417969 104.144531 124.511719 103.832031 "/>
</g>
</g>
</g>
<g clip-path="url(#clip80)" clip-rule="nonzero">
<g clip-path="url(#clip81)" clip-rule="nonzero">
<g clip-path="url(#clip82)" clip-rule="nonzero">
<path style=" stroke:none;fill-rule:nonzero;fill:rgb(94.898987%,79.998779%,34.899902%);fill-opacity:1;" d="M 105.699219 130.171875 C 105.964844 129.78125 106.230469 129.382812 106.585938 128.855469 C 107.117188 129.136719 107.59375 129.394531 108.164062 129.703125 C 107.582031 130.039062 108.191406 129.949219 105.6875 130.078125 L 105.699219 130.171875 "/>
</g>
</g>
</g>
<g clip-path="url(#clip83)" clip-rule="nonzero">
<g clip-path="url(#clip84)" clip-rule="nonzero">
<g clip-path="url(#clip85)" clip-rule="nonzero">
<path style=" stroke:none;fill-rule:nonzero;fill:rgb(94.898987%,79.998779%,34.899902%);fill-opacity:1;" d="M 138.441406 35.101562 C 138.445312 35.867188 138.664062 36.632812 137.636719 36.230469 C 137.304688 36.097656 137.226562 35.441406 137.507812 35.253906 C 137.695312 35.125 138 35.164062 138.441406 35.101562 "/>
</g>
</g>
</g>
<g clip-path="url(#clip86)" clip-rule="nonzero">
<g clip-path="url(#clip87)" clip-rule="nonzero">
<g clip-path="url(#clip88)" clip-rule="nonzero">
<path style=" stroke:none;fill-rule:nonzero;fill:rgb(94.898987%,79.998779%,34.899902%);fill-opacity:1;" d="M 112.300781 140.554688 C 111.609375 141.058594 111.125 140.738281 110.695312 140.164062 C 111.585938 139.773438 111.585938 139.773438 112.300781 140.554688 "/>
</g>
</g>
</g>
<g clip-path="url(#clip89)" clip-rule="nonzero">
<g clip-path="url(#clip90)" clip-rule="nonzero">
<g clip-path="url(#clip91)" clip-rule="nonzero">
<path style=" stroke:none;fill-rule:nonzero;fill:rgb(94.898987%,79.998779%,34.899902%);fill-opacity:1;" d="M 135.070312 161.347656 C 134.617188 161.730469 133.53125 162.019531 133.921875 161.023438 C 134.542969 159.484375 135.714844 160.8125 135.070312 161.347656 "/>
</g>
</g>
</g>
<g clip-path="url(#clip92)" clip-rule="nonzero">
<g clip-path="url(#clip93)" clip-rule="nonzero">
<g clip-path="url(#clip94)" clip-rule="nonzero">
<path style=" stroke:none;fill-rule:nonzero;fill:rgb(94.898987%,79.998779%,34.899902%);fill-opacity:1;" d="M 164.46875 146.53125 C 165.773438 147.652344 165.484375 147.320312 165.617188 147.71875 C 165.0625 148.539062 163.636719 147.542969 164.5625 146.496094 L 164.46875 146.53125 "/>
</g>
</g>
</g>
<g clip-path="url(#clip95)" clip-rule="nonzero">
<g clip-path="url(#clip96)" clip-rule="nonzero">
<g clip-path="url(#clip97)" clip-rule="nonzero">
<path style=" stroke:none;fill-rule:nonzero;fill:rgb(94.898987%,79.998779%,34.899902%);fill-opacity:1;" d="M 129.699219 154.25 C 129.621094 155.246094 128.902344 155.25 128.117188 155.421875 C 128.414062 154.519531 129.003906 154.328125 129.699219 154.25 "/>
</g>
</g>
</g>
<g clip-path="url(#clip98)" clip-rule="nonzero">
<g clip-path="url(#clip99)" clip-rule="nonzero">
<g clip-path="url(#clip100)" clip-rule="nonzero">
<path style=" stroke:none;fill-rule:nonzero;fill:rgb(94.898987%,79.998779%,34.899902%);fill-opacity:1;" d="M 42.378906 79.492188 C 42.566406 80.605469 42.726562 80.328125 41.777344 80.550781 C 41.585938 79.636719 41.46875 79.925781 42.378906 79.492188 "/>
</g>
</g>
</g>
<g clip-path="url(#clip101)" clip-rule="nonzero">
<g clip-path="url(#clip102)" clip-rule="nonzero">
<g clip-path="url(#clip103)" clip-rule="nonzero">
<path style=" stroke:none;fill-rule:nonzero;fill:rgb(94.898987%,79.998779%,34.899902%);fill-opacity:1;" d="M 165.445312 101.46875 C 164.6875 101.882812 164.808594 101.960938 164.394531 101.464844 C 164.261719 101.300781 164.652344 100.792969 165.625 100.855469 C 165.566406 101.03125 165.523438 101.210938 165.445312 101.46875 "/>
</g>
</g>
</g>
<g clip-path="url(#clip104)" clip-rule="nonzero">
<g clip-path="url(#clip105)" clip-rule="nonzero">
<g clip-path="url(#clip106)" clip-rule="nonzero">
<path style=" stroke:none;fill-rule:nonzero;fill:rgb(94.898987%,79.998779%,34.899902%);fill-opacity:1;" d="M 164.5625 146.496094 C 164.121094 146.433594 163.671875 146.375 163.21875 146.308594 C 163.226562 145.566406 163.757812 145.539062 164.113281 145.636719 C 164.300781 145.6875 164.355469 146.222656 164.46875 146.53125 L 164.5625 146.496094 "/>
</g>
</g>
</g>
<g clip-path="url(#clip107)" clip-rule="nonzero">
<g clip-path="url(#clip108)" clip-rule="nonzero">
<g clip-path="url(#clip109)" clip-rule="nonzero">
<path style=" stroke:none;fill-rule:nonzero;fill:rgb(94.898987%,79.998779%,34.899902%);fill-opacity:1;" d="M 100.414062 192.148438 C 99.265625 192.398438 99.585938 192.515625 99.265625 191.648438 C 100.226562 191.304688 99.90625 191.242188 100.414062 192.148438 "/>
</g>
</g>
</g>
<g clip-path="url(#clip110)" clip-rule="nonzero">
<g clip-path="url(#clip111)" clip-rule="nonzero">
<g clip-path="url(#clip112)" clip-rule="nonzero">
<path style=" stroke:none;fill-rule:nonzero;fill:rgb(94.898987%,79.998779%,34.899902%);fill-opacity:1;" d="M 161.644531 148.203125 C 161.433594 148.214844 161.300781 148.222656 161.15625 148.234375 C 161.164062 148.011719 161.152344 147.792969 161.183594 147.578125 C 161.183594 147.542969 161.410156 147.496094 161.410156 147.503906 C 161.496094 147.726562 161.566406 147.957031 161.644531 148.203125 "/>
</g>
</g>
</g>
<g clip-path="url(#clip113)" clip-rule="nonzero">
<g clip-path="url(#clip114)" clip-rule="nonzero">
<g clip-path="url(#clip115)" clip-rule="nonzero">
<path style=" stroke:none;fill-rule:nonzero;fill:rgb(94.898987%,79.998779%,34.899902%);fill-opacity:1;" d="M 108.796875 134.378906 C 108.703125 134.609375 108.609375 134.8125 108.527344 135.015625 C 108.039062 134.789062 108.09375 135.007812 108.152344 134.28125 C 108.332031 134.308594 108.503906 134.332031 108.796875 134.378906 "/>
</g>
</g>
</g>
<g clip-path="url(#clip116)" clip-rule="nonzero">
<g clip-path="url(#clip117)" clip-rule="nonzero">
<g clip-path="url(#clip118)" clip-rule="nonzero">
<path style=" stroke:none;fill-rule:nonzero;fill:rgb(94.898987%,79.998779%,34.899902%);fill-opacity:1;" d="M 110.488281 147.414062 C 110.28125 147.320312 110.082031 147.226562 109.886719 147.132812 C 110.117188 146.835938 110.175781 146.570312 110.621094 146.96875 C 110.660156 147.003906 110.550781 147.210938 110.488281 147.414062 "/>
</g>
</g>
</g>
<g clip-path="url(#clip119)" clip-rule="nonzero">
<g clip-path="url(#clip120)" clip-rule="nonzero">
<g clip-path="url(#clip121)" clip-rule="nonzero">
<path style=" stroke:none;fill-rule:nonzero;fill:rgb(94.898987%,79.998779%,34.899902%);fill-opacity:1;" d="M 125.34375 157.078125 C 125.636719 157.710938 125.757812 157.515625 124.949219 157.984375 C 124.828125 157.601562 124.75 157.863281 125.34375 157.078125 "/>
</g>
</g>
</g>
<g clip-path="url(#clip122)" clip-rule="nonzero">
<g clip-path="url(#clip123)" clip-rule="nonzero">
<g clip-path="url(#clip124)" clip-rule="nonzero">
<path style=" stroke:none;fill-rule:nonzero;fill:rgb(94.898987%,79.998779%,34.899902%);fill-opacity:1;" d="M 158.789062 153.550781 C 158.164062 153.304688 158.304688 153.464844 158.359375 152.878906 C 158.863281 153.070312 158.785156 152.875 158.789062 153.550781 "/>
</g>
</g>
</g>
<g clip-path="url(#clip125)" clip-rule="nonzero">
<g clip-path="url(#clip126)" clip-rule="nonzero">
<g clip-path="url(#clip127)" clip-rule="nonzero">
<path style=" stroke:none;fill-rule:nonzero;fill:rgb(94.898987%,79.998779%,34.899902%);fill-opacity:1;" d="M 130.316406 164.125 C 130.046875 163.550781 130.035156 163.757812 130.433594 163.351562 C 130.554688 163.835938 130.609375 163.613281 130.230469 164.144531 L 130.316406 164.125 "/>
</g>
</g>
</g>
<g clip-path="url(#clip128)" clip-rule="nonzero">
<g clip-path="url(#clip129)" clip-rule="nonzero">
<g clip-path="url(#clip130)" clip-rule="nonzero">
<path style=" stroke:none;fill-rule:nonzero;fill:rgb(94.898987%,79.998779%,34.899902%);fill-opacity:1;" d="M 128.136719 157.769531 C 128 157.851562 127.859375 157.921875 127.726562 158 C 127.679688 157.773438 127.515625 157.820312 128.117188 157.507812 C 128.125 157.59375 128.128906 157.679688 128.136719 157.769531 "/>
</g>
</g>
</g>
<g clip-path="url(#clip131)" clip-rule="nonzero">
<g clip-path="url(#clip132)" clip-rule="nonzero">
<g clip-path="url(#clip133)" clip-rule="nonzero">
<path style=" stroke:none;fill-rule:nonzero;fill:rgb(94.898987%,79.998779%,34.899902%);fill-opacity:1;" d="M 139.730469 161.058594 C 139.601562 161.644531 139.597656 161.511719 139.382812 161.519531 C 139.53125 160.910156 139.527344 161.066406 139.730469 161.058594 "/>
</g>
</g>
</g>
<g clip-path="url(#clip134)" clip-rule="nonzero">
<g clip-path="url(#clip135)" clip-rule="nonzero">
<g clip-path="url(#clip136)" clip-rule="nonzero">
<path style=" stroke:none;fill-rule:nonzero;fill:rgb(94.898987%,79.998779%,34.899902%);fill-opacity:1;" d="M 160.875 51.40625 C 160.625 51.375 160.652344 51.46875 160.660156 51.109375 C 160.9375 51.25 160.863281 51.1875 160.875 51.40625 "/>
</g>
</g>
</g>
<g clip-path="url(#clip137)" clip-rule="nonzero">
<g clip-path="url(#clip138)" clip-rule="nonzero">
<g clip-path="url(#clip139)" clip-rule="nonzero">
<path style=" stroke:none;fill-rule:nonzero;fill:rgb(94.898987%,79.998779%,34.899902%);fill-opacity:1;" d="M 146.632812 106.535156 C 146.496094 106.574219 146.363281 106.605469 146.230469 106.644531 C 146.417969 106.460938 146.308594 106.449219 146.640625 106.59375 L 146.632812 106.535156 "/>
</g>
</g>
</g>
<g clip-path="url(#clip140)" clip-rule="nonzero">
<g clip-path="url(#clip141)" clip-rule="nonzero">
<g clip-path="url(#clip142)" clip-rule="nonzero">
<path style=" stroke:none;fill-rule:nonzero;fill:rgb(94.898987%,79.998779%,34.899902%);fill-opacity:1;" d="M 172.773438 73.820312 C 172.808594 73.875 172.851562 73.933594 172.890625 73.988281 C 172.886719 73.925781 172.878906 73.859375 172.875 73.796875 L 172.773438 73.820312 "/>
<path style=" stroke:none;fill-rule:nonzero;fill:rgb(94.898987%,79.998779%,34.899902%);fill-opacity:1;" d="M 172.875 73.796875 C 172.851562 73.667969 172.824219 73.527344 172.796875 73.398438 C 172.886719 73.570312 172.929688 73.472656 172.773438 73.820312 L 172.875 73.796875 "/>
</g>
</g>
</g>
<g clip-path="url(#clip143)" clip-rule="nonzero">
<g clip-path="url(#clip144)" clip-rule="nonzero">
<g clip-path="url(#clip145)" clip-rule="nonzero">
<path style=" stroke:none;fill-rule:nonzero;fill:rgb(94.898987%,79.998779%,34.899902%);fill-opacity:1;" d="M 130.230469 164.144531 C 130.28125 164.210938 130.328125 164.277344 130.378906 164.34375 C 130.359375 164.273438 130.335938 164.199219 130.316406 164.125 L 130.230469 164.144531 "/>
</g>
</g>
</g>
<g clip-path="url(#clip146)" clip-rule="nonzero">
<g clip-path="url(#clip147)" clip-rule="nonzero">
<g clip-path="url(#clip148)" clip-rule="nonzero">
<path style=" stroke:none;fill-rule:nonzero;fill:rgb(94.898987%,79.998779%,34.899902%);fill-opacity:1;" d="M 140.074219 163.058594 C 140.117188 163.128906 140.160156 163.203125 140.199219 163.277344 C 140.183594 163.199219 140.171875 163.113281 140.15625 163.035156 L 140.074219 163.058594 "/>
</g>
</g>
</g>
<g clip-path="url(#clip149)" clip-rule="nonzero">
<g clip-path="url(#clip150)" clip-rule="nonzero">
<g clip-path="url(#clip151)" clip-rule="nonzero">
<path style=" stroke:none;fill-rule:nonzero;fill:rgb(94.898987%,79.998779%,34.899902%);fill-opacity:1;" d="M 127.347656 154.847656 C 127.042969 154.875 127.109375 154.933594 127.082031 154.628906 C 127.386719 154.601562 127.3125 154.542969 127.347656 154.847656 "/>
</g>
</g>
</g>
<g clip-path="url(#clip152)" clip-rule="nonzero">
<g clip-path="url(#clip153)" clip-rule="nonzero">
<g clip-path="url(#clip154)" clip-rule="nonzero">
<path style=" stroke:none;fill-rule:nonzero;fill:rgb(94.898987%,79.998779%,34.899902%);fill-opacity:1;" d="M 141.9375 155.15625 C 141.910156 155.046875 141.882812 154.929688 141.855469 154.8125 C 141.992188 154.988281 141.964844 154.925781 141.882812 155.171875 L 141.9375 155.15625 "/>
</g>
</g>
</g>
<g clip-path="url(#clip155)" clip-rule="nonzero">
<g clip-path="url(#clip156)" clip-rule="nonzero">
<g clip-path="url(#clip157)" clip-rule="nonzero">
<path style=" stroke:none;fill-rule:nonzero;fill:rgb(94.898987%,79.998779%,34.899902%);fill-opacity:1;" d="M 105.6875 130.078125 C 105.34375 130.171875 105.628906 130.152344 105.699219 130.171875 L 105.6875 130.078125 "/>
</g>
</g>
</g>
<g clip-path="url(#clip158)" clip-rule="nonzero">
<g clip-path="url(#clip159)" clip-rule="nonzero">
<g clip-path="url(#clip160)" clip-rule="nonzero">
<path style=" stroke:none;fill-rule:nonzero;fill:rgb(94.898987%,79.998779%,34.899902%);fill-opacity:1;" d="M 34.550781 152.945312 C 34.488281 152.8125 34.429688 152.683594 34.378906 152.550781 C 34.503906 152.679688 34.523438 152.578125 34.449219 152.96875 L 34.550781 152.945312 "/>
</g>
</g>
</g>
<g clip-path="url(#clip161)" clip-rule="nonzero">
<g clip-path="url(#clip162)" clip-rule="nonzero">
<g clip-path="url(#clip163)" clip-rule="nonzero">
<path style=" stroke:none;fill-rule:nonzero;fill:rgb(94.898987%,79.998779%,34.899902%);fill-opacity:1;" d="M 140.15625 163.035156 C 140.070312 162.917969 139.980469 162.796875 139.886719 162.675781 C 140.441406 162.554688 140.109375 162.882812 140.074219 163.058594 L 140.15625 163.035156 "/>
</g>
</g>
</g>
<g clip-path="url(#clip164)" clip-rule="nonzero">
<g clip-path="url(#clip165)" clip-rule="nonzero">
<g clip-path="url(#clip166)" clip-rule="nonzero">
<path style=" stroke:none;fill-rule:nonzero;fill:rgb(94.898987%,79.998779%,34.899902%);fill-opacity:1;" d="M 97.273438 102.023438 C 97.199219 102.078125 97.125 102.140625 97.050781 102.207031 C 97.136719 102.171875 97.214844 102.144531 97.296875 102.113281 L 97.273438 102.023438 "/>
</g>
</g>
</g>
<g clip-path="url(#clip167)" clip-rule="nonzero">
<g clip-path="url(#clip168)" clip-rule="nonzero">
<g clip-path="url(#clip169)" clip-rule="nonzero">
<path style=" stroke:none;fill-rule:nonzero;fill:rgb(94.898987%,79.998779%,34.899902%);fill-opacity:1;" d="M 127.0625 120.035156 C 127.121094 120.105469 127.179688 120.171875 127.238281 120.242188 C 127.203125 120.167969 127.164062 120.09375 127.128906 120.019531 L 127.0625 120.035156 "/>
</g>
</g>
</g>
</g>
</defs>
<g id="surface1">
<use xlink:href="#surface5" mask="url(#mask0)"/>
</g>
</svg>
