<?xml version="1.0" encoding="UTF-8" standalone="no"?>
<svg
   xmlns:dc="http://purl.org/dc/elements/1.1/"
   xmlns:cc="http://creativecommons.org/ns#"
   xmlns:rdf="http://www.w3.org/1999/02/22-rdf-syntax-ns#"
   xmlns:svg="http://www.w3.org/2000/svg"
   xmlns="http://www.w3.org/2000/svg"
   xmlns:sodipodi="http://sodipodi.sourceforge.net/DTD/sodipodi-0.dtd"
   xmlns:inkscape="http://www.inkscape.org/namespaces/inkscape"
   version="1.1"
   id="svg349"
   width="1350"
   height="650"
   viewBox="0 0 1350 650"
   sodipodi:docname="pig-perfect.svg"
   inkscape:version="1.0.1 (c497b03c, 2020-09-10)">
  <metadata
     id="metadata355">
    <rdf:RDF>
      <cc:Work
         rdf:about="">
        <dc:format>image/svg+xml</dc:format>
        <dc:type
           rdf:resource="http://purl.org/dc/dcmitype/StillImage" />
        <dc:title></dc:title>
      </cc:Work>
    </rdf:RDF>
  </metadata>
  <defs
     id="defs353" />
  <sodipodi:namedview
     pagecolor="#ffffff"
     bordercolor="#666666"
     borderopacity="1"
     objecttolerance="10"
     gridtolerance="10"
     guidetolerance="10"
     inkscape:pageopacity="0"
     inkscape:pageshadow="2"
     inkscape:window-width="1680"
     inkscape:window-height="1024"
     id="namedview351"
     showgrid="false"
     inkscape:zoom="0.81185185"
     inkscape:cx="675"
     inkscape:cy="325"
     inkscape:window-x="0"
     inkscape:window-y="26"
     inkscape:window-maximized="0"
     inkscape:current-layer="g357" />
  <g
     inkscape:groupmode="layer"
     inkscape:label="Image"
     id="g357">
    <path
       style="fill:#0249ad;stroke:none"
       d="m 404.88869,219.91424 c 2.039,7.486 8.633,11.907 14,17.039 12.286,11.749 26.519,23.343 44,25.961 -0.298,13.989 -2.478,30.4 -13.285,40.544 -4.482,4.206 -19.367,6.937 -20.803,11.515 -4.013,12.789 4.41,30.307 17.088,34.288 13.246,4.16 31.301,-0.008 45,-0.007 14.287,0 27.528,2.802 42,1.66 0,11.174 -5.032,21.291 -4.917,32 0.071,6.683 4.4,12.69 6.171,19 2.744,9.779 2.964,19.277 6.552,29 1.817,4.924 0.073,13.44 3.929,17.248 7.41099,7.319 20.79099,-2.344 22.70799,-10.248 1.251,-5.158 -3.874,-16.414 -6.443,-21 l 8,4 c 2.796,-13.419 -15.428,-17.912 -11.362,-32 1.37,-4.745 4.838,-8.322 7.938,-12 8.094,-9.604 33.61,-45.075 44.855,-24 2.949,5.525 3.429,12.945 4.942,19 3.899,15.595 10.122,32.922 6.392,49 -2.96,12.756 -10.929,22.962 -14.765,35 12.83,3.828 31.025,6.33 34,-9 6.226,0.534 10.125,-6.148 9.811,-12 -0.452,-8.429 -3.991,-16.699 -4.301,-25 -0.187,-5.009 3.261,-9.579 5.153,-14 3.792,-8.864 5.076,-22.951 12.727,-29.593 4.041,-3.507 11.907,-0.293 16.61,0.308 12.891,1.645 27.156,2.67 40,0.285 0,18.305 -1.16,36.359 -6.438,54 -2.883,9.637 -8.32,18.316 -10.562,28 4.875,1.164 20.299,5.031 23.972,0.397 2.17,-2.738 2.425,-10.836 3.028,-14.397 h 1 l 1,6 c 11.065,-8.99 1.776,-21.602 3.708,-33 1.851,-10.919 9.261,-20.063 11.63,-31 1.061,-4.898 0.121,-13.705 3.265,-17.61 5.543,-6.881 24.936,-13.869 33.397,-16.384 6.406,-1.904 13.752,4.224 19,7.279 19.786,11.516 27.459,38.223 27.985,59.715 0.169,6.9 -3.028,19.77 -0.381,25.848 3.519,8.081 19.28,2.077 22.793,-2.953 2.453,-3.513 0.749,-7.018 0.916,-10.856 0.217,-4.977 4.138,-8.645 2.959,-14.039 -1.656,-7.584 -8.347,-12.751 -8.217,-21 0.122,-7.769 3.796,-15.251 4.655,-23 0.935,-8.433 -3.407,-16.329 -2.539,-25 2.594,-25.951 9.216,-48.576 2.945,-75 -2.693,-11.347 -6.571,-22.946 -12.569,-33 -2.814,-4.718 -10.809,-10.781 -11.614,-16.086 -0.588,-3.876 3.348,-6.133 6.067,-7.914 -5.46,-6.98001 -14.799,-13.60201 -24,-12.90601 -4.318,0.327 -8.708,3.399 -13,2.678 -6.016,-1.011 -12.224,-5.022 -18,-7.08 -12.004,-4.276 -24.511,-7.578 -37,-10.092 -48.092,-9.679 -100.629,-14.844 -149,-4.176 -22.11,4.877 -44.941,13.347 -64.99999,23.896 -11.167,5.87301 -21.849,16.19901 -34,19.74201 -22.996,6.704 -49.211,6.766 -73,4.845 -6.509,-0.526 -12.385,-3.619 -19,-3.907 m 414.99999,-12 -5,-2 5,2 m -259,208 -1,1 z"
       id="path361" />
  </g>
</svg>
