<?xml version="1.0" encoding="UTF-8" standalone="no"?>
<svg
   xmlns:dc="http://purl.org/dc/elements/1.1/"
   xmlns:cc="http://creativecommons.org/ns#"
   xmlns:rdf="http://www.w3.org/1999/02/22-rdf-syntax-ns#"
   xmlns:svg="http://www.w3.org/2000/svg"
   xmlns="http://www.w3.org/2000/svg"
   xmlns:sodipodi="http://sodipodi.sourceforge.net/DTD/sodipodi-0.dtd"
   xmlns:inkscape="http://www.inkscape.org/namespaces/inkscape"
   version="1.1"
   id="svg122"
   width="288"
   height="288"
   viewBox="0 0 288 288"
   sodipodi:docname="swiggle-perfect.svg"
   inkscape:version="1.0.1 (c497b03c, 2020-09-10)">
  <metadata
     id="metadata128">
    <rdf:RDF>
      <cc:Work
         rdf:about="">
        <dc:format>image/svg+xml</dc:format>
        <dc:type
           rdf:resource="http://purl.org/dc/dcmitype/StillImage" />
        <dc:title></dc:title>
      </cc:Work>
    </rdf:RDF>
  </metadata>
  <defs
     id="defs126" />
  <sodipodi:namedview
     pagecolor="#ffffff"
     bordercolor="#666666"
     borderopacity="1"
     objecttolerance="10"
     gridtolerance="10"
     guidetolerance="10"
     inkscape:pageopacity="0"
     inkscape:pageshadow="2"
     inkscape:window-width="1680"
     inkscape:window-height="1024"
     id="namedview124"
     showgrid="false"
     inkscape:pagecheckerboard="true"
     inkscape:zoom="1"
     inkscape:cx="144"
     inkscape:cy="144"
     inkscape:window-x="0"
     inkscape:window-y="26"
     inkscape:window-maximized="0"
     inkscape:current-layer="g130" />
  <g
     inkscape:groupmode="layer"
     inkscape:label="Image"
     id="g130">
    <path
       style="fill:#f1cc5c;stroke:none"
       d="m 9,120 c -1.45638,7.963 0.67964,20.453 10.0008,22.606 7.0816,1.635 14.9451,-0.763 21.9992,-1.556 17.9433,-2.015 35.9909,-5.627 54,-7.05 -2.6197,3.883 -5.5803,7.76 -7.598,12 -12.5226,26.318 22.299,20.462 36.598,16 v -1 h -4 v -1 l 16,-2 v -1 h -2 v -1 l 53,-7 v 1 l -43,9 v 1 l 34,-4 c -5.024,6.623 -14.379,20.497 -2.945,26.825 7.104,3.931 18.127,0.872 25.945,1.214 25.346,1.11 50.685,-2.065 76,-0.039 l -1,-3 3,-1 c 0.435,-13.731 -8.699,-14.185 -21,-15.025 C 240.358,163.771 222.711,164 205,164 v -1 c 16.873,-7.287 19.588,-28.824 -1,-32.535 -23.818,-4.295 -56.704,2.924 -80,8.535 v -1 l 3,-1 c 0.309,-8.598 6.779,-16.597 -0.649,-24.442 C 119.773,105.61 105.318,109.557 97,109.961 67.53,111.394 38.5873,119.755 9,120 m 86,6.333 0.3333,0.334 C 94.8398,126.831 94.2266,126.333 95,126.333 M 99,129 v 1 l -9,1 v 1 h 4 v 1 c -6.7597,-0.151 -17.4358,-1.216 -23,3 L 46,137 64,133.845 99,129 m -34,1 v 1 h -5 l 5,-1 m 9,5.333 c 0.7734,0 0.1602,0.498 -0.3333,0.334 L 74,135.333 m 50,1.667 -10,4 10,-4 m -82,2.333 c 0.7733,0 0.1602,0.498 -0.3333,0.334 L 42,139.333 M 174,146 h 15 v 1 h -16 l 1,-1 m -7,1 v 1 l -16,4 c 4.146,-4.507 10.165,-4.952 16,-5 m -36,14 v 1 l 10,-1 h -10 m 132,18 v 1 h -38 c 10.72,-4.498 26.619,-1.031 38,-1 m -16,6 1,1 -1,-1 m 2,0 v 1 h 13 l -13,-1 m 16,1 v 1 l 8,1 v -2 h -8 m 9,1 1,1 z"
       id="path163" />
  </g>
</svg>
