<?xml version="1.0" encoding="UTF-8"?>
<svg xmlns="http://www.w3.org/2000/svg" xmlns:xlink="http://www.w3.org/1999/xlink" width="216pt" height="215.999996pt" viewBox="0 0 216 215.999996" version="1.2">
<defs>
<clipPath id="clip1">
  <path d="M 123 112 L 125 112 L 125 114 L 123 114 Z M 123 112 "/>
</clipPath>
<clipPath id="clip2">
  <path d="M 8.546875 65.671875 L 215.851562 103.625 L 207.339844 150.101562 L 0.0351562 112.148438 Z M 8.546875 65.671875 "/>
</clipPath>
<clipPath id="clip3">
  <path d="M 8.5625 65.574219 L 215.867188 103.53125 L 207.222656 150.746094 L -0.0820312 112.792969 Z M 8.5625 65.574219 "/>
</clipPath>
<clipPath id="clip4">
  <path d="M 126 111 L 133 111 L 133 113 L 126 113 Z M 126 111 "/>
</clipPath>
<clipPath id="clip5">
  <path d="M 8.546875 65.671875 L 215.851562 103.625 L 207.339844 150.101562 L 0.0351562 112.148438 Z M 8.546875 65.671875 "/>
</clipPath>
<clipPath id="clip6">
  <path d="M 8.5625 65.574219 L 215.867188 103.53125 L 207.222656 150.746094 L -0.0820312 112.792969 Z M 8.5625 65.574219 "/>
</clipPath>
<clipPath id="clip7">
  <path d="M 183 136 L 206 136 L 206 141 L 183 141 Z M 183 136 "/>
</clipPath>
<clipPath id="clip8">
  <path d="M 8.546875 65.671875 L 215.851562 103.625 L 207.339844 150.101562 L 0.0351562 112.148438 Z M 8.546875 65.671875 "/>
</clipPath>
<clipPath id="clip9">
  <path d="M 8.5625 65.574219 L 215.867188 103.53125 L 207.222656 150.746094 L -0.0820312 112.792969 Z M 8.5625 65.574219 "/>
</clipPath>
<clipPath id="clip10">
  <path d="M 5 80 L 210 80 L 210 138 L 5 138 Z M 5 80 "/>
</clipPath>
<clipPath id="clip11">
  <path d="M 8.546875 65.671875 L 215.851562 103.625 L 207.339844 150.101562 L 0.0351562 112.148438 Z M 8.546875 65.671875 "/>
</clipPath>
<clipPath id="clip12">
  <path d="M 8.5625 65.574219 L 215.867188 103.53125 L 207.222656 150.746094 L -0.0820312 112.792969 Z M 8.5625 65.574219 "/>
</clipPath>
<clipPath id="clip13">
  <path d="M 115 112 L 123 112 L 123 115 L 115 115 Z M 115 112 "/>
</clipPath>
<clipPath id="clip14">
  <path d="M 8.546875 65.671875 L 215.851562 103.625 L 207.339844 150.101562 L 0.0351562 112.148438 Z M 8.546875 65.671875 "/>
</clipPath>
<clipPath id="clip15">
  <path d="M 8.5625 65.574219 L 215.867188 103.53125 L 207.222656 150.746094 L -0.0820312 112.792969 Z M 8.5625 65.574219 "/>
</clipPath>
</defs>
<g id="surface1">
<g clip-path="url(#clip1)" clip-rule="nonzero">
<g clip-path="url(#clip2)" clip-rule="nonzero">
<g clip-path="url(#clip3)" clip-rule="nonzero">
<path style=" stroke:none;fill-rule:evenodd;fill:rgb(0,74,173);fill-opacity:1;" d="M 124.753906 112.621094 C 124.6875 113.109375 123.628906 112.914062 123.164062 113.132812 C 123.402344 112.371094 124.128906 112.769531 124.753906 112.621094 Z M 124.753906 112.621094 "/>
</g>
</g>
</g>
<g clip-path="url(#clip4)" clip-rule="nonzero">
<g clip-path="url(#clip5)" clip-rule="nonzero">
<g clip-path="url(#clip6)" clip-rule="nonzero">
<path style=" stroke:none;fill-rule:evenodd;fill:rgb(0,74,173);fill-opacity:1;" d="M 126.011719 112.59375 C 128.152344 111.800781 130.679688 111.839844 132.59375 111.765625 C 130.558594 112.332031 128.484375 112.285156 126.011719 112.59375 Z M 126.011719 112.59375 "/>
</g>
</g>
</g>
<g clip-path="url(#clip7)" clip-rule="nonzero">
<g clip-path="url(#clip8)" clip-rule="nonzero">
<g clip-path="url(#clip9)" clip-rule="nonzero">
<path style=" stroke:none;fill-rule:evenodd;fill:rgb(0,74,173);fill-opacity:1;" d="M 195.53125 136.910156 C 195.523438 137.355469 195.769531 137.425781 195.886719 137.691406 C 198.59375 137.695312 200.335938 137.78125 203.027344 137.609375 C 203.503906 138.726562 204.738281 138.734375 205.640625 139.230469 C 205.566406 139.722656 205.164062 139.800781 204.570312 140.28125 C 204.542969 139.792969 204.8125 139.359375 204.34375 139.054688 C 203.46875 138.925781 203.78125 139.621094 203.199219 139.695312 C 201.644531 139.519531 198.347656 138.300781 195.757812 138.140625 C 194.839844 138.082031 192.492188 138.894531 192.796875 138.066406 C 190.890625 138.199219 187.53125 138.203125 184.96875 137.855469 C 183.898438 137.957031 184.199219 138.996094 183.085938 139.0625 C 183.082031 137.988281 184.132812 137.636719 185.058594 137.203125 C 185.476562 137.027344 185.503906 137.421875 185.578125 137.742188 C 189.015625 136.476562 191.539062 137.757812 195.53125 136.910156 Z M 195.53125 136.910156 "/>
</g>
</g>
</g>
<g clip-path="url(#clip10)" clip-rule="nonzero">
<g clip-path="url(#clip11)" clip-rule="nonzero">
<g clip-path="url(#clip12)" clip-rule="nonzero">
<path style=" stroke:none;fill-rule:evenodd;fill:rgb(0,74,173);fill-opacity:1;" d="M 207.207031 131.726562 C 207.195312 132.78125 208.59375 131.765625 208.320312 133.210938 C 208.03125 134.230469 206.933594 134.503906 206.066406 134.695312 C 206.179688 136.183594 207.316406 136.160156 208.109375 136.640625 C 206.742188 136.636719 205.460938 136.386719 205 135.746094 C 203.207031 137.214844 200.632812 135.289062 197.949219 135.179688 C 197.082031 135.175781 197.746094 136.234375 196.878906 136.230469 C 195.359375 135.945312 193.074219 136.792969 192.140625 135.644531 C 189.925781 136.222656 187.507812 136.316406 185.40625 135.652344 C 183.945312 135.917969 182.441406 136.214844 180.894531 136.296875 C 177.746094 136.46875 174.238281 135.734375 171.164062 136.027344 C 170.5 136.089844 169.820312 136.53125 169.167969 136.617188 C 165.851562 137.0625 162.707031 136.386719 159.839844 136.269531 C 159.222656 136.5 158.773438 136.84375 158.324219 137.191406 C 155.1875 137.03125 151.980469 136.980469 149.296875 136.152344 C 147.398438 136.910156 144.925781 136.523438 142.433594 136.605469 C 137.933594 136.757812 132.339844 138.117188 129.90625 136.019531 C 129.019531 135.253906 129.03125 133.84375 127.75 133.460938 C 125.960938 129.03125 126.855469 125.8125 127.339844 122.089844 C 128.976562 119.878906 131.066406 117.984375 132.941406 115.9375 C 130.578125 114.1875 126.21875 116.867188 124.0625 115.714844 C 122.425781 116.476562 120.453125 117.09375 118.367188 116.796875 C 117.964844 117.234375 117.113281 117.363281 116.648438 117.761719 C 109.015625 117.765625 100.488281 119.953125 94.257812 120.742188 C 98.5 118.757812 101.917969 118.074219 106.421875 118.21875 C 114.914062 115.441406 123.351562 114.96875 132.972656 113.8125 C 135.289062 113.53125 136.953125 112.957031 138.476562 111.707031 C 137.46875 111.019531 135.296875 112.042969 134.054688 111.699219 C 135.191406 110.746094 138.972656 111.652344 140.320312 110.296875 C 129.878906 110.605469 117.203125 112.628906 106.667969 114.992188 C 109.441406 115.507812 111.226562 114.519531 114.710938 114.101562 C 108.039062 115.878906 97.894531 117.488281 92.023438 117.773438 C 91.585938 117.945312 91.457031 118.335938 91.121094 118.582031 C 89.976562 118.574219 88.96875 118.886719 88.273438 119.121094 C 89.605469 119.882812 92.855469 118.964844 95.097656 118.460938 C 93.300781 120.003906 90.484375 119.757812 88.894531 121.335938 C 81.59375 120.425781 69.773438 126.664062 64.269531 121.351562 C 60.1875 111.578125 66.761719 105.109375 70.699219 99.140625 C 67.5625 98.777344 62.710938 100.863281 58.273438 100.230469 C 56.265625 101.617188 51.160156 102.003906 48.234375 101.710938 C 48.222656 102.074219 48.460938 102.070312 48.714844 102.042969 C 44.390625 103.84375 38.925781 103.351562 33.273438 103.917969 C 26.308594 104.613281 19.023438 106.339844 13.410156 105.785156 C 11.722656 104.613281 9.386719 104.445312 8.070312 101.921875 C 7.714844 101.246094 7.699219 100.042969 7.300781 98.886719 C 6.664062 97.042969 5.167969 94.6875 5.203125 92.078125 C 5.222656 90.675781 6.210938 89.382812 6.59375 88.210938 C 22.15625 88.164062 41.027344 84.835938 59.375 82.210938 C 65.628906 81.316406 73.675781 80.539062 80.292969 80.359375 C 87.40625 80.164062 90.675781 79.441406 94.453125 82.96875 C 96.222656 85.996094 96.621094 88.378906 97.335938 91.75 C 96.367188 92.929688 96.140625 94.625 95.128906 95.773438 C 95.304688 96.609375 95.476562 97.445312 95.339844 98.066406 C 95 98.785156 94.375 99.308594 93.773438 99.847656 C 93.992188 100.558594 94.738281 100.082031 94.40625 101 C 93.554688 101.484375 92.660156 101.941406 91.953125 102.527344 C 107.730469 100.542969 128.46875 96.421875 144.175781 95.785156 C 151.269531 95.5 158.410156 96.976562 162.601562 100.976562 C 163.320312 103.1875 163.402344 104.835938 163.9375 107.085938 C 164.019531 107.992188 162.753906 108.996094 163.984375 109.617188 C 163.644531 110.210938 162.242188 111.808594 163.417969 112.269531 C 162.691406 112.960938 162.296875 113.878906 160.796875 114.039062 C 159.832031 117.675781 156.476562 119.390625 152.425781 121.144531 C 152.933594 121.8125 153.953125 121.488281 154.738281 121.128906 C 155.558594 120.871094 154.644531 121.71875 155.460938 121.628906 C 168.84375 121.773438 184.945312 120.640625 197.757812 122.707031 C 200.929688 123.21875 204.234375 123.605469 206.292969 124.480469 C 208.394531 125.375 209.488281 127.601562 209.496094 130.441406 C 208.996094 130.570312 208.804688 130.238281 208.402344 130.226562 C 208.0625 130.800781 208.875 131.261719 209.113281 131.789062 C 208.820312 131.703125 207.746094 132.132812 207.207031 131.726562 Z M 42.738281 97.035156 C 44.828125 96.726562 46.859375 97.152344 48.472656 96.15625 C 46.300781 95.5625 44.527344 95.984375 42.738281 97.035156 Z M 68.996094 93.316406 C 69.777344 93.257812 71.625 93.652344 71.84375 92.777344 C 70.824219 92.6875 69.789062 92.527344 68.996094 93.316406 Z M 37.496094 100.574219 C 39.742188 101.445312 43.058594 100.097656 45.582031 99.886719 C 45.617188 100.148438 45.371094 100.21875 45.492188 100.539062 C 47.15625 100.496094 48.25 100.082031 49.480469 99.359375 C 49.300781 100.144531 50.195312 99.347656 50.207031 99.855469 C 54.671875 98.214844 61.746094 98.980469 66.179688 97.457031 C 66.824219 97.234375 67.101562 96.667969 67.695312 96.535156 C 69.917969 96.035156 72.53125 97.472656 73.757812 95.167969 C 61.757812 95.878906 51.175781 99.128906 39.457031 99.777344 C 37.398438 99.890625 35.28125 100.332031 33.152344 100.976562 C 34.625 101.691406 35.84375 100.925781 37.496094 100.574219 Z M 31.179688 102.835938 C 30.839844 102.898438 30.5 102.960938 30.160156 103.027344 C 30.21875 103.742188 31.496094 103.667969 31.179688 102.835938 Z M 51.855469 100.8125 C 52.5625 100.707031 52.742188 100.230469 53.164062 99.929688 C 52.621094 99.84375 51.582031 99.878906 51.855469 100.8125 Z M 53.8125 100.019531 C 54.269531 100.976562 55.765625 100.222656 55.808594 99.425781 C 54.894531 99.453125 54.726562 99.992188 53.8125 100.019531 Z M 72.101562 97.605469 C 70.183594 97.300781 67.796875 97.683594 65.445312 98.019531 C 67.253906 98.945312 69.5625 97.519531 72.101562 97.605469 Z M 89.578125 101.070312 C 88.28125 102.5 85.246094 102.730469 84.300781 104.402344 C 87.019531 104.125 89.726562 102.980469 91.417969 103.050781 C 90.988281 101.921875 92.257812 101.960938 92.097656 101.015625 C 91.355469 100.523438 91.839844 101.890625 90.746094 101.695312 C 90.300781 101.566406 90.257812 100.847656 89.578125 101.070312 Z M 157.242188 98.179688 C 156.984375 97.675781 155.878906 97.078125 155.632812 97.425781 C 156.324219 97.449219 156.488281 98.25 157.242188 98.179688 Z M 114.273438 110.582031 C 114.375 111.128906 113.714844 111.148438 113.851562 111.722656 C 113.242188 111.121094 112.34375 111.828125 112.339844 112.644531 C 114.339844 111.855469 118.097656 112.113281 119.953125 110.5625 C 119.570312 110.605469 119.25 110.554688 119.066406 110.308594 C 122.0625 109.421875 124.632812 109.261719 126.679688 108.222656 C 122.804688 108.675781 118.8125 108.996094 114.273438 110.582031 Z M 138.039062 108.1875 C 136.246094 108.578125 134.929688 107.902344 133.617188 108.179688 C 133.664062 108.167969 133.648438 108.773438 133.527344 108.832031 C 132.640625 109.253906 131.160156 108.949219 129.957031 108.875 C 130.230469 108.527344 130.972656 108.503906 131.0625 108.027344 C 130.421875 107.738281 128.910156 107.746094 128.660156 108.695312 C 129.550781 109.074219 129.769531 108.675781 129.496094 109.8125 C 132.488281 109.199219 135.304688 109.316406 137.464844 108.507812 C 138.132812 109.613281 140.332031 108.460938 141.683594 108.554688 C 141.207031 107.757812 137.109375 107.695312 138.039062 108.1875 Z M 97.71875 116.695312 C 99.367188 117.019531 100.972656 115.863281 102.804688 115.730469 C 101.484375 115.179688 98.546875 116.097656 97.71875 116.695312 Z M 184.484375 131.800781 C 178.484375 133.78125 170.636719 131.820312 164.789062 133.421875 C 165.664062 133.835938 166.171875 133.253906 167.472656 133.125 C 171.472656 134.339844 175.3125 133.078125 179.679688 133.136719 C 181.308594 133.160156 183.09375 133.925781 184.863281 133.847656 C 189.238281 133.65625 193.667969 133.5625 197.976562 133.054688 C 193.667969 132.363281 188.59375 132.792969 184.484375 131.800781 Z M 182.054688 134.59375 C 181.882812 134.460938 180.835938 134.355469 180.835938 134.828125 C 181.003906 134.960938 182.050781 135.066406 182.054688 134.59375 Z M 182.054688 134.59375 "/>
</g>
</g>
</g>
<g clip-path="url(#clip13)" clip-rule="nonzero">
<g clip-path="url(#clip14)" clip-rule="nonzero">
<g clip-path="url(#clip15)" clip-rule="nonzero">
<path style=" stroke:none;fill-rule:evenodd;fill:rgb(0,74,173);fill-opacity:1;" d="M 115.398438 114.394531 C 117.996094 112.875 121.089844 113.316406 122.921875 112.964844 C 120.671875 113.683594 117.367188 113.714844 115.398438 114.394531 Z M 115.398438 114.394531 "/>
</g>
</g>
</g>
</g>
</svg>
