<?xml version="1.0" encoding="UTF-8" standalone="no"?>
<svg
   xmlns:dc="http://purl.org/dc/elements/1.1/"
   xmlns:cc="http://creativecommons.org/ns#"
   xmlns:rdf="http://www.w3.org/1999/02/22-rdf-syntax-ns#"
   xmlns:svg="http://www.w3.org/2000/svg"
   xmlns="http://www.w3.org/2000/svg"
   xmlns:sodipodi="http://sodipodi.sourceforge.net/DTD/sodipodi-0.dtd"
   xmlns:inkscape="http://www.inkscape.org/namespaces/inkscape"
   version="1.1"
   id="svg60"
   width="288"
   height="288"
   viewBox="0 0 288 288"
   sodipodi:docname="swiggle-blue-perfect.svg"
   inkscape:version="1.0.1 (c497b03c, 2020-09-10)">
  <metadata
     id="metadata66">
    <rdf:RDF>
      <cc:Work
         rdf:about="">
        <dc:format>image/svg+xml</dc:format>
        <dc:type
           rdf:resource="http://purl.org/dc/dcmitype/StillImage" />
        <dc:title></dc:title>
      </cc:Work>
    </rdf:RDF>
  </metadata>
  <defs
     id="defs64" />
  <sodipodi:namedview
     pagecolor="#ffffff"
     bordercolor="#666666"
     borderopacity="1"
     objecttolerance="10"
     gridtolerance="10"
     guidetolerance="10"
     inkscape:pageopacity="0"
     inkscape:pageshadow="2"
     inkscape:window-width="1680"
     inkscape:window-height="1024"
     id="namedview62"
     showgrid="false"
     inkscape:pagecheckerboard="true"
     inkscape:zoom="1"
     inkscape:cx="144"
     inkscape:cy="144"
     inkscape:window-x="0"
     inkscape:window-y="26"
     inkscape:window-maximized="0"
     inkscape:current-layer="g68" />
  <g
     inkscape:groupmode="layer"
     inkscape:label="Image"
     id="g68">
    <path
       style="fill:#064daf;stroke:none"
       d="m 11,119 c -1.45638,7.963 0.67964,20.453 10.0008,22.606 7.0816,1.635 14.9451,-0.763 21.9992,-1.556 17.9488,-2.016 35.9799,-5.626 54,-7.05 -2.6197,3.883 -5.5803,7.76 -7.598,12 -12.5226,26.318 22.299,20.462 36.598,16 v -1 h -5 v -1 l 17,-2 v -1 h -2 v -1 l 53,-7 v 1 l -43,9 v 1 l 34,-4 c -5.024,6.623 -14.379,20.497 -2.945,26.825 7.294,4.037 18.894,0.862 26.945,1.214 25.014,1.096 49.953,-2.043 75,-0.039 l -1,-3 3,-1 c 0.435,-13.731 -8.699,-14.185 -21,-15.025 C 242.358,162.771 224.711,163 207,163 v -1 c 16.873,-7.287 19.588,-28.824 -1,-32.535 -23.818,-4.295 -56.704,2.924 -80,8.535 v -1 l 3,-1 c 0.304,-8.47 6.646,-16.736 -0.649,-24.442 C 121.688,104.52 107.399,108.74 99,108.986 69.5211,109.85 40.5947,118.918 11,119 m 86,6.333 0.3333,0.334 C 96.8398,125.831 96.2266,125.333 97,125.333 m 4,2.667 v 1 l -9,1 v 1 h 4 v 1 c -6.7858,-0.154 -17.4425,-1.211 -23,3 l -25,1 18,-3.155 35,-4.845 m -34,1 v 1 h -5 l 5,-1 m 9,5.333 c 0.7734,0 0.1602,0.498 -0.3333,0.334 L 76,134.333 m 50,1.667 -10,4 10,-4 m -82,2.333 c 0.7733,0 0.1602,0.498 -0.3333,0.334 L 44,138.333 M 170,145 v 1 l -17,5 v -1 l 17,-5 m 6,0 h 15 v 1 h -16 l 1,-1 m -43,15 v 1 l 10,-1 h -10 m 132,18 v 1 h -38 c 10.72,-4.498 26.619,-1.031 38,-1 m -16,6 1,1 -1,-1 m 2,0 v 1 h 13 l -13,-1 m 16,1 v 1 l 8,1 -8,-2 m 9,1 1,1 z"
       id="path134" />
  </g>
</svg>
