<?xml version="1.0" encoding="UTF-8" standalone="no"?>
<svg
   xmlns:dc="http://purl.org/dc/elements/1.1/"
   xmlns:cc="http://creativecommons.org/ns#"
   xmlns:rdf="http://www.w3.org/1999/02/22-rdf-syntax-ns#"
   xmlns:svg="http://www.w3.org/2000/svg"
   xmlns="http://www.w3.org/2000/svg"
   xmlns:sodipodi="http://sodipodi.sourceforge.net/DTD/sodipodi-0.dtd"
   xmlns:inkscape="http://www.inkscape.org/namespaces/inkscape"
   version="1.1"
   id="svg385"
   width="288"
   height="288"
   viewBox="0 0 288 288"
   sodipodi:docname="whispy-circle-white-perfect.svg"
   inkscape:version="1.0.1 (c497b03c, 2020-09-10)">
  <metadata
     id="metadata391">
    <rdf:RDF>
      <cc:Work
         rdf:about="">
        <dc:format>image/svg+xml</dc:format>
        <dc:type
           rdf:resource="http://purl.org/dc/dcmitype/StillImage" />
        <dc:title></dc:title>
      </cc:Work>
    </rdf:RDF>
  </metadata>
  <defs
     id="defs389" />
  <sodipodi:namedview
     pagecolor="#ffffff"
     bordercolor="#666666"
     borderopacity="1"
     objecttolerance="10"
     gridtolerance="10"
     guidetolerance="10"
     inkscape:pageopacity="0"
     inkscape:pageshadow="2"
     inkscape:window-width="1680"
     inkscape:window-height="1024"
     id="namedview387"
     showgrid="false"
     inkscape:pagecheckerboard="true"
     inkscape:zoom="2.0510637"
     inkscape:cx="159.96269"
     inkscape:cy="97.613005"
     inkscape:window-x="0"
     inkscape:window-y="26"
     inkscape:window-maximized="0"
     inkscape:current-layer="g393" />
  <g
     inkscape:groupmode="layer"
     inkscape:label="Image"
     id="g393">
    <path
       style="fill:#ffffff;stroke:none"
       d="m 113.55028,19.121102 v 1 l 44,-3 c -11.324,-4.7516 -32.487,-1.2354 -44,2 m 45,-2 v 1 h 6 l -6,-1 m -60.999996,9 v -1 l 4.999996,-1 v -1 l -15.999996,5 v 1 l 5,-1 v 1 c -30.8028,7.2994 -63.6373,39.0028 -71,69.999999 h 1 l 21,-32.999999 -12,20.000003 h 1 l 4,-4 c -4.3646,7.1313 -10.2516,14.422796 -13.5718,22.003995 -7.521499,17.174 -7.428199,35.63 -7.428199,53.996 h -1 l -1,-12.00001 h -1 l 2,28.00001 h 1 v -15 h 0.999999 c 0,10.122 0.8476,19.621 5,29 h 1 l -1,-6 h 1 l 12,32 3,5 7.3333,8 16.6667,19 -4,-5 c 11.678,8.129 21.7086,16.888 35,22.573 39.453996,16.872 88.995996,13.983 123.999986,-12.051 24.078,-17.909 42.372,-43.049 49.346,-72.522 2.951,-12.471 2.627,-24.42 3.824,-37.00001 3.057,-32.12999 -6.172,-69.277585 -34.17,-88.999987 l 3,4.999999 c -39.55799,-39.5582 -88.26499,-43.9687 -139.999986,-32 m 0,0 v 1 l -6,1 6,-2 m 140.999986,32 4,5 -4,-5 m -194.999986,7 -1,1 1,-1 m -26,97.999998 3,19 h -1 l -2,-19 m -2.6667,13.667 0.3334,0.666 -0.3334,-0.666 m 2,8 0.3334,0.666 -0.3334,-0.666 m 1,3 0.3334,0.666 -0.3334,-0.666 m 0.6667,2.333 5,15 h 1 l -6,-15 m 8,16 1,1 -1,-1 m 1,2 9,18 h 1 l -10,-18 m 9,7 -1,1 1,-1 m 19,24 1,2 -1,-2 m 12,15 5,4 v -1 l -5,-3 m 6,4 1,1 -1,-1 m 4,0 1,1 -1,-1 m 15.6667,11.333 0.6666,0.334 z"
       id="path419" />
  </g>
</svg>
